<?xml version="1.0" encoding="UTF-8" standalone="no"?>
<!DOCTYPE svg PUBLIC "-//W3C//DTD SVG 1.1//EN"
 "http://www.w3.org/Graphics/SVG/1.1/DTD/svg11.dtd">
<!-- Generated by graphviz version 14.1.2 (20260124.0452)
 -->
<!-- Title: chesschat_vpc_aws_icons Pages: 1 -->
<svg width="1789pt" height="478pt"
 viewBox="0.00 0.00 1789.00 478.00" xmlns="http://www.w3.org/2000/svg" xmlns:xlink="http://www.w3.org/1999/xlink">
<g id="graph0" class="graph" transform="scale(1 1) rotate(0) translate(14.4 463.15)">
<title>chesschat_vpc_aws_icons</title>
<polygon fill="white" stroke="none" points="-14.4,14.4 -14.4,-463.15 1774.53,-463.15 1774.53,14.4 -14.4,14.4"/>
<text xml:space="preserve" text-anchor="middle" x="114.88" y="-434.3" font-family="Helvetica,sans-Serif" font-size="11.00">CHESSCHAT VPC (Graphviz + AWS Icons)</text>
<g id="clust1" class="cluster">
<title>cluster_region</title>
<path fill="white" stroke="#d1d5db" d="M107.12,-8C107.12,-8 1740.12,-8 1740.12,-8 1746.12,-8 1752.12,-14 1752.12,-20 1752.12,-20 1752.12,-408.75 1752.12,-408.75 1752.12,-414.75 1746.12,-420.75 1740.12,-420.75 1740.12,-420.75 107.12,-420.75 107.12,-420.75 101.13,-420.75 95.12,-414.75 95.12,-408.75 95.12,-408.75 95.12,-20 95.12,-20 95.12,-14 101.12,-8 107.12,-8"/>
<text xml:space="preserve" text-anchor="middle" x="139.88" y="-406.3" font-family="Helvetica,sans-Serif" font-size="11.00">AWS us&#45;east&#45;1</text>
</g>
<g id="clust2" class="cluster">
<title>cluster_public</title>
<path fill="white" stroke="#bfdbfe" d="M122.12,-245C122.12,-245 385.12,-245 385.12,-245 391.12,-245 397.12,-251 397.12,-257 397.12,-257 397.12,-305 397.12,-305 397.12,-311 391.12,-317 385.12,-317 385.12,-317 122.12,-317 122.12,-317 116.13,-317 110.12,-311 110.12,-305 110.12,-305 110.12,-257 110.12,-257 110.12,-251 116.12,-245 122.12,-245"/>
<text xml:space="preserve" text-anchor="middle" x="154.12" y="-302.55" font-family="Helvetica,sans-Serif" font-size="11.00">Public Subnets</text>
</g>
<g id="clust3" class="cluster">
<title>cluster_app</title>
<path fill="white" stroke="#a7f3d0" d="M492.12,-245C492.12,-245 760.12,-245 760.12,-245 766.12,-245 772.12,-251 772.12,-257 772.12,-257 772.12,-305 772.12,-305 772.12,-311 766.12,-317 760.12,-317 760.12,-317 492.12,-317 492.12,-317 486.12,-317 480.12,-311 480.12,-305 480.12,-305 480.12,-257 480.12,-257 480.12,-251 486.12,-245 492.12,-245"/>
<text xml:space="preserve" text-anchor="middle" x="537.25" y="-302.55" font-family="Helvetica,sans-Serif" font-size="11.00">Private App Subnets</text>
</g>
<g id="clust4" class="cluster">
<title>cluster_data</title>
<path fill="white" stroke="#fde68a" d="M793.12,-245C793.12,-245 1072.12,-245 1072.12,-245 1078.12,-245 1084.12,-251 1084.12,-257 1084.12,-257 1084.12,-305 1084.12,-305 1084.12,-311 1078.12,-317 1072.12,-317 1072.12,-317 793.12,-317 793.12,-317 787.12,-317 781.12,-311 781.12,-305 781.12,-305 781.12,-257 781.12,-257 781.12,-251 787.12,-245 793.12,-245"/>
<text xml:space="preserve" text-anchor="middle" x="840.5" y="-302.55" font-family="Helvetica,sans-Serif" font-size="11.00">Private Data Subnets</text>
</g>
<!-- users -->
<g id="node1" class="node">
<title>users</title>
<path fill="#eef2ff" stroke="#4f46e5" d="M66.25,-199.12C66.25,-199.12 12,-199.12 12,-199.12 6,-199.12 0,-193.12 0,-187.12 0,-187.12 0,-175.12 0,-175.12 0,-169.12 6,-163.12 12,-163.12 12,-163.12 66.25,-163.12 66.25,-163.12 72.25,-163.12 78.25,-169.12 78.25,-175.12 78.25,-175.12 78.25,-187.12 78.25,-187.12 78.25,-193.12 72.25,-199.12 66.25,-199.12"/>
<text xml:space="preserve" text-anchor="middle" x="39.12" y="-177.25" font-family="Helvetica,sans-Serif" font-size="10.00">Internet Users</text>
</g>
<!-- igw -->
<g id="node3" class="node">
<title>igw</title>
<path fill="#f7f9fb" stroke="none" d="M205.62,-100.5C205.62,-100.5 120.62,-100.5 120.62,-100.5 114.62,-100.5 108.62,-94.5 108.62,-88.5 108.62,-88.5 108.62,-28 108.62,-28 108.62,-22 114.62,-16 120.62,-16 120.62,-16 205.62,-16 205.62,-16 211.62,-16 217.62,-22 217.62,-28 217.62,-28 217.62,-88.5 217.62,-88.5 217.62,-94.5 211.62,-100.5 205.62,-100.5"/>
<image xlink:href="/Users/tim/CODE_PROJECTS/CHESSCHAT_V2/diagrams/assets/aws/Amazon-VPC_Internet-Gateway_light-bg.png" width="72px" height="54px" preserveAspectRatio="xMinYMin meet" x="127.125" y="-98.5"/>
<text xml:space="preserve" text-anchor="start" x="153" y="-31" font-family="Helvetica,sans-Serif" font-size="10.00">IGW</text>
<text xml:space="preserve" text-anchor="start" x="110.62" y="-19.75" font-family="Helvetica,sans-Serif" font-size="10.00">igw&#45;08c762aa9e0f534b1</text>
</g>
<!-- users&#45;&gt;igw -->
<g id="edge1" class="edge">
<title>users&#45;&gt;igw</title>
<path fill="none" stroke="#6b7280" stroke-width="1.1" d="M39.12,-162.69C39.12,-128.34 39.12,-58 39.12,-58 39.12,-58 100.07,-58 100.07,-58"/>
<polygon fill="#6b7280" stroke="#6b7280" stroke-width="1.1" points="100.07,-60.45 107.07,-58 100.07,-55.55 100.07,-60.45"/>
</g>
<!-- vpc -->
<g id="node2" class="node">
<title>vpc</title>
<polygon fill="#ecfeff" stroke="#0891b2" points="736.38,-392.75 733.38,-396.75 712.38,-396.75 709.38,-392.75 613.88,-392.75 613.88,-351 736.38,-351 736.38,-392.75"/>
<text xml:space="preserve" text-anchor="middle" x="675.12" y="-379.25" font-family="Helvetica,sans-Serif" font-size="10.00">VPC</text>
<text xml:space="preserve" text-anchor="middle" x="675.12" y="-368" font-family="Helvetica,sans-Serif" font-size="10.00">chesschat&#45;dev&#45;vpc&#45;main</text>
<text xml:space="preserve" text-anchor="middle" x="675.12" y="-356.75" font-family="Helvetica,sans-Serif" font-size="10.00">10.20.0.0/16</text>
</g>
<!-- pub_a -->
<g id="node5" class="node">
<title>pub_a</title>
<path fill="#eff6ff" stroke="#3b82f6" d="M377.12,-289C377.12,-289 331.12,-289 331.12,-289 325.12,-289 319.12,-283 319.12,-277 319.12,-277 319.12,-265 319.12,-265 319.12,-259 325.12,-253 331.12,-253 331.12,-253 377.12,-253 377.12,-253 383.12,-253 389.12,-259 389.12,-265 389.12,-265 389.12,-277 389.12,-277 389.12,-283 383.12,-289 377.12,-289"/>
<text xml:space="preserve" text-anchor="middle" x="354.12" y="-272.75" font-family="Helvetica,sans-Serif" font-size="10.00">us&#45;east&#45;1a</text>
<text xml:space="preserve" text-anchor="middle" x="354.12" y="-261.5" font-family="Helvetica,sans-Serif" font-size="10.00">10.20.0.0/20</text>
</g>
<!-- vpc&#45;&gt;pub_a -->
<g id="edge3" class="edge">
<title>vpc&#45;&gt;pub_a</title>
<path fill="none" stroke="#6b7280" stroke-width="1.1" d="M613.61,-368C520.41,-368 354.12,-368 354.12,-368 354.12,-368 354.12,-297.91 354.12,-297.91"/>
<polygon fill="#6b7280" stroke="#6b7280" stroke-width="1.1" points="356.58,-297.91 354.13,-290.91 351.68,-297.91 356.58,-297.91"/>
</g>
<!-- pub_b -->
<g id="node6" class="node">
<title>pub_b</title>
<path fill="#eff6ff" stroke="#3b82f6" d="M181.75,-289C181.75,-289 130.5,-289 130.5,-289 124.5,-289 118.5,-283 118.5,-277 118.5,-277 118.5,-265 118.5,-265 118.5,-259 124.5,-253 130.5,-253 130.5,-253 181.75,-253 181.75,-253 187.75,-253 193.75,-259 193.75,-265 193.75,-265 193.75,-277 193.75,-277 193.75,-283 187.75,-289 181.75,-289"/>
<text xml:space="preserve" text-anchor="middle" x="156.12" y="-272.75" font-family="Helvetica,sans-Serif" font-size="10.00">us&#45;east&#45;1b</text>
<text xml:space="preserve" text-anchor="middle" x="156.12" y="-261.5" font-family="Helvetica,sans-Serif" font-size="10.00">10.20.16.0/20</text>
</g>
<!-- vpc&#45;&gt;pub_b -->
<g id="edge4" class="edge">
<title>vpc&#45;&gt;pub_b</title>
<path fill="none" stroke="#6b7280" stroke-width="1.1" d="M613.55,-384C476.07,-384 156.12,-384 156.12,-384 156.12,-384 156.12,-298.07 156.12,-298.07"/>
<polygon fill="#6b7280" stroke="#6b7280" stroke-width="1.1" points="158.58,-298.07 156.13,-291.07 153.68,-298.07 158.58,-298.07"/>
</g>
<!-- pub_c -->
<g id="node7" class="node">
<title>pub_c</title>
<path fill="#eff6ff" stroke="#3b82f6" d="M281.75,-289C281.75,-289 230.5,-289 230.5,-289 224.5,-289 218.5,-283 218.5,-277 218.5,-277 218.5,-265 218.5,-265 218.5,-259 224.5,-253 230.5,-253 230.5,-253 281.75,-253 281.75,-253 287.75,-253 293.75,-259 293.75,-265 293.75,-265 293.75,-277 293.75,-277 293.75,-283 287.75,-289 281.75,-289"/>
<text xml:space="preserve" text-anchor="middle" x="256.12" y="-272.75" font-family="Helvetica,sans-Serif" font-size="10.00">us&#45;east&#45;1c</text>
<text xml:space="preserve" text-anchor="middle" x="256.12" y="-261.5" font-family="Helvetica,sans-Serif" font-size="10.00">10.20.32.0/20</text>
</g>
<!-- vpc&#45;&gt;pub_c -->
<g id="edge5" class="edge">
<title>vpc&#45;&gt;pub_c</title>
<path fill="none" stroke="#6b7280" stroke-width="1.1" d="M613.75,-376C497.37,-376 256.12,-376 256.12,-376 256.12,-376 256.12,-297.95 256.12,-297.95"/>
<polygon fill="#6b7280" stroke="#6b7280" stroke-width="1.1" points="258.58,-297.95 256.13,-290.95 253.68,-297.95 258.58,-297.95"/>
</g>
<!-- app_a -->
<g id="node8" class="node">
<title>app_a</title>
<path fill="#ecfdf5" stroke="#10b981" d="M651.75,-289C651.75,-289 600.5,-289 600.5,-289 594.5,-289 588.5,-283 588.5,-277 588.5,-277 588.5,-265 588.5,-265 588.5,-259 594.5,-253 600.5,-253 600.5,-253 651.75,-253 651.75,-253 657.75,-253 663.75,-259 663.75,-265 663.75,-265 663.75,-277 663.75,-277 663.75,-283 657.75,-289 651.75,-289"/>
<text xml:space="preserve" text-anchor="middle" x="626.12" y="-272.75" font-family="Helvetica,sans-Serif" font-size="10.00">us&#45;east&#45;1a</text>
<text xml:space="preserve" text-anchor="middle" x="626.12" y="-261.5" font-family="Helvetica,sans-Serif" font-size="10.00">10.20.48.0/20</text>
</g>
<!-- vpc&#45;&gt;app_a -->
<g id="edge6" class="edge">
<title>vpc&#45;&gt;app_a</title>
<path fill="none" stroke="#6b7280" stroke-width="1.1" d="M638.81,-350.97C638.81,-350.97 638.81,-297.83 638.81,-297.83"/>
<polygon fill="#6b7280" stroke="#6b7280" stroke-width="1.1" points="641.26,-297.83 638.81,-290.83 636.36,-297.83 641.26,-297.83"/>
</g>
<!-- app_b -->
<g id="node9" class="node">
<title>app_b</title>
<path fill="#ecfdf5" stroke="#10b981" d="M551.75,-289C551.75,-289 500.5,-289 500.5,-289 494.5,-289 488.5,-283 488.5,-277 488.5,-277 488.5,-265 488.5,-265 488.5,-259 494.5,-253 500.5,-253 500.5,-253 551.75,-253 551.75,-253 557.75,-253 563.75,-259 563.75,-265 563.75,-265 563.75,-277 563.75,-277 563.75,-283 557.75,-289 551.75,-289"/>
<text xml:space="preserve" text-anchor="middle" x="526.12" y="-272.75" font-family="Helvetica,sans-Serif" font-size="10.00">us&#45;east&#45;1b</text>
<text xml:space="preserve" text-anchor="middle" x="526.12" y="-261.5" font-family="Helvetica,sans-Serif" font-size="10.00">10.20.64.0/20</text>
</g>
<!-- vpc&#45;&gt;app_b -->
<g id="edge7" class="edge">
<title>vpc&#45;&gt;app_b</title>
<path fill="none" stroke="#6b7280" stroke-width="1.1" d="M613.66,-359C572.62,-359 526.12,-359 526.12,-359 526.12,-359 526.12,-297.9 526.12,-297.9"/>
<polygon fill="#6b7280" stroke="#6b7280" stroke-width="1.1" points="528.58,-297.9 526.13,-290.9 523.68,-297.9 528.58,-297.9"/>
</g>
<!-- app_c -->
<g id="node10" class="node">
<title>app_c</title>
<path fill="#ecfdf5" stroke="#10b981" d="M751.75,-289C751.75,-289 700.5,-289 700.5,-289 694.5,-289 688.5,-283 688.5,-277 688.5,-277 688.5,-265 688.5,-265 688.5,-259 694.5,-253 700.5,-253 700.5,-253 751.75,-253 751.75,-253 757.75,-253 763.75,-259 763.75,-265 763.75,-265 763.75,-277 763.75,-277 763.75,-283 757.75,-289 751.75,-289"/>
<text xml:space="preserve" text-anchor="middle" x="726.12" y="-272.75" font-family="Helvetica,sans-Serif" font-size="10.00">us&#45;east&#45;1c</text>
<text xml:space="preserve" text-anchor="middle" x="726.12" y="-261.5" font-family="Helvetica,sans-Serif" font-size="10.00">10.20.80.0/20</text>
</g>
<!-- vpc&#45;&gt;app_c -->
<g id="edge8" class="edge">
<title>vpc&#45;&gt;app_c</title>
<path fill="none" stroke="#6b7280" stroke-width="1.1" d="M712.44,-350.97C712.44,-350.97 712.44,-297.83 712.44,-297.83"/>
<polygon fill="#6b7280" stroke="#6b7280" stroke-width="1.1" points="714.89,-297.83 712.44,-290.83 709.99,-297.83 714.89,-297.83"/>
</g>
<!-- data_a -->
<g id="node11" class="node">
<title>data_a</title>
<path fill="#fffbeb" stroke="#d97706" d="M1063.75,-289C1063.75,-289 1012.5,-289 1012.5,-289 1006.5,-289 1000.5,-283 1000.5,-277 1000.5,-277 1000.5,-265 1000.5,-265 1000.5,-259 1006.5,-253 1012.5,-253 1012.5,-253 1063.75,-253 1063.75,-253 1069.75,-253 1075.75,-259 1075.75,-265 1075.75,-265 1075.75,-277 1075.75,-277 1075.75,-283 1069.75,-289 1063.75,-289"/>
<text xml:space="preserve" text-anchor="middle" x="1038.12" y="-272.75" font-family="Helvetica,sans-Serif" font-size="10.00">us&#45;east&#45;1a</text>
<text xml:space="preserve" text-anchor="middle" x="1038.12" y="-261.5" font-family="Helvetica,sans-Serif" font-size="10.00">10.20.96.0/20</text>
</g>
<!-- vpc&#45;&gt;data_a -->
<g id="edge9" class="edge">
<title>vpc&#45;&gt;data_a</title>
<path fill="none" stroke="#6b7280" stroke-width="1.1" d="M736.7,-376C840.27,-376 1038.12,-376 1038.12,-376 1038.12,-376 1038.12,-297.95 1038.12,-297.95"/>
<polygon fill="#6b7280" stroke="#6b7280" stroke-width="1.1" points="1040.58,-297.95 1038.13,-290.95 1035.68,-297.95 1040.58,-297.95"/>
</g>
<!-- data_b -->
<g id="node12" class="node">
<title>data_b</title>
<path fill="#fffbeb" stroke="#d97706" d="M963.38,-289C963.38,-289 906.88,-289 906.88,-289 900.88,-289 894.88,-283 894.88,-277 894.88,-277 894.88,-265 894.88,-265 894.88,-259 900.88,-253 906.88,-253 906.88,-253 963.38,-253 963.38,-253 969.38,-253 975.38,-259 975.38,-265 975.38,-265 975.38,-277 975.38,-277 975.38,-283 969.38,-289 963.38,-289"/>
<text xml:space="preserve" text-anchor="middle" x="935.12" y="-272.75" font-family="Helvetica,sans-Serif" font-size="10.00">us&#45;east&#45;1b</text>
<text xml:space="preserve" text-anchor="middle" x="935.12" y="-261.5" font-family="Helvetica,sans-Serif" font-size="10.00">10.20.112.0/20</text>
</g>
<!-- vpc&#45;&gt;data_b -->
<g id="edge10" class="edge">
<title>vpc&#45;&gt;data_b</title>
<path fill="none" stroke="#6b7280" stroke-width="1.1" d="M736.74,-368C813.63,-368 935.12,-368 935.12,-368 935.12,-368 935.12,-297.91 935.12,-297.91"/>
<polygon fill="#6b7280" stroke="#6b7280" stroke-width="1.1" points="937.58,-297.91 935.13,-290.91 932.68,-297.91 937.58,-297.91"/>
</g>
<!-- data_c -->
<g id="node13" class="node">
<title>data_c</title>
<path fill="#fffbeb" stroke="#d97706" d="M857.38,-289C857.38,-289 800.88,-289 800.88,-289 794.88,-289 788.88,-283 788.88,-277 788.88,-277 788.88,-265 788.88,-265 788.88,-259 794.88,-253 800.88,-253 800.88,-253 857.38,-253 857.38,-253 863.38,-253 869.38,-259 869.38,-265 869.38,-265 869.38,-277 869.38,-277 869.38,-283 863.38,-289 857.38,-289"/>
<text xml:space="preserve" text-anchor="middle" x="829.12" y="-272.75" font-family="Helvetica,sans-Serif" font-size="10.00">us&#45;east&#45;1c</text>
<text xml:space="preserve" text-anchor="middle" x="829.12" y="-261.5" font-family="Helvetica,sans-Serif" font-size="10.00">10.20.128.0/20</text>
</g>
<!-- vpc&#45;&gt;data_c -->
<g id="edge11" class="edge">
<title>vpc&#45;&gt;data_c</title>
<path fill="none" stroke="#6b7280" stroke-width="1.1" d="M736.43,-359C779.38,-359 829.12,-359 829.12,-359 829.12,-359 829.12,-297.9 829.12,-297.9"/>
<polygon fill="#6b7280" stroke="#6b7280" stroke-width="1.1" points="831.58,-297.9 829.13,-290.9 826.68,-297.9 831.58,-297.9"/>
</g>
<!-- flowlogs -->
<g id="node22" class="node">
<title>flowlogs</title>
<path fill="#f8fafc" stroke="#475569" d="M1453.62,-289C1453.62,-289 1368.62,-289 1368.62,-289 1362.62,-289 1356.62,-283 1356.62,-277 1356.62,-277 1356.62,-265 1356.62,-265 1356.62,-259 1362.62,-253 1368.62,-253 1368.62,-253 1453.62,-253 1453.62,-253 1459.62,-253 1465.62,-259 1465.62,-265 1465.62,-265 1465.62,-277 1465.62,-277 1465.62,-283 1459.62,-289 1453.62,-289"/>
<text xml:space="preserve" text-anchor="middle" x="1411.12" y="-272.75" font-family="Helvetica,sans-Serif" font-size="10.00">VPC Flow Logs</text>
<text xml:space="preserve" text-anchor="middle" x="1411.12" y="-261.5" font-family="Helvetica,sans-Serif" font-size="10.00">fl&#45;05f30eba368dcc3fd</text>
</g>
<!-- vpc&#45;&gt;flowlogs -->
<g id="edge35" class="edge">
<title>vpc&#45;&gt;flowlogs</title>
<path fill="none" stroke="#6b7280" stroke-width="1.1" d="M736.61,-384C913.5,-384 1411.12,-384 1411.12,-384 1411.12,-384 1411.12,-298.07 1411.12,-298.07"/>
<polygon fill="#6b7280" stroke="#6b7280" stroke-width="1.1" points="1413.58,-298.07 1411.13,-291.07 1408.68,-298.07 1413.58,-298.07"/>
</g>
<!-- igw&#45;&gt;pub_a -->
<g id="edge2" class="edge">
<title>igw&#45;&gt;pub_a</title>
<path fill="none" stroke="#6b7280" stroke-width="1.1" d="M217.45,-84C255.5,-84 299.58,-84 299.58,-84 299.58,-84 299.58,-265 299.58,-265 299.58,-265 309.99,-265 309.99,-265"/>
<polygon fill="#6b7280" stroke="#6b7280" stroke-width="1.1" points="309.99,-267.45 316.99,-265 309.99,-262.55 309.99,-267.45"/>
</g>
<!-- nat -->
<g id="node4" class="node">
<title>nat</title>
<path fill="#f7f9fb" stroke="none" d="M684.88,-100.5C684.88,-100.5 601.38,-100.5 601.38,-100.5 595.38,-100.5 589.38,-94.5 589.38,-88.5 589.38,-88.5 589.38,-28 589.38,-28 589.38,-22 595.38,-16 601.38,-16 601.38,-16 684.88,-16 684.88,-16 690.88,-16 696.88,-22 696.88,-28 696.88,-28 696.88,-88.5 696.88,-88.5 696.88,-94.5 690.88,-100.5 684.88,-100.5"/>
<image xlink:href="/Users/tim/CODE_PROJECTS/CHESSCHAT_V2/diagrams/assets/aws/Amazon-VPC_NAT-Gateway_light-bg.png" width="72px" height="54px" preserveAspectRatio="xMinYMin meet" x="607.125" y="-98.5"/>
<text xml:space="preserve" text-anchor="start" x="612.38" y="-31" font-family="Helvetica,sans-Serif" font-size="10.00">NAT Gateway</text>
<text xml:space="preserve" text-anchor="start" x="591.38" y="-19.75" font-family="Helvetica,sans-Serif" font-size="10.00">nat&#45;0dee142da7453a5f9</text>
</g>
<!-- pub_a&#45;&gt;nat -->
<g id="edge16" class="edge">
<title>pub_a&#45;&gt;nat</title>
<path fill="none" stroke="#6b7280" stroke-width="1.1" d="M389.5,-265C410.16,-265 432.19,-265 432.19,-265 432.19,-265 432.19,-50 432.19,-50 432.19,-50 580.96,-50 580.96,-50"/>
<polygon fill="#6b7280" stroke="#6b7280" stroke-width="1.1" points="580.96,-52.45 587.96,-50 580.96,-47.55 580.96,-52.45"/>
</g>
<!-- rt_public -->
<g id="node14" class="node">
<title>rt_public</title>
<path fill="#f3f4f6" stroke="#6b7280" d="M210.88,-202C210.88,-202 115.38,-202 115.38,-202 109.38,-202 103.38,-196 103.38,-190 103.38,-190 103.38,-172.25 103.38,-172.25 103.38,-166.25 109.38,-160.25 115.38,-160.25 115.38,-160.25 210.88,-160.25 210.88,-160.25 216.88,-160.25 222.88,-166.25 222.88,-172.25 222.88,-172.25 222.88,-190 222.88,-190 222.88,-196 216.88,-202 210.88,-202"/>
<text xml:space="preserve" text-anchor="middle" x="163.12" y="-188.5" font-family="Helvetica,sans-Serif" font-size="10.00">Route Table</text>
<text xml:space="preserve" text-anchor="middle" x="163.12" y="-177.25" font-family="Helvetica,sans-Serif" font-size="10.00">public</text>
<text xml:space="preserve" text-anchor="middle" x="163.12" y="-166" font-family="Helvetica,sans-Serif" font-size="10.00">rtb&#45;0769e0346dce66198</text>
</g>
<!-- pub_a&#45;&gt;rt_public -->
<g id="edge12" class="edge">
<title>pub_a&#45;&gt;rt_public</title>
<path fill="none" stroke="#6b7280" stroke-width="1.1" d="M318.72,-277C306.89,-277 296.67,-277 296.67,-277 296.67,-277 296.67,-181 296.67,-181 296.67,-181 231.92,-181 231.92,-181"/>
<polygon fill="#6b7280" stroke="#6b7280" stroke-width="1.1" points="231.92,-178.55 224.92,-181 231.92,-183.45 231.92,-178.55"/>
</g>
<!-- pub_b&#45;&gt;rt_public -->
<g id="edge13" class="edge">
<title>pub_b&#45;&gt;rt_public</title>
<path fill="none" stroke="#6b7280" stroke-width="1.1" d="M156.12,-252.81C156.12,-252.81 156.12,-211.11 156.12,-211.11"/>
<polygon fill="#6b7280" stroke="#6b7280" stroke-width="1.1" points="158.58,-211.11 156.13,-204.11 153.68,-211.11 158.58,-211.11"/>
</g>
<!-- pub_c&#45;&gt;rt_public -->
<g id="edge14" class="edge">
<title>pub_c&#45;&gt;rt_public</title>
<path fill="none" stroke="#6b7280" stroke-width="1.1" d="M218.23,-271C211.26,-271 206.12,-271 206.12,-271 206.12,-271 206.12,-211.09 206.12,-211.09"/>
<polygon fill="#6b7280" stroke="#6b7280" stroke-width="1.1" points="208.58,-211.09 206.13,-204.09 203.68,-211.09 208.58,-211.09"/>
</g>
<!-- rt_app_a -->
<g id="node15" class="node">
<title>rt_app_a</title>
<path fill="#f3f4f6" stroke="#6b7280" d="M547.62,-199.12C547.62,-199.12 456.62,-199.12 456.62,-199.12 450.62,-199.12 444.62,-193.12 444.62,-187.12 444.62,-187.12 444.62,-175.12 444.62,-175.12 444.62,-169.12 450.62,-163.12 456.62,-163.12 456.62,-163.12 547.62,-163.12 547.62,-163.12 553.62,-163.12 559.62,-169.12 559.62,-175.12 559.62,-175.12 559.62,-187.12 559.62,-187.12 559.62,-193.12 553.62,-199.12 547.62,-199.12"/>
<text xml:space="preserve" text-anchor="middle" x="502.12" y="-182.88" font-family="Helvetica,sans-Serif" font-size="10.00">RT app&#45;1a</text>
<text xml:space="preserve" text-anchor="middle" x="502.12" y="-171.62" font-family="Helvetica,sans-Serif" font-size="10.00">rtb&#45;05c2a8d8ef55f8e44</text>
</g>
<!-- app_a&#45;&gt;rt_app_a -->
<g id="edge17" class="edge">
<title>app_a&#45;&gt;rt_app_a</title>
<path fill="none" stroke="#6b7280" stroke-width="1.1" d="M588.06,-271C580.13,-271 574.12,-271 574.12,-271 574.12,-271 574.12,-181 574.12,-181 574.12,-181 568.57,-181 568.57,-181"/>
<polygon fill="#6b7280" stroke="#6b7280" stroke-width="1.1" points="568.57,-178.55 561.57,-181 568.56,-183.45 568.57,-178.55"/>
</g>
<!-- endpoints -->
<g id="node21" class="node">
<title>endpoints</title>
<path fill="#f8fafc" stroke="#475569" d="M1099.25,-202C1099.25,-202 739,-202 739,-202 733,-202 727,-196 727,-190 727,-190 727,-172.25 727,-172.25 727,-166.25 733,-160.25 739,-160.25 739,-160.25 1099.25,-160.25 1099.25,-160.25 1105.25,-160.25 1111.25,-166.25 1111.25,-172.25 1111.25,-172.25 1111.25,-190 1111.25,-190 1111.25,-196 1105.25,-202 1099.25,-202"/>
<text xml:space="preserve" text-anchor="middle" x="919.12" y="-188.5" font-family="Helvetica,sans-Serif" font-size="10.00">VPC Endpoints</text>
<text xml:space="preserve" text-anchor="middle" x="919.12" y="-177.25" font-family="Helvetica,sans-Serif" font-size="10.00">S3/DynamoDB + ECR API/DKR + Logs + Secrets</text>
<text xml:space="preserve" text-anchor="middle" x="919.12" y="-166" font-family="Helvetica,sans-Serif" font-size="10.00">(vpce&#45;083e6..., vpce&#45;02779..., vpce&#45;0f33..., vpce&#45;000b..., vpce&#45;0c03..., vpce&#45;0541...)</text>
</g>
<!-- app_a&#45;&gt;endpoints -->
<g id="edge29" class="edge">
<title>app_a&#45;&gt;endpoints</title>
<path fill="none" stroke="#6b7280" stroke-width="1.1" d="M626.12,-252.52C626.12,-237.57 626.12,-219 626.12,-219 626.12,-219 745.38,-219 745.38,-219 745.38,-219 745.38,-210.94 745.38,-210.94"/>
<polygon fill="#6b7280" stroke="#6b7280" stroke-width="1.1" points="747.83,-210.94 745.38,-203.94 742.93,-210.94 747.83,-210.94"/>
</g>
<!-- rt_app_b -->
<g id="node16" class="node">
<title>rt_app_b</title>
<path fill="#f3f4f6" stroke="#6b7280" d="M407.75,-199.12C407.75,-199.12 314.5,-199.12 314.5,-199.12 308.5,-199.12 302.5,-193.12 302.5,-187.12 302.5,-187.12 302.5,-175.12 302.5,-175.12 302.5,-169.12 308.5,-163.12 314.5,-163.12 314.5,-163.12 407.75,-163.12 407.75,-163.12 413.75,-163.12 419.75,-169.12 419.75,-175.12 419.75,-175.12 419.75,-187.12 419.75,-187.12 419.75,-193.12 413.75,-199.12 407.75,-199.12"/>
<text xml:space="preserve" text-anchor="middle" x="361.12" y="-182.88" font-family="Helvetica,sans-Serif" font-size="10.00">RT app&#45;1b</text>
<text xml:space="preserve" text-anchor="middle" x="361.12" y="-171.62" font-family="Helvetica,sans-Serif" font-size="10.00">rtb&#45;0344e2f09e6880252</text>
</g>
<!-- app_b&#45;&gt;rt_app_b -->
<g id="edge18" class="edge">
<title>app_b&#45;&gt;rt_app_b</title>
<path fill="none" stroke="#6b7280" stroke-width="1.1" d="M488.29,-277C452.57,-277 404.44,-277 404.44,-277 404.44,-277 404.44,-208.28 404.44,-208.28"/>
<polygon fill="#6b7280" stroke="#6b7280" stroke-width="1.1" points="406.89,-208.28 404.44,-201.28 401.99,-208.28 406.89,-208.28"/>
</g>
<!-- app_b&#45;&gt;endpoints -->
<g id="edge30" class="edge">
<title>app_b&#45;&gt;endpoints</title>
<path fill="none" stroke="#6b7280" stroke-width="1.1" d="M524.06,-252.67C524.06,-235.03 524.06,-211 524.06,-211 524.06,-211 736.19,-211 736.19,-211 736.19,-211 736.19,-210.12 736.19,-210.12"/>
<polygon fill="#6b7280" stroke="#6b7280" stroke-width="1.1" points="738.64,-210.86 736.19,-203.86 733.74,-210.86 738.64,-210.86"/>
</g>
<!-- rt_app_c -->
<g id="node17" class="node">
<title>rt_app_c</title>
<path fill="#f3f4f6" stroke="#6b7280" d="M689.75,-199.12C689.75,-199.12 596.5,-199.12 596.5,-199.12 590.5,-199.12 584.5,-193.12 584.5,-187.12 584.5,-187.12 584.5,-175.12 584.5,-175.12 584.5,-169.12 590.5,-163.12 596.5,-163.12 596.5,-163.12 689.75,-163.12 689.75,-163.12 695.75,-163.12 701.75,-169.12 701.75,-175.12 701.75,-175.12 701.75,-187.12 701.75,-187.12 701.75,-193.12 695.75,-199.12 689.75,-199.12"/>
<text xml:space="preserve" text-anchor="middle" x="643.12" y="-182.88" font-family="Helvetica,sans-Serif" font-size="10.00">RT app&#45;1c</text>
<text xml:space="preserve" text-anchor="middle" x="643.12" y="-171.62" font-family="Helvetica,sans-Serif" font-size="10.00">rtb&#45;0ee6b3f73ec07e73d</text>
</g>
<!-- app_c&#45;&gt;rt_app_c -->
<g id="edge19" class="edge">
<title>app_c&#45;&gt;rt_app_c</title>
<path fill="none" stroke="#6b7280" stroke-width="1.1" d="M695.12,-252.81C695.12,-252.81 695.12,-208.26 695.12,-208.26"/>
<polygon fill="#6b7280" stroke="#6b7280" stroke-width="1.1" points="697.58,-208.26 695.13,-201.26 692.68,-208.26 697.58,-208.26"/>
</g>
<!-- app_c&#45;&gt;endpoints -->
<g id="edge31" class="edge">
<title>app_c&#45;&gt;endpoints</title>
<path fill="none" stroke="#6b7280" stroke-width="1.1" d="M754.56,-252.81C754.56,-252.81 754.56,-211.11 754.56,-211.11"/>
<polygon fill="#6b7280" stroke="#6b7280" stroke-width="1.1" points="757.01,-211.11 754.56,-204.11 752.11,-211.11 757.01,-211.11"/>
</g>
<!-- rt_data_a -->
<g id="node18" class="node">
<title>rt_data_a</title>
<path fill="#f3f4f6" stroke="#6b7280" d="M1523.88,-199.12C1523.88,-199.12 1428.38,-199.12 1428.38,-199.12 1422.38,-199.12 1416.38,-193.12 1416.38,-187.12 1416.38,-187.12 1416.38,-175.12 1416.38,-175.12 1416.38,-169.12 1422.38,-163.12 1428.38,-163.12 1428.38,-163.12 1523.88,-163.12 1523.88,-163.12 1529.88,-163.12 1535.88,-169.12 1535.88,-175.12 1535.88,-175.12 1535.88,-187.12 1535.88,-187.12 1535.88,-193.12 1529.88,-199.12 1523.88,-199.12"/>
<text xml:space="preserve" text-anchor="middle" x="1476.12" y="-182.88" font-family="Helvetica,sans-Serif" font-size="10.00">RT data&#45;1a</text>
<text xml:space="preserve" text-anchor="middle" x="1476.12" y="-171.62" font-family="Helvetica,sans-Serif" font-size="10.00">rtb&#45;0ca39cb2160302101</text>
</g>
<!-- data_a&#45;&gt;rt_data_a -->
<g id="edge20" class="edge">
<title>data_a&#45;&gt;rt_data_a</title>
<path fill="none" stroke="#6b7280" stroke-width="1.1" d="M1050.67,-252.66C1050.67,-248.36 1050.67,-245 1050.67,-245 1050.67,-245 1441,-245 1441,-245 1441,-245 1441,-208.27 1441,-208.27"/>
<polygon fill="#6b7280" stroke="#6b7280" stroke-width="1.1" points="1443.45,-208.27 1441,-201.27 1438.55,-208.27 1443.45,-208.27"/>
</g>
<!-- data_a&#45;&gt;endpoints -->
<g id="edge32" class="edge">
<title>data_a&#45;&gt;endpoints</title>
<path fill="none" stroke="#6b7280" stroke-width="1.1" d="M1025.58,-252.81C1025.58,-252.81 1025.58,-211.11 1025.58,-211.11"/>
<polygon fill="#6b7280" stroke="#6b7280" stroke-width="1.1" points="1028.03,-211.11 1025.58,-204.11 1023.13,-211.11 1028.03,-211.11"/>
</g>
<!-- rt_data_b -->
<g id="node19" class="node">
<title>rt_data_b</title>
<path fill="#f3f4f6" stroke="#6b7280" d="M1379.5,-199.12C1379.5,-199.12 1290.75,-199.12 1290.75,-199.12 1284.75,-199.12 1278.75,-193.12 1278.75,-187.12 1278.75,-187.12 1278.75,-175.12 1278.75,-175.12 1278.75,-169.12 1284.75,-163.12 1290.75,-163.12 1290.75,-163.12 1379.5,-163.12 1379.5,-163.12 1385.5,-163.12 1391.5,-169.12 1391.5,-175.12 1391.5,-175.12 1391.5,-187.12 1391.5,-187.12 1391.5,-193.12 1385.5,-199.12 1379.5,-199.12"/>
<text xml:space="preserve" text-anchor="middle" x="1335.12" y="-182.88" font-family="Helvetica,sans-Serif" font-size="10.00">RT data&#45;1b</text>
<text xml:space="preserve" text-anchor="middle" x="1335.12" y="-171.62" font-family="Helvetica,sans-Serif" font-size="10.00">rtb&#45;091d2f66825ec5f4f</text>
</g>
<!-- data_b&#45;&gt;rt_data_b -->
<g id="edge21" class="edge">
<title>data_b&#45;&gt;rt_data_b</title>
<path fill="none" stroke="#6b7280" stroke-width="1.1" d="M948.54,-252.68C948.54,-244.21 948.54,-236 948.54,-236 948.54,-236 1317.69,-236 1317.69,-236 1317.69,-236 1317.69,-208.06 1317.69,-208.06"/>
<polygon fill="#6b7280" stroke="#6b7280" stroke-width="1.1" points="1320.14,-208.06 1317.69,-201.06 1315.24,-208.06 1320.14,-208.06"/>
</g>
<!-- data_b&#45;&gt;endpoints -->
<g id="edge33" class="edge">
<title>data_b&#45;&gt;endpoints</title>
<path fill="none" stroke="#6b7280" stroke-width="1.1" d="M921.71,-252.81C921.71,-252.81 921.71,-211.11 921.71,-211.11"/>
<polygon fill="#6b7280" stroke="#6b7280" stroke-width="1.1" points="924.16,-211.11 921.71,-204.11 919.26,-211.11 924.16,-211.11"/>
</g>
<!-- rt_data_c -->
<g id="node20" class="node">
<title>rt_data_c</title>
<path fill="#f3f4f6" stroke="#6b7280" d="M1241.75,-199.12C1241.75,-199.12 1148.5,-199.12 1148.5,-199.12 1142.5,-199.12 1136.5,-193.12 1136.5,-187.12 1136.5,-187.12 1136.5,-175.12 1136.5,-175.12 1136.5,-169.12 1142.5,-163.12 1148.5,-163.12 1148.5,-163.12 1241.75,-163.12 1241.75,-163.12 1247.75,-163.12 1253.75,-169.12 1253.75,-175.12 1253.75,-175.12 1253.75,-187.12 1253.75,-187.12 1253.75,-193.12 1247.75,-199.12 1241.75,-199.12"/>
<text xml:space="preserve" text-anchor="middle" x="1195.12" y="-182.88" font-family="Helvetica,sans-Serif" font-size="10.00">RT data&#45;1c</text>
<text xml:space="preserve" text-anchor="middle" x="1195.12" y="-171.62" font-family="Helvetica,sans-Serif" font-size="10.00">rtb&#45;01ba84fa231b06cc2</text>
</g>
<!-- data_c&#45;&gt;rt_data_c -->
<g id="edge22" class="edge">
<title>data_c&#45;&gt;rt_data_c</title>
<path fill="none" stroke="#6b7280" stroke-width="1.1" d="M842.54,-252.51C842.54,-240.86 842.54,-228 842.54,-228 842.54,-228 1195.12,-228 1195.12,-228 1195.12,-228 1195.12,-208.05 1195.12,-208.05"/>
<polygon fill="#6b7280" stroke="#6b7280" stroke-width="1.1" points="1197.58,-208.05 1195.13,-201.05 1192.68,-208.05 1197.58,-208.05"/>
</g>
<!-- data_c&#45;&gt;endpoints -->
<g id="edge34" class="edge">
<title>data_c&#45;&gt;endpoints</title>
<path fill="none" stroke="#6b7280" stroke-width="1.1" d="M815.71,-252.81C815.71,-252.81 815.71,-211.11 815.71,-211.11"/>
<polygon fill="#6b7280" stroke="#6b7280" stroke-width="1.1" points="818.16,-211.11 815.71,-204.11 813.26,-211.11 818.16,-211.11"/>
</g>
<!-- rt_public&#45;&gt;igw -->
<g id="edge15" class="edge">
<title>rt_public&#45;&gt;igw</title>
<path fill="none" stroke="#6b7280" stroke-width="1.1" d="M163.12,-160C163.12,-160 163.12,-109.12 163.12,-109.12"/>
<polygon fill="#6b7280" stroke="#6b7280" stroke-width="1.1" points="165.58,-109.12 163.13,-102.12 160.68,-109.12 165.58,-109.12"/>
<text xml:space="preserve" text-anchor="middle" x="180.75" y="-126.7" font-family="Helvetica,sans-Serif" font-size="9.00">0.0.0.0/0</text>
</g>
<!-- rt_app_a&#45;&gt;nat -->
<g id="edge23" class="edge">
<title>rt_app_a&#45;&gt;nat</title>
<path fill="none" stroke="#6b7280" stroke-width="1.1" d="M502.12,-162.79C502.12,-130.53 502.12,-67 502.12,-67 502.12,-67 580.75,-67 580.75,-67"/>
<polygon fill="#6b7280" stroke="#6b7280" stroke-width="1.1" points="580.75,-69.45 587.75,-67 580.75,-64.55 580.75,-69.45"/>
<text xml:space="preserve" text-anchor="middle" x="557.75" y="-126.7" font-family="Helvetica,sans-Serif" font-size="9.00">0.0.0.0/0</text>
</g>
<!-- rt_app_b&#45;&gt;nat -->
<g id="edge24" class="edge">
<title>rt_app_b&#45;&gt;nat</title>
<path fill="none" stroke="#6b7280" stroke-width="1.1" d="M361.12,-162.66C361.12,-122.96 361.12,-33 361.12,-33 361.12,-33 580.75,-33 580.75,-33"/>
<polygon fill="#6b7280" stroke="#6b7280" stroke-width="1.1" points="580.75,-35.45 587.75,-33 580.75,-30.55 580.75,-35.45"/>
<text xml:space="preserve" text-anchor="middle" x="416.75" y="-126.7" font-family="Helvetica,sans-Serif" font-size="9.00">0.0.0.0/0</text>
</g>
<!-- rt_app_c&#45;&gt;nat -->
<g id="edge25" class="edge">
<title>rt_app_c&#45;&gt;nat</title>
<path fill="none" stroke="#6b7280" stroke-width="1.1" d="M643.12,-162.73C643.12,-162.73 643.12,-109.14 643.12,-109.14"/>
<polygon fill="#6b7280" stroke="#6b7280" stroke-width="1.1" points="645.58,-109.14 643.13,-102.14 640.68,-109.14 645.58,-109.14"/>
<text xml:space="preserve" text-anchor="middle" x="660.75" y="-126.7" font-family="Helvetica,sans-Serif" font-size="9.00">0.0.0.0/0</text>
</g>
<!-- rt_data_a&#45;&gt;nat -->
<g id="edge26" class="edge">
<title>rt_data_a&#45;&gt;nat</title>
<path fill="none" stroke="#6b7280" stroke-width="1.1" d="M1476.12,-162.87C1476.12,-124.09 1476.12,-37 1476.12,-37 1476.12,-37 705.48,-37 705.48,-37"/>
<polygon fill="#6b7280" stroke="#6b7280" stroke-width="1.1" points="705.48,-34.55 698.48,-37 705.48,-39.45 705.48,-34.55"/>
<text xml:space="preserve" text-anchor="middle" x="1375.75" y="-126.7" font-family="Helvetica,sans-Serif" font-size="9.00">0.0.0.0/0</text>
</g>
<!-- rt_data_b&#45;&gt;nat -->
<g id="edge27" class="edge">
<title>rt_data_b&#45;&gt;nat</title>
<path fill="none" stroke="#6b7280" stroke-width="1.1" d="M1335.12,-162.69C1335.12,-128.34 1335.12,-58 1335.12,-58 1335.12,-58 705.51,-58 705.51,-58"/>
<polygon fill="#6b7280" stroke="#6b7280" stroke-width="1.1" points="705.51,-55.55 698.51,-58 705.51,-60.45 705.51,-55.55"/>
<text xml:space="preserve" text-anchor="middle" x="1192.75" y="-126.7" font-family="Helvetica,sans-Serif" font-size="9.00">0.0.0.0/0</text>
</g>
<!-- rt_data_c&#45;&gt;nat -->
<g id="edge28" class="edge">
<title>rt_data_c&#45;&gt;nat</title>
<path fill="none" stroke="#6b7280" stroke-width="1.1" d="M1195.12,-162.87C1195.12,-133.49 1195.12,-79 1195.12,-79 1195.12,-79 705.47,-79 705.47,-79"/>
<polygon fill="#6b7280" stroke="#6b7280" stroke-width="1.1" points="705.47,-76.55 698.47,-79 705.47,-81.45 705.47,-76.55"/>
<text xml:space="preserve" text-anchor="middle" x="968.75" y="-126.7" font-family="Helvetica,sans-Serif" font-size="9.00">0.0.0.0/0</text>
</g>
<!-- cwlogs -->
<g id="node23" class="node">
<title>cwlogs</title>
<path fill="#f8fafc" stroke="#475569" d="M1731.75,-199.12C1731.75,-199.12 1572.5,-199.12 1572.5,-199.12 1566.5,-199.12 1560.5,-193.12 1560.5,-187.12 1560.5,-187.12 1560.5,-175.12 1560.5,-175.12 1560.5,-169.12 1566.5,-163.12 1572.5,-163.12 1572.5,-163.12 1731.75,-163.12 1731.75,-163.12 1737.75,-163.12 1743.75,-169.12 1743.75,-175.12 1743.75,-175.12 1743.75,-187.12 1743.75,-187.12 1743.75,-193.12 1737.75,-199.12 1731.75,-199.12"/>
<text xml:space="preserve" text-anchor="middle" x="1652.12" y="-182.88" font-family="Helvetica,sans-Serif" font-size="10.00">CloudWatch Log Group</text>
<text xml:space="preserve" text-anchor="middle" x="1652.12" y="-171.62" font-family="Helvetica,sans-Serif" font-size="10.00">/aws/vpc/chesschat&#45;dev&#45;vpc/flow&#45;logs</text>
</g>
<!-- flowlogs&#45;&gt;cwlogs -->
<g id="edge36" class="edge">
<title>flowlogs&#45;&gt;cwlogs</title>
<path fill="none" stroke="#6b7280" stroke-width="1.1" d="M1466.11,-271C1537.24,-271 1652.12,-271 1652.12,-271 1652.12,-271 1652.12,-207.98 1652.12,-207.98"/>
<polygon fill="#6b7280" stroke="#6b7280" stroke-width="1.1" points="1654.58,-207.98 1652.13,-200.98 1649.68,-207.98 1654.58,-207.98"/>
</g>
</g>
</svg>
