<?plantuml 1.2026.1?><svg xmlns="http://www.w3.org/2000/svg" xmlns:xlink="http://www.w3.org/1999/xlink" contentStyleType="text/css" data-diagram-type="DESCRIPTION" height="1375px" preserveAspectRatio="none" style="width:1316px;height:1375px;background:#FFFFFF;" version="1.1" viewBox="0 0 1316 1375" width="1316px" zoomAndPan="magnify"><defs/><g><!--cluster AWS us-east-1--><g class="cluster" data-qualified-name="AWS us-east-1" data-source-line="7" id="ent0003"><rect fill="none" height="1362" rx="2.5" ry="2.5" style="stroke:#181818;stroke-width:1;" width="1165.03" x="145.14" y="7"/><text fill="#000000" font-family="sans-serif" font-size="14" font-weight="bold" lengthAdjust="spacing" textLength="109.8262" x="672.7419" y="22.5352">AWS us-east-1</text></g><!--cluster Public Subnets--><g class="cluster" data-qualified-name="AWS us-east-1.Public Subnets" data-source-line="12" id="ent0007"><rect fill="none" height="279" rx="2.5" ry="2.5" style="stroke:#181818;stroke-width:1;" width="152.3" x="474.63" y="216"/><path d="M590.3136,216 L590.3136,225.4883 L580.3136,235.4883 L474.63,235.4883" fill="none" style="stroke:#181818;stroke-width:1;"/><text fill="#000000" font-family="sans-serif" font-size="14" font-weight="bold" lengthAdjust="spacing" textLength="105.6836" x="477.63" y="230.5352">Public Subnets</text></g><!--cluster Private App Subnets--><g class="cluster" data-qualified-name="AWS us-east-1.Private App Subnets" data-source-line="18" id="ent0011"><rect fill="none" height="279" rx="2.5" ry="2.5" style="stroke:#181818;stroke-width:1;" width="161" x="470.78" y="890"/><path d="M626.2419,890 L626.2419,899.4883 L616.2419,909.4883 L470.78,909.4883" fill="none" style="stroke:#181818;stroke-width:1;"/><text fill="#000000" font-family="sans-serif" font-size="14" font-weight="bold" lengthAdjust="spacing" textLength="145.4619" x="473.78" y="904.5352">Private App Subnets</text></g><!--cluster Private Data Subnets--><g class="cluster" data-qualified-name="AWS us-east-1.Private Data Subnets" data-source-line="24" id="ent0015"><rect fill="none" height="279" rx="2.5" ry="2.5" style="stroke:#181818;stroke-width:1;" width="165" x="468.78" y="587"/><path d="M628.6169,587 L628.6169,596.4883 L618.6169,606.4883 L468.78,606.4883" fill="none" style="stroke:#181818;stroke-width:1;"/><text fill="#000000" font-family="sans-serif" font-size="14" font-weight="bold" lengthAdjust="spacing" textLength="149.8369" x="471.78" y="601.5352">Private Data Subnets</text></g><!--cluster Route Tables--><g class="cluster" data-qualified-name="AWS us-east-1.Route Tables" data-source-line="30" id="ent0019"><rect fill="none" height="631" rx="2.5" ry="2.5" style="stroke:#181818;stroke-width:1;" width="226.54" x="782.04" y="147"/><path d="M886.164,147 L886.164,156.4883 L876.164,166.4883 L782.04,166.4883" fill="none" style="stroke:#181818;stroke-width:1;"/><text fill="#000000" font-family="sans-serif" font-size="14" font-weight="bold" lengthAdjust="spacing" textLength="94.124" x="785.04" y="161.5352">Route Tables</text></g><!--cluster VPC Endpoints--><g class="cluster" data-qualified-name="AWS us-east-1.VPC Endpoints" data-source-line="40" id="ent0027"><rect fill="none" height="543" rx="2.5" ry="2.5" style="stroke:#181818;stroke-width:1;" width="238.82" x="775.9" y="802"/><path d="M891.2896,802 L891.2896,811.4883 L881.2896,821.4883 L775.9,821.4883" fill="none" style="stroke:#181818;stroke-width:1;"/><text fill="#000000" font-family="sans-serif" font-size="14" font-weight="bold" lengthAdjust="spacing" textLength="105.3896" x="778.9" y="816.5352">VPC Endpoints</text></g><!--entity vpc--><g class="entity" data-qualified-name="AWS us-east-1.vpc" data-source-line="8" id="ent0004"><rect fill="#F1F1F1" height="69.4648" rx="2.5" ry="2.5" style="stroke:#181818;stroke-width:0.5;" width="191.6846" x="162.02" y="657.27"/><text fill="#000000" font-family="sans-serif" font-size="14" lengthAdjust="spacing" textLength="26.5781" x="244.5732" y="680.8052">VPC</text><text fill="#000000" font-family="sans-serif" font-size="14" lengthAdjust="spacing" textLength="171.6846" x="172.02" y="697.2934">chesschat-dev-vpc-main</text><text fill="#000000" font-family="sans-serif" font-size="14" lengthAdjust="spacing" textLength="91.4512" x="212.1367" y="713.7817">10.20.0.0/16</text></g><!--entity igw--><g class="entity" data-qualified-name="AWS us-east-1.igw" data-source-line="9" id="ent0005"><rect fill="#F1F1F1" height="52.9766" rx="2.5" ry="2.5" style="stroke:#181818;stroke-width:0.5;" width="193.4346" x="161.14" y="168.51"/><text fill="#000000" font-family="sans-serif" font-size="14" lengthAdjust="spacing" textLength="114.3584" x="200.6781" y="192.0452">Internet Gateway</text><text fill="#000000" font-family="sans-serif" font-size="14" lengthAdjust="spacing" textLength="173.4346" x="171.14" y="208.5334">igw-08c762aa9e0f534b1</text></g><!--entity nat--><g class="entity" data-qualified-name="AWS us-east-1.nat" data-source-line="10" id="ent0006"><rect fill="#F1F1F1" height="52.9766" rx="2.5" ry="2.5" style="stroke:#181818;stroke-width:0.5;" width="192.1152" x="1102.05" y="445.51"/><text fill="#000000" font-family="sans-serif" font-size="14" lengthAdjust="spacing" textLength="90.002" x="1153.1066" y="469.0452">NAT Gateway</text><text fill="#000000" font-family="sans-serif" font-size="14" lengthAdjust="spacing" textLength="172.1152" x="1112.05" y="485.5334">nat-0dee142da7453a5f9</text></g><!--entity flow_logs--><g class="entity" data-qualified-name="AWS us-east-1.flow_logs" data-source-line="49" id="ent0034"><rect fill="#F1F1F1" height="52.9766" rx="2.5" ry="2.5" style="stroke:#181818;stroke-width:0.5;" width="174.7178" x="463.42" y="147.51"/><text fill="#000000" font-family="sans-serif" font-size="14" lengthAdjust="spacing" textLength="98.3076" x="501.6251" y="171.0452">VPC Flow Logs</text><text fill="#000000" font-family="sans-serif" font-size="14" lengthAdjust="spacing" textLength="154.7178" x="473.42" y="187.5334">fl-05f30eba368dcc3fd</text></g><!--entity cw_logs--><g class="entity" data-qualified-name="AWS us-east-1.cw_logs" data-source-line="50" id="ent0035"><rect fill="#F1F1F1" height="52.9766" rx="2.5" ry="2.5" style="stroke:#181818;stroke-width:0.5;" width="293.4922" x="748.56" y="41.51"/><text fill="#000000" font-family="sans-serif" font-size="14" lengthAdjust="spacing" textLength="156.2354" x="817.1884" y="65.0452">CloudWatch Log Group</text><text fill="#000000" font-family="sans-serif" font-size="14" lengthAdjust="spacing" textLength="273.4922" x="758.56" y="81.5334">/aws/vpc/chesschat-dev-vpc/flow-logs</text></g><!--entity pub_a--><g class="entity" data-qualified-name="AWS us-east-1.Public Subnets.pub_a" data-source-line="13" id="ent0008"><rect fill="#F1F1F1" height="52.9766" rx="2.5" ry="2.5" style="stroke:#181818;stroke-width:0.5;" width="111.4512" x="495.05" y="250.51"/><text fill="#000000" font-family="sans-serif" font-size="14" lengthAdjust="spacing" textLength="76.5146" x="512.5183" y="274.0452">us-east-1a</text><text fill="#000000" font-family="sans-serif" font-size="14" lengthAdjust="spacing" textLength="91.4512" x="505.05" y="290.5334">10.20.0.0/20</text></g><!--entity pub_b--><g class="entity" data-qualified-name="AWS us-east-1.Public Subnets.pub_b" data-source-line="14" id="ent0009"><rect fill="#F1F1F1" height="52.9766" rx="2.5" ry="2.5" style="stroke:#181818;stroke-width:0.5;" width="120.3037" x="490.63" y="426.51"/><text fill="#000000" font-family="sans-serif" font-size="14" lengthAdjust="spacing" textLength="77.5947" x="511.9845" y="450.0452">us-east-1b</text><text fill="#000000" font-family="sans-serif" font-size="14" lengthAdjust="spacing" textLength="100.3037" x="500.63" y="466.5334">10.20.16.0/20</text></g><!--entity pub_c--><g class="entity" data-qualified-name="AWS us-east-1.Public Subnets.pub_c" data-source-line="15" id="ent0010"><rect fill="#F1F1F1" height="52.9766" rx="2.5" ry="2.5" style="stroke:#181818;stroke-width:0.5;" width="120.3037" x="490.63" y="338.51"/><text fill="#000000" font-family="sans-serif" font-size="14" lengthAdjust="spacing" textLength="75.9541" x="512.8048" y="362.0452">us-east-1c</text><text fill="#000000" font-family="sans-serif" font-size="14" lengthAdjust="spacing" textLength="100.3037" x="500.63" y="378.5334">10.20.32.0/20</text></g><!--entity app_a--><g class="entity" data-qualified-name="AWS us-east-1.Private App Subnets.app_a" data-source-line="19" id="ent0012"><rect fill="#F1F1F1" height="52.9766" rx="2.5" ry="2.5" style="stroke:#181818;stroke-width:0.5;" width="120.3037" x="490.63" y="924.51"/><text fill="#000000" font-family="sans-serif" font-size="14" lengthAdjust="spacing" textLength="76.5146" x="512.5245" y="948.0452">us-east-1a</text><text fill="#000000" font-family="sans-serif" font-size="14" lengthAdjust="spacing" textLength="100.3037" x="500.63" y="964.5334">10.20.48.0/20</text></g><!--entity app_b--><g class="entity" data-qualified-name="AWS us-east-1.Private App Subnets.app_b" data-source-line="20" id="ent0013"><rect fill="#F1F1F1" height="52.9766" rx="2.5" ry="2.5" style="stroke:#181818;stroke-width:0.5;" width="120.3037" x="490.63" y="1100.51"/><text fill="#000000" font-family="sans-serif" font-size="14" lengthAdjust="spacing" textLength="77.5947" x="511.9845" y="1124.0452">us-east-1b</text><text fill="#000000" font-family="sans-serif" font-size="14" lengthAdjust="spacing" textLength="100.3037" x="500.63" y="1140.5334">10.20.64.0/20</text></g><!--entity app_c--><g class="entity" data-qualified-name="AWS us-east-1.Private App Subnets.app_c" data-source-line="21" id="ent0014"><rect fill="#F1F1F1" height="52.9766" rx="2.5" ry="2.5" style="stroke:#181818;stroke-width:0.5;" width="120.3037" x="490.63" y="1012.51"/><text fill="#000000" font-family="sans-serif" font-size="14" lengthAdjust="spacing" textLength="75.9541" x="512.8048" y="1036.0452">us-east-1c</text><text fill="#000000" font-family="sans-serif" font-size="14" lengthAdjust="spacing" textLength="100.3037" x="500.63" y="1052.5334">10.20.80.0/20</text></g><!--entity data_a--><g class="entity" data-qualified-name="AWS us-east-1.Private Data Subnets.data_a" data-source-line="25" id="ent0016"><rect fill="#F1F1F1" height="52.9766" rx="2.5" ry="2.5" style="stroke:#181818;stroke-width:0.5;" width="120.3037" x="490.63" y="621.51"/><text fill="#000000" font-family="sans-serif" font-size="14" lengthAdjust="spacing" textLength="76.5146" x="512.5245" y="645.0452">us-east-1a</text><text fill="#000000" font-family="sans-serif" font-size="14" lengthAdjust="spacing" textLength="100.3037" x="500.63" y="661.5334">10.20.96.0/20</text></g><!--entity data_b--><g class="entity" data-qualified-name="AWS us-east-1.Private Data Subnets.data_b" data-source-line="26" id="ent0017"><rect fill="#F1F1F1" height="52.9766" rx="2.5" ry="2.5" style="stroke:#181818;stroke-width:0.5;" width="129.1563" x="486.2" y="797.51"/><text fill="#000000" font-family="sans-serif" font-size="14" lengthAdjust="spacing" textLength="77.5947" x="511.9808" y="821.0452">us-east-1b</text><text fill="#000000" font-family="sans-serif" font-size="14" lengthAdjust="spacing" textLength="109.1563" x="496.2" y="837.5334">10.20.112.0/20</text></g><!--entity data_c--><g class="entity" data-qualified-name="AWS us-east-1.Private Data Subnets.data_c" data-source-line="27" id="ent0018"><rect fill="#F1F1F1" height="52.9766" rx="2.5" ry="2.5" style="stroke:#181818;stroke-width:0.5;" width="129.1563" x="486.2" y="709.51"/><text fill="#000000" font-family="sans-serif" font-size="14" lengthAdjust="spacing" textLength="75.9541" x="512.8011" y="733.0452">us-east-1c</text><text fill="#000000" font-family="sans-serif" font-size="14" lengthAdjust="spacing" textLength="109.1563" x="496.2" y="749.5334">10.20.128.0/20</text></g><!--entity rt_public--><g class="entity" data-qualified-name="AWS us-east-1.Route Tables.rt_public" data-source-line="31" id="ent0020"><rect fill="#F1F1F1" height="52.9766" rx="2.5" ry="2.5" style="stroke:#181818;stroke-width:0.5;" width="194.542" x="798.04" y="181.51"/><text fill="#000000" font-family="sans-serif" font-size="14" lengthAdjust="spacing" textLength="41.5762" x="874.5229" y="205.0452">public</text><text fill="#000000" font-family="sans-serif" font-size="14" lengthAdjust="spacing" textLength="174.542" x="808.04" y="221.5334">rtb-0769e0346dce66198</text></g><!--entity rt_app_a--><g class="entity" data-qualified-name="AWS us-east-1.Route Tables.rt_app_a" data-source-line="32" id="ent0021"><rect fill="#F1F1F1" height="52.9766" rx="2.5" ry="2.5" style="stroke:#181818;stroke-width:0.5;" width="186.0107" x="802.3" y="533.51"/><text fill="#000000" font-family="sans-serif" font-size="14" lengthAdjust="spacing" textLength="50.0391" x="870.2858" y="557.0452">app-1a</text><text fill="#000000" font-family="sans-serif" font-size="14" lengthAdjust="spacing" textLength="166.0107" x="812.3" y="573.5334">rtb-05c2a8d8ef55f8e44</text></g><!--entity rt_app_b--><g class="entity" data-qualified-name="AWS us-east-1.Route Tables.rt_app_b" data-source-line="33" id="ent0022"><rect fill="#F1F1F1" height="52.9766" rx="2.5" ry="2.5" style="stroke:#181818;stroke-width:0.5;" width="192.5596" x="799.03" y="709.51"/><text fill="#000000" font-family="sans-serif" font-size="14" lengthAdjust="spacing" textLength="51.1191" x="869.7502" y="733.0452">app-1b</text><text fill="#000000" font-family="sans-serif" font-size="14" lengthAdjust="spacing" textLength="172.5596" x="809.03" y="749.5334">rtb-0344e2f09e6880252</text></g><!--entity rt_app_c--><g class="entity" data-qualified-name="AWS us-east-1.Route Tables.rt_app_c" data-source-line="34" id="ent0023"><rect fill="#F1F1F1" height="52.9766" rx="2.5" ry="2.5" style="stroke:#181818;stroke-width:0.5;" width="188.6904" x="800.96" y="621.51"/><text fill="#000000" font-family="sans-serif" font-size="14" lengthAdjust="spacing" textLength="49.4785" x="870.566" y="645.0452">app-1c</text><text fill="#000000" font-family="sans-serif" font-size="14" lengthAdjust="spacing" textLength="168.6904" x="810.96" y="661.5334">rtb-0ee6b3f73ec07e73d</text></g><!--entity rt_data_a--><g class="entity" data-qualified-name="AWS us-east-1.Route Tables.rt_data_a" data-source-line="35" id="ent0024"><rect fill="#F1F1F1" height="52.9766" rx="2.5" ry="2.5" style="stroke:#181818;stroke-width:0.5;" width="193.8447" x="798.38" y="269.51"/><text fill="#000000" font-family="sans-serif" font-size="14" lengthAdjust="spacing" textLength="54.1953" x="868.2047" y="293.0452">data-1a</text><text fill="#000000" font-family="sans-serif" font-size="14" lengthAdjust="spacing" textLength="173.8447" x="808.38" y="309.5334">rtb-0ca39cb2160302101</text></g><!--entity rt_data_b--><g class="entity" data-qualified-name="AWS us-east-1.Route Tables.rt_data_b" data-source-line="36" id="ent0025"><rect fill="#F1F1F1" height="52.9766" rx="2.5" ry="2.5" style="stroke:#181818;stroke-width:0.5;" width="184.4795" x="803.07" y="445.51"/><text fill="#000000" font-family="sans-serif" font-size="14" lengthAdjust="spacing" textLength="55.2754" x="867.6721" y="469.0452">data-1b</text><text fill="#000000" font-family="sans-serif" font-size="14" lengthAdjust="spacing" textLength="164.4795" x="813.07" y="485.5334">rtb-091d2f66825ec5f4f</text></g><!--entity rt_data_c--><g class="entity" data-qualified-name="AWS us-east-1.Route Tables.rt_data_c" data-source-line="37" id="ent0026"><rect fill="#F1F1F1" height="52.9766" rx="2.5" ry="2.5" style="stroke:#181818;stroke-width:0.5;" width="188.9775" x="800.82" y="357.51"/><text fill="#000000" font-family="sans-serif" font-size="14" lengthAdjust="spacing" textLength="53.6348" x="868.4914" y="381.0452">data-1c</text><text fill="#000000" font-family="sans-serif" font-size="14" lengthAdjust="spacing" textLength="168.9775" x="810.82" y="397.5334">rtb-01ba84fa231b06cc2</text></g><!--entity ep_s3--><g class="entity" data-qualified-name="AWS us-east-1.VPC Endpoints.ep_s3" data-source-line="41" id="ent0028"><rect fill="#F1F1F1" height="52.9766" rx="2.5" ry="2.5" style="stroke:#181818;stroke-width:0.5;" width="196.3193" x="797.15" y="924.51"/><text fill="#000000" font-family="sans-serif" font-size="14" lengthAdjust="spacing" textLength="16.3926" x="887.1134" y="948.0452">S3</text><text fill="#000000" font-family="sans-serif" font-size="14" lengthAdjust="spacing" textLength="176.3193" x="807.15" y="964.5334">vpce-083e6eb89fff2117b</text></g><!--entity ep_ddb--><g class="entity" data-qualified-name="AWS us-east-1.VPC Endpoints.ep_ddb" data-source-line="42" id="ent0029"><rect fill="#F1F1F1" height="52.9766" rx="2.5" ry="2.5" style="stroke:#181818;stroke-width:0.5;" width="205.2197" x="792.7" y="836.51"/><text fill="#000000" font-family="sans-serif" font-size="14" lengthAdjust="spacing" textLength="74.4297" x="858.095" y="860.0452">DynamoDB</text><text fill="#000000" font-family="sans-serif" font-size="14" lengthAdjust="spacing" textLength="185.2197" x="802.7" y="876.5334">vpce-02779bd6e7a7e9be5</text></g><!--entity ep_ecr_api--><g class="entity" data-qualified-name="AWS us-east-1.VPC Endpoints.ep_ecr_api" data-source-line="43" id="ent0030"><rect fill="#F1F1F1" height="52.9766" rx="2.5" ry="2.5" style="stroke:#181818;stroke-width:0.5;" width="201.1182" x="794.75" y="1100.51"/><text fill="#000000" font-family="sans-serif" font-size="14" lengthAdjust="spacing" textLength="51.9873" x="869.3154" y="1124.0452">ECR API</text><text fill="#000000" font-family="sans-serif" font-size="14" lengthAdjust="spacing" textLength="181.1182" x="804.75" y="1140.5334">vpce-0f33be281603357f6</text></g><!--entity ep_ecr_dkr--><g class="entity" data-qualified-name="AWS us-east-1.VPC Endpoints.ep_ecr_dkr" data-source-line="44" id="ent0031"><rect fill="#F1F1F1" height="52.9766" rx="2.5" ry="2.5" style="stroke:#181818;stroke-width:0.5;" width="205.7256" x="792.44" y="1012.51"/><text fill="#000000" font-family="sans-serif" font-size="14" lengthAdjust="spacing" textLength="59.0352" x="865.7852" y="1036.0452">ECR DKR</text><text fill="#000000" font-family="sans-serif" font-size="14" lengthAdjust="spacing" textLength="185.7256" x="802.44" y="1052.5334">vpce-000b7ae5082191c41</text></g><!--entity ep_logs--><g class="entity" data-qualified-name="AWS us-east-1.VPC Endpoints.ep_logs" data-source-line="45" id="ent0032"><rect fill="#F1F1F1" height="52.9766" rx="2.5" ry="2.5" style="stroke:#181818;stroke-width:0.5;" width="195.4307" x="797.59" y="1276.51"/><text fill="#000000" font-family="sans-serif" font-size="14" lengthAdjust="spacing" textLength="116.9971" x="836.8068" y="1300.0452">CloudWatch Logs</text><text fill="#000000" font-family="sans-serif" font-size="14" lengthAdjust="spacing" textLength="175.4307" x="807.59" y="1316.5334">vpce-0c03bd6affeadc424</text></g><!--entity ep_sm--><g class="entity" data-qualified-name="AWS us-east-1.VPC Endpoints.ep_sm" data-source-line="46" id="ent0033"><rect fill="#F1F1F1" height="52.9766" rx="2.5" ry="2.5" style="stroke:#181818;stroke-width:0.5;" width="206.8193" x="791.9" y="1188.51"/><text fill="#000000" font-family="sans-serif" font-size="14" lengthAdjust="spacing" textLength="111.3096" x="839.6549" y="1212.0452">Secrets Manager</text><text fill="#000000" font-family="sans-serif" font-size="14" lengthAdjust="spacing" textLength="186.8193" x="801.9" y="1228.5334">vpce-0541a547c67809804</text></g><!--entity internet_users--><g class="entity" data-qualified-name="internet_users" data-source-line="5" id="ent0002"><ellipse cx="53.5713" cy="165.26" fill="#F1F1F1" rx="8" ry="8" style="stroke:#181818;stroke-width:0.5;"/><path d="M53.5713,173.26 L53.5713,200.26 M40.5713,181.26 L66.5713,181.26 M53.5713,200.26 L40.5713,215.26 M53.5713,200.26 L66.5713,215.26" fill="none" style="stroke:#181818;stroke-width:0.5;"/><text fill="#000000" font-family="sans-serif" font-size="14" lengthAdjust="spacing" textLength="95.1426" x="6" y="230.2952">Internet Users</text></g><!--link internet_users to igw--><g class="link" data-entity-1="ent0002" data-entity-2="ent0005" data-link-type="dependency" data-source-line="53" id="lnk36"><path d="M101.47,195 C119.28,195 134.18,195 154.81,195" fill="none" id="internet_users-to-igw" style="stroke:#181818;stroke-width:1;"/><polygon fill="#181818" points="160.81,195,151.81,191,155.81,195,151.81,199,160.81,195" style="stroke:#181818;stroke-width:1;"/></g><!--link igw to pub_a--><g class="link" data-entity-1="ent0005" data-entity-2="ent0008" data-link-type="dependency" data-source-line="54" id="lnk37"><path d="M354.96,214.49 C433.87,214.49 532.17,214.49 532.17,214.49 C532.17,214.49 532.17,227.18 532.17,244.13" fill="none" id="igw-to-pub_a" style="stroke:#181818;stroke-width:1;"/><polygon fill="#181818" points="532.17,250.13,536.17,241.13,532.17,245.13,528.17,241.13,532.17,250.13" style="stroke:#181818;stroke-width:1;"/></g><!--link vpc to pub_a--><g class="link" data-entity-1="ent0004" data-entity-2="ent0008" data-link-type="dependency" data-source-line="56" id="lnk38"><path d="M210.17,656.97 C210.17,556.92 210.17,277 210.17,277 C210.17,277 392.29,277 488.92,277" fill="none" id="vpc-to-pub_a" style="stroke:#181818;stroke-width:1;"/><polygon fill="#181818" points="494.92,277,485.92,273,489.92,277,485.92,281,494.92,277" style="stroke:#181818;stroke-width:1;"/></g><!--link vpc to pub_b--><g class="link" data-entity-1="ent0004" data-entity-2="ent0009" data-link-type="dependency" data-source-line="57" id="lnk39"><path d="M306.17,656.99 C306.17,590.61 306.17,453 306.17,453 C306.17,453 411.88,453 484.31,453" fill="none" id="vpc-to-pub_b" style="stroke:#181818;stroke-width:1;"/><polygon fill="#181818" points="490.31,453,481.31,449,485.31,453,481.31,457,490.31,453" style="stroke:#181818;stroke-width:1;"/></g><!--link vpc to pub_c--><g class="link" data-entity-1="ent0004" data-entity-2="ent0010" data-link-type="dependency" data-source-line="58" id="lnk40"><path d="M258.17,657.01 C258.17,572.65 258.17,365 258.17,365 C258.17,365 398.44,365 484.15,365" fill="none" id="vpc-to-pub_c" style="stroke:#181818;stroke-width:1;"/><polygon fill="#181818" points="490.15,365,481.15,361,485.15,365,481.15,369,490.15,365" style="stroke:#181818;stroke-width:1;"/></g><!--link vpc to app_a--><g class="link" data-entity-1="ent0004" data-entity-2="ent0012" data-link-type="dependency" data-source-line="59" id="lnk41"><path d="M277.17,727.2 C277.17,798.01 277.17,951 277.17,951 C277.17,951 403.82,951 484.4,951" fill="none" id="vpc-to-app_a" style="stroke:#181818;stroke-width:1;"/><polygon fill="#181818" points="490.4,951,481.4,947,485.4,951,481.4,955,490.4,951" style="stroke:#181818;stroke-width:1;"/></g><!--link vpc to app_b--><g class="link" data-entity-1="ent0004" data-entity-2="ent0013" data-link-type="dependency" data-source-line="60" id="lnk42"><path d="M200.17,727.23 C200.17,830.79 200.17,1127 200.17,1127 C200.17,1127 384.26,1127 484.51,1127" fill="none" id="vpc-to-app_b" style="stroke:#181818;stroke-width:1;"/><polygon fill="#181818" points="490.51,1127,481.51,1123,485.51,1127,481.51,1131,490.51,1127" style="stroke:#181818;stroke-width:1;"/></g><!--link vpc to app_c--><g class="link" data-entity-1="ent0004" data-entity-2="ent0014" data-link-type="dependency" data-source-line="61" id="lnk43"><path d="M239.17,727.18 C239.17,815.4 239.17,1039 239.17,1039 C239.17,1039 393.71,1039 484.33,1039" fill="none" id="vpc-to-app_c" style="stroke:#181818;stroke-width:1;"/><polygon fill="#181818" points="490.33,1039,481.33,1035,485.33,1039,481.33,1043,490.33,1039" style="stroke:#181818;stroke-width:1;"/></g><!--link vpc to data_a--><g class="link" data-entity-1="ent0004" data-entity-2="ent0016" data-link-type="dependency" data-source-line="62" id="lnk44"><path d="M354.18,668.75 C399.03,668.75 445.02,668.75 484.27,668.75" fill="none" id="vpc-to-data_a" style="stroke:#181818;stroke-width:1;"/><polygon fill="#181818" points="490.27,668.75,481.27,664.75,485.27,668.75,481.27,672.75,490.27,668.75" style="stroke:#181818;stroke-width:1;"/></g><!--link vpc to data_b--><g class="link" data-entity-1="ent0004" data-entity-2="ent0017" data-link-type="dependency" data-source-line="63" id="lnk45"><path d="M315.17,727.03 C315.17,766.13 315.17,824 315.17,824 C315.17,824 410.03,824 479.77,824" fill="none" id="vpc-to-data_b" style="stroke:#181818;stroke-width:1;"/><polygon fill="#181818" points="485.77,824,476.77,820,480.77,824,476.77,828,485.77,824" style="stroke:#181818;stroke-width:1;"/></g><!--link vpc to data_c--><g class="link" data-entity-1="ent0004" data-entity-2="ent0018" data-link-type="dependency" data-source-line="64" id="lnk46"><path d="M354.18,718.12 C397.37,718.12 441.17,718.12 479.84,718.12" fill="none" id="vpc-to-data_c" style="stroke:#181818;stroke-width:1;"/><polygon fill="#181818" points="485.84,718.12,476.84,714.12,480.84,718.12,476.84,722.12,485.84,718.12" style="stroke:#181818;stroke-width:1;"/></g><!--link pub_a to rt_public--><g class="link" data-entity-1="ent0008" data-entity-2="ent0020" data-link-type="dependency" data-source-line="66" id="lnk47"><path d="M569.17,250.1 C569.17,237.16 569.17,224.43 569.17,224.43 C569.17,224.43 695.79,224.43 791.9,224.43" fill="none" id="pub_a-to-rt_public" style="stroke:#181818;stroke-width:1;"/><polygon fill="#181818" points="797.9,224.43,788.9,220.43,792.9,224.43,788.9,228.43,797.9,224.43" style="stroke:#181818;stroke-width:1;"/></g><!--link pub_b to rt_public--><g class="link" data-entity-1="ent0009" data-entity-2="ent0020" data-link-type="dependency" data-source-line="67" id="lnk48"><path d="M611.38,436.01 C617.3,436.01 621.17,436.01 621.17,436.01 C621.17,436.01 621.17,230.31 621.17,230.31 C621.17,230.31 713.09,230.31 791.88,230.31" fill="none" id="pub_b-to-rt_public" style="stroke:#181818;stroke-width:1;"/><polygon fill="#181818" points="797.88,230.31,788.88,226.31,792.88,230.31,788.88,234.31,797.88,230.31" style="stroke:#181818;stroke-width:1;"/></g><!--link pub_c to rt_public--><g class="link" data-entity-1="ent0010" data-entity-2="ent0020" data-link-type="dependency" data-source-line="68" id="lnk49"><path d="M611.38,348.01 C616.73,348.01 620.17,348.01 620.17,348.01 C620.17,348.01 620.17,227.37 620.17,227.37 C620.17,227.37 712.77,227.37 791.92,227.37" fill="none" id="pub_c-to-rt_public" style="stroke:#181818;stroke-width:1;"/><polygon fill="#181818" points="797.92,227.37,788.92,223.37,792.92,227.37,788.92,231.37,797.92,227.37" style="stroke:#181818;stroke-width:1;"/></g><!--link rt_public to igw--><g class="link" data-entity-1="ent0020" data-entity-2="ent0005" data-link-type="dependency" data-source-line="69" id="lnk50"><path d="M797.8,207.49 C677.65,207.49 480.74,207.49 360.83,207.49" fill="none" id="rt_public-to-igw" style="stroke:#181818;stroke-width:1;"/><polygon fill="#181818" points="354.83,207.49,363.83,211.49,359.83,207.49,363.83,203.49,354.83,207.49" style="stroke:#181818;stroke-width:1;"/><text fill="#000000" font-family="sans-serif" font-size="13" lengthAdjust="spacing" textLength="60.2583" x="577.32" y="216.8084">0.0.0.0/0</text></g><!--link pub_a to nat--><g class="link" data-entity-1="ent0008" data-entity-2="ent0006" data-link-type="dependency" data-source-line="71" id="lnk51"><path d="M606.8,260.01 C772.08,260.01 1246.17,260.01 1246.17,260.01 C1246.17,260.01 1246.17,382.11 1246.17,439.15" fill="none" id="pub_a-to-nat" style="stroke:#181818;stroke-width:1;"/><polygon fill="#181818" points="1246.17,445.15,1250.17,436.15,1246.17,440.15,1242.17,436.15,1246.17,445.15" style="stroke:#181818;stroke-width:1;"/></g><!--link app_a to rt_app_a--><g class="link" data-entity-1="ent0012" data-entity-2="ent0021" data-link-type="dependency" data-source-line="73" id="lnk52"><path d="M611.17,942.17 C634.72,942.17 656.17,942.17 656.17,942.17 C656.17,942.17 656.17,560 656.17,560 C656.17,560 728.75,560 795.82,560" fill="none" id="app_a-to-rt_app_a" style="stroke:#181818;stroke-width:1;"/><polygon fill="#181818" points="801.82,560,792.82,556,796.82,560,792.82,564,801.82,560" style="stroke:#181818;stroke-width:1;"/></g><!--link app_b to rt_app_b--><g class="link" data-entity-1="ent0013" data-entity-2="ent0022" data-link-type="dependency" data-source-line="74" id="lnk53"><path d="M611.18,1107.13 C619.45,1107.13 625.17,1107.13 625.17,1107.13 C625.17,1107.13 625.17,751.89 625.17,751.89 C625.17,751.89 715.03,751.89 792.54,751.89" fill="none" id="app_b-to-rt_app_b" style="stroke:#181818;stroke-width:1;"/><polygon fill="#181818" points="798.54,751.89,789.54,747.89,793.54,751.89,789.54,755.89,798.54,751.89" style="stroke:#181818;stroke-width:1;"/></g><!--link app_c to rt_app_c--><g class="link" data-entity-1="ent0014" data-entity-2="ent0023" data-link-type="dependency" data-source-line="75" id="lnk54"><path d="M611.15,1033.7 C642.84,1033.7 675.17,1033.7 675.17,1033.7 C675.17,1033.7 675.17,663.89 675.17,663.89 C675.17,663.89 735.01,663.89 794.67,663.89" fill="none" id="app_c-to-rt_app_c" style="stroke:#181818;stroke-width:1;"/><polygon fill="#181818" points="800.67,663.89,791.67,659.89,795.67,663.89,791.67,667.89,800.67,663.89" style="stroke:#181818;stroke-width:1;"/></g><!--link rt_app_a to nat--><g class="link" data-entity-1="ent0021" data-entity-2="ent0006" data-link-type="dependency" data-source-line="76" id="lnk55"><path d="M988.76,560 C1061.5,560 1150.17,560 1150.17,560 C1150.17,560 1150.17,530.76 1150.17,504.88" fill="none" id="rt_app_a-to-nat" style="stroke:#181818;stroke-width:1;"/><polygon fill="#181818" points="1150.17,498.88,1146.17,507.88,1150.17,503.88,1154.17,507.88,1150.17,498.88" style="stroke:#181818;stroke-width:1;"/><text fill="#000000" font-family="sans-serif" font-size="13" lengthAdjust="spacing" textLength="60.2583" x="1039.02" y="573.5684">0.0.0.0/0</text></g><!--link rt_app_b to nat--><g class="link" data-entity-1="ent0022" data-entity-2="ent0006" data-link-type="dependency" data-source-line="77" id="lnk56"><path d="M991.65,736 C1095.51,736 1246.17,736 1246.17,736 C1246.17,736 1246.17,571.88 1246.17,504.77" fill="none" id="rt_app_b-to-nat" style="stroke:#181818;stroke-width:1;"/><polygon fill="#181818" points="1246.17,498.77,1242.17,507.77,1246.17,503.77,1250.17,507.77,1246.17,498.77" style="stroke:#181818;stroke-width:1;"/><text fill="#000000" font-family="sans-serif" font-size="13" lengthAdjust="spacing" textLength="60.2583" x="1176.52" y="749.5684">0.0.0.0/0</text></g><!--link rt_app_c to nat--><g class="link" data-entity-1="ent0023" data-entity-2="ent0006" data-link-type="dependency" data-source-line="78" id="lnk57"><path d="M989.89,648 C1078.75,648 1198.17,648 1198.17,648 C1198.17,648 1198.17,553.97 1198.17,504.73" fill="none" id="rt_app_c-to-nat" style="stroke:#181818;stroke-width:1;"/><polygon fill="#181818" points="1198.17,498.73,1194.17,507.73,1198.17,503.73,1202.17,507.73,1198.17,498.73" style="stroke:#181818;stroke-width:1;"/><text fill="#000000" font-family="sans-serif" font-size="13" lengthAdjust="spacing" textLength="60.2583" x="1107.66" y="661.5684">0.0.0.0/0</text></g><!--link data_a to rt_data_a--><g class="link" data-entity-1="ent0016" data-entity-2="ent0024" data-link-type="dependency" data-source-line="80" id="lnk58"><path d="M611.33,632.11 C617.84,632.11 622.17,632.11 622.17,632.11 C622.17,632.11 622.17,312.99 622.17,312.99 C622.17,312.99 713.73,312.99 792.24,312.99" fill="none" id="data_a-to-rt_data_a" style="stroke:#181818;stroke-width:1;"/><polygon fill="#181818" points="798.24,312.99,789.24,308.99,793.24,312.99,789.24,316.99,798.24,312.99" style="stroke:#181818;stroke-width:1;"/></g><!--link data_b to rt_data_b--><g class="link" data-entity-1="ent0017" data-entity-2="ent0025" data-link-type="dependency" data-source-line="81" id="lnk59"><path d="M615.75,817.01 C620.9,817.01 624.17,817.01 624.17,817.01 C624.17,817.01 624.17,488.99 624.17,488.99 C624.17,488.99 718.21,488.99 796.75,488.99" fill="none" id="data_b-to-rt_data_b" style="stroke:#181818;stroke-width:1;"/><polygon fill="#181818" points="802.75,488.99,793.75,484.99,797.75,488.99,793.75,492.99,802.75,488.99" style="stroke:#181818;stroke-width:1;"/></g><!--link data_c to rt_data_c--><g class="link" data-entity-1="ent0018" data-entity-2="ent0026" data-link-type="dependency" data-source-line="82" id="lnk60"><path d="M615.69,720.11 C620.29,720.11 623.17,720.11 623.17,720.11 C623.17,720.11 623.17,400.99 623.17,400.99 C623.17,400.99 715.97,400.99 794.51,400.99" fill="none" id="data_c-to-rt_data_c" style="stroke:#181818;stroke-width:1;"/><polygon fill="#181818" points="800.51,400.99,791.51,396.99,795.51,400.99,791.51,404.99,800.51,400.99" style="stroke:#181818;stroke-width:1;"/></g><!--link rt_data_a to nat--><g class="link" data-entity-1="ent0024" data-entity-2="ent0006" data-link-type="dependency" data-source-line="83" id="lnk61"><path d="M992.38,296 C1080.97,296 1198.17,296 1198.17,296 C1198.17,296 1198.17,390.03 1198.17,439.27" fill="none" id="rt_data_a-to-nat" style="stroke:#181818;stroke-width:1;"/><polygon fill="#181818" points="1198.17,445.27,1202.17,436.27,1198.17,440.27,1194.17,436.27,1198.17,445.27" style="stroke:#181818;stroke-width:1;"/><text fill="#000000" font-family="sans-serif" font-size="13" lengthAdjust="spacing" textLength="60.2583" x="1108.91" y="309.5684">0.0.0.0/0</text></g><!--link rt_data_b to nat--><g class="link" data-entity-1="ent0025" data-entity-2="ent0006" data-link-type="dependency" data-source-line="84" id="lnk62"><path d="M987.8,472 C1023.89,472 1059.27,472 1095.73,472" fill="none" id="rt_data_b-to-nat" style="stroke:#181818;stroke-width:1;"/><polygon fill="#181818" points="1101.73,472,1092.73,468,1096.73,472,1092.73,476,1101.73,472" style="stroke:#181818;stroke-width:1;"/><text fill="#000000" font-family="sans-serif" font-size="13" lengthAdjust="spacing" textLength="60.2583" x="983.76" y="485.5684">0.0.0.0/0</text></g><!--link rt_data_c to nat--><g class="link" data-entity-1="ent0026" data-entity-2="ent0006" data-link-type="dependency" data-source-line="85" id="lnk63"><path d="M990.21,384 C1062.67,384 1150.17,384 1150.17,384 C1150.17,384 1150.17,413.24 1150.17,439.12" fill="none" id="rt_data_c-to-nat" style="stroke:#181818;stroke-width:1;"/><polygon fill="#181818" points="1150.17,445.12,1154.17,436.12,1150.17,440.12,1146.17,436.12,1150.17,445.12" style="stroke:#181818;stroke-width:1;"/><text fill="#000000" font-family="sans-serif" font-size="13" lengthAdjust="spacing" textLength="60.2583" x="1039.75" y="397.5684">0.0.0.0/0</text></g><!--link app_a to ep_ecr_api--><g class="link" data-entity-1="ent0012" data-entity-2="ent0030" data-link-type="dependency" data-source-line="87" id="lnk64"><path d="M611.38,964.24 C621.17,964.24 628.17,964.24 628.17,964.24 C628.17,964.24 628.17,1133.62 628.17,1133.62 C628.17,1133.62 712.66,1133.62 788.31,1133.62" fill="none" id="app_a-to-ep_ecr_api" style="stroke:#181818;stroke-width:1;"/><polygon fill="#181818" points="794.31,1133.62,785.31,1129.62,789.31,1133.62,785.31,1137.62,794.31,1133.62" style="stroke:#181818;stroke-width:1;"/></g><!--link app_b to ep_ecr_api--><g class="link" data-entity-1="ent0013" data-entity-2="ent0030" data-link-type="dependency" data-source-line="88" id="lnk65"><path d="M611.19,1146.87 C661.75,1146.87 728.96,1146.87 788.4,1146.87" fill="none" id="app_b-to-ep_ecr_api" style="stroke:#181818;stroke-width:1;"/><polygon fill="#181818" points="794.4,1146.87,785.4,1142.87,789.4,1146.87,785.4,1150.87,794.4,1146.87" style="stroke:#181818;stroke-width:1;"/></g><!--link app_c to ep_ecr_api--><g class="link" data-entity-1="ent0014" data-entity-2="ent0030" data-link-type="dependency" data-source-line="89" id="lnk66"><path d="M611.34,1054.89 C620.61,1054.89 627.17,1054.89 627.17,1054.89 C627.17,1054.89 627.17,1140.24 627.17,1140.24 C627.17,1140.24 712.31,1140.24 788.32,1140.24" fill="none" id="app_c-to-ep_ecr_api" style="stroke:#181818;stroke-width:1;"/><polygon fill="#181818" points="794.32,1140.24,785.32,1136.24,789.32,1140.24,785.32,1144.24,794.32,1140.24" style="stroke:#181818;stroke-width:1;"/></g><!--link app_a to ep_ecr_dkr--><g class="link" data-entity-1="ent0012" data-entity-2="ent0031" data-link-type="dependency" data-source-line="90" id="lnk67"><path d="M611.38,959.83 C621.7,959.83 629.17,959.83 629.17,959.83 C629.17,959.83 629.17,1028.4 629.17,1028.4 C629.17,1028.4 711.22,1028.4 786.03,1028.4" fill="none" id="app_a-to-ep_ecr_dkr" style="stroke:#181818;stroke-width:1;"/><polygon fill="#181818" points="792.03,1028.4,783.03,1024.4,787.03,1028.4,783.03,1032.4,792.03,1028.4" style="stroke:#181818;stroke-width:1;"/></g><!--link app_b to ep_ecr_dkr--><g class="link" data-entity-1="ent0013" data-entity-2="ent0031" data-link-type="dependency" data-source-line="91" id="lnk68"><path d="M611.25,1127 C625.77,1127 637.17,1127 637.17,1127 C637.17,1127 637.17,1044.3 637.17,1044.3 C637.17,1044.3 714.27,1044.3 786.17,1044.3" fill="none" id="app_b-to-ep_ecr_dkr" style="stroke:#181818;stroke-width:1;"/><polygon fill="#181818" points="792.17,1044.3,783.17,1040.3,787.17,1044.3,783.17,1048.3,792.17,1044.3" style="stroke:#181818;stroke-width:1;"/></g><!--link app_c to ep_ecr_dkr--><g class="link" data-entity-1="ent0014" data-entity-2="ent0031" data-link-type="dependency" data-source-line="92" id="lnk69"><path d="M611.19,1039 C661.07,1039 727.01,1039 786.02,1039" fill="none" id="app_c-to-ep_ecr_dkr" style="stroke:#181818;stroke-width:1;"/><polygon fill="#181818" points="792.02,1039,783.02,1035,787.02,1039,783.02,1043,792.02,1039" style="stroke:#181818;stroke-width:1;"/></g><!--link app_a to ep_logs--><g class="link" data-entity-1="ent0012" data-entity-2="ent0032" data-link-type="dependency" data-source-line="93" id="lnk70"><path d="M611.33,955.41 C657.13,955.41 712.17,955.41 712.17,955.41 C712.17,955.41 712.17,1289.76 712.17,1289.76 C712.17,1289.76 747.76,1289.76 791.3,1289.76" fill="none" id="app_a-to-ep_logs" style="stroke:#181818;stroke-width:1;"/><polygon fill="#181818" points="797.3,1289.76,788.3,1285.76,792.3,1289.76,788.3,1293.76,797.3,1289.76" style="stroke:#181818;stroke-width:1;"/></g><!--link app_b to ep_logs--><g class="link" data-entity-1="ent0013" data-entity-2="ent0032" data-link-type="dependency" data-source-line="94" id="lnk71"><path d="M531.17,1153.71 C531.17,1205.88 531.17,1316.24 531.17,1316.24 C531.17,1316.24 683.39,1316.24 791.25,1316.24" fill="none" id="app_b-to-ep_logs" style="stroke:#181818;stroke-width:1;"/><polygon fill="#181818" points="797.25,1316.24,788.25,1312.24,792.25,1316.24,788.25,1320.24,797.25,1316.24" style="stroke:#181818;stroke-width:1;"/></g><!--link app_c to ep_logs--><g class="link" data-entity-1="ent0014" data-entity-2="ent0032" data-link-type="dependency" data-source-line="95" id="lnk72"><path d="M611.17,1049.6 C649.97,1049.6 693.17,1049.6 693.17,1049.6 C693.17,1049.6 693.17,1303 693.17,1303 C693.17,1303 739.7,1303 791.2,1303" fill="none" id="app_c-to-ep_logs" style="stroke:#181818;stroke-width:1;"/><polygon fill="#181818" points="797.2,1303,788.2,1299,792.2,1303,788.2,1307,797.2,1303" style="stroke:#181818;stroke-width:1;"/></g><!--link app_a to ep_sm--><g class="link" data-entity-1="ent0012" data-entity-2="ent0033" data-link-type="dependency" data-source-line="96" id="lnk73"><path d="M611.04,973.07 C614.83,973.07 617.17,973.07 617.17,973.07 C617.17,973.07 617.17,1201.76 617.17,1201.76 C617.17,1201.76 706.66,1201.76 785.74,1201.76" fill="none" id="app_a-to-ep_sm" style="stroke:#181818;stroke-width:1;"/><polygon fill="#181818" points="791.74,1201.76,782.74,1197.76,786.74,1201.76,782.74,1205.76,791.74,1201.76" style="stroke:#181818;stroke-width:1;"/></g><!--link app_b to ep_sm--><g class="link" data-entity-1="ent0013" data-entity-2="ent0033" data-link-type="dependency" data-source-line="97" id="lnk74"><path d="M571.17,1153.87 C571.17,1183.86 571.17,1228.24 571.17,1228.24 C571.17,1228.24 690.6,1228.24 785.41,1228.24" fill="none" id="app_b-to-ep_sm" style="stroke:#181818;stroke-width:1;"/><polygon fill="#181818" points="791.41,1228.24,782.41,1224.24,786.41,1228.24,782.41,1232.24,791.41,1228.24" style="stroke:#181818;stroke-width:1;"/></g><!--link app_c to ep_sm--><g class="link" data-entity-1="ent0014" data-entity-2="ent0033" data-link-type="dependency" data-source-line="98" id="lnk75"><path d="M611.04,1060.19 C614.24,1060.19 616.17,1060.19 616.17,1060.19 C616.17,1060.19 616.17,1215 616.17,1215 C616.17,1215 706.32,1215 785.76,1215" fill="none" id="app_c-to-ep_sm" style="stroke:#181818;stroke-width:1;"/><polygon fill="#181818" points="791.76,1215,782.76,1211,786.76,1215,782.76,1219,791.76,1215" style="stroke:#181818;stroke-width:1;"/></g><!--link app_a to ep_s3--><g class="link" data-entity-1="ent0012" data-entity-2="ent0028" data-link-type="dependency" data-source-line="100" id="lnk76"><path d="M611.19,946.59 C662.42,946.59 730.92,946.59 790.78,946.59" fill="none" id="app_a-to-ep_s3" style="stroke:#181818;stroke-width:1;"/><polygon fill="#181818" points="796.78,946.59,787.78,942.59,791.78,946.59,787.78,950.59,796.78,946.59" style="stroke:#181818;stroke-width:1;"/></g><!--link app_b to ep_s3--><g class="link" data-entity-1="ent0013" data-entity-2="ent0028" data-link-type="dependency" data-source-line="101" id="lnk77"><path d="M611.01,1120.38 C625.14,1120.38 636.17,1120.38 636.17,1120.38 C636.17,1120.38 636.17,968.66 636.17,968.66 C636.17,968.66 717.66,968.66 790.97,968.66" fill="none" id="app_b-to-ep_s3" style="stroke:#181818;stroke-width:1;"/><polygon fill="#181818" points="796.97,968.66,787.97,964.66,791.97,968.66,787.97,972.66,796.97,968.66" style="stroke:#181818;stroke-width:1;"/></g><!--link app_c to ep_s3--><g class="link" data-entity-1="ent0014" data-entity-2="ent0028" data-link-type="dependency" data-source-line="102" id="lnk78"><path d="M611.21,1023.11 C624.74,1023.11 635.17,1023.11 635.17,1023.11 C635.17,1023.11 635.17,951 635.17,951 C635.17,951 717.29,951 790.96,951" fill="none" id="app_c-to-ep_s3" style="stroke:#181818;stroke-width:1;"/><polygon fill="#181818" points="796.96,951,787.96,947,791.96,951,787.96,955,796.96,951" style="stroke:#181818;stroke-width:1;"/></g><!--link data_a to ep_s3--><g class="link" data-entity-1="ent0016" data-entity-2="ent0028" data-link-type="dependency" data-source-line="103" id="lnk79"><path d="M611.01,642.7 C663.13,642.7 730.17,642.7 730.17,642.7 C730.17,642.7 730.17,928.93 730.17,928.93 C730.17,928.93 755.49,928.93 790.86,928.93" fill="none" id="data_a-to-ep_s3" style="stroke:#181818;stroke-width:1;"/><polygon fill="#181818" points="796.86,928.93,787.86,924.93,791.86,928.93,787.86,932.93,796.86,928.93" style="stroke:#181818;stroke-width:1;"/></g><!--link data_b to ep_s3--><g class="link" data-entity-1="ent0017" data-entity-2="ent0028" data-link-type="dependency" data-source-line="104" id="lnk80"><path d="M615.61,847.69 C624.23,847.69 630.17,847.69 630.17,847.69 C630.17,847.69 630.17,937.76 630.17,937.76 C630.17,937.76 715.5,937.76 790.96,937.76" fill="none" id="data_b-to-ep_s3" style="stroke:#181818;stroke-width:1;"/><polygon fill="#181818" points="796.96,937.76,787.96,933.76,791.96,937.76,787.96,941.76,796.96,937.76" style="stroke:#181818;stroke-width:1;"/></g><!--link data_c to ep_s3--><g class="link" data-entity-1="ent0018" data-entity-2="ent0028" data-link-type="dependency" data-source-line="105" id="lnk81"><path d="M615.67,741.3 C624.81,741.3 631.17,741.3 631.17,741.3 C631.17,741.3 631.17,933.34 631.17,933.34 C631.17,933.34 715.85,933.34 790.95,933.34" fill="none" id="data_c-to-ep_s3" style="stroke:#181818;stroke-width:1;"/><polygon fill="#181818" points="796.95,933.34,787.95,929.34,791.95,933.34,787.95,937.34,796.95,933.34" style="stroke:#181818;stroke-width:1;"/></g><!--link app_a to ep_ddb--><g class="link" data-entity-1="ent0012" data-entity-2="ent0029" data-link-type="dependency" data-source-line="107" id="lnk82"><path d="M551.17,924.26 C551.17,897.49 551.17,860.24 551.17,860.24 C551.17,860.24 685.11,860.24 786.52,860.24" fill="none" id="app_a-to-ep_ddb" style="stroke:#181818;stroke-width:1;"/><polygon fill="#181818" points="792.52,860.24,783.52,856.24,787.52,860.24,783.52,864.24,792.52,860.24" style="stroke:#181818;stroke-width:1;"/></g><!--link app_b to ep_ddb--><g class="link" data-entity-1="ent0013" data-entity-2="ent0029" data-link-type="dependency" data-source-line="108" id="lnk83"><path d="M611.27,1113.76 C620.04,1113.76 626.17,1113.76 626.17,1113.76 C626.17,1113.76 626.17,879.74 626.17,879.74 C626.17,879.74 710.43,879.74 786.4,879.74" fill="none" id="app_b-to-ep_ddb" style="stroke:#181818;stroke-width:1;"/><polygon fill="#181818" points="792.4,879.74,783.4,875.74,787.4,879.74,783.4,883.74,792.4,879.74" style="stroke:#181818;stroke-width:1;"/></g><!--link app_c to ep_ddb--><g class="link" data-entity-1="ent0014" data-entity-2="ent0029" data-link-type="dependency" data-source-line="109" id="lnk84"><path d="M611.21,1017.81 C615.49,1017.81 618.17,1017.81 618.17,1017.81 C618.17,1017.81 618.17,869.99 618.17,869.99 C618.17,869.99 707.63,869.99 786.5,869.99" fill="none" id="app_c-to-ep_ddb" style="stroke:#181818;stroke-width:1;"/><polygon fill="#181818" points="792.5,869.99,783.5,865.99,787.5,869.99,783.5,873.99,792.5,869.99" style="stroke:#181818;stroke-width:1;"/></g><!--link data_a to ep_ddb--><g class="link" data-entity-1="ent0016" data-entity-2="ent0029" data-link-type="dependency" data-source-line="110" id="lnk85"><path d="M611.38,653.3 C624.31,653.3 634.17,653.3 634.17,653.3 C634.17,653.3 634.17,839.31 634.17,839.31 C634.17,839.31 713.4,839.31 786.47,839.31" fill="none" id="data_a-to-ep_ddb" style="stroke:#181818;stroke-width:1;"/><polygon fill="#181818" points="792.47,839.31,783.47,835.31,787.47,839.31,783.47,843.31,792.47,839.31" style="stroke:#181818;stroke-width:1;"/></g><!--link data_b to ep_ddb--><g class="link" data-entity-1="ent0017" data-entity-2="ent0029" data-link-type="dependency" data-source-line="111" id="lnk86"><path d="M615.58,844.9 C665.39,844.9 729.14,844.9 786.53,844.9" fill="none" id="data_b-to-ep_ddb" style="stroke:#181818;stroke-width:1;"/><polygon fill="#181818" points="792.53,844.9,783.53,840.9,787.53,844.9,783.53,848.9,792.53,844.9" style="stroke:#181818;stroke-width:1;"/></g><!--link data_c to ep_ddb--><g class="link" data-entity-1="ent0018" data-entity-2="ent0029" data-link-type="dependency" data-source-line="112" id="lnk87"><path d="M615.7,730.7 C625.91,730.7 633.17,730.7 633.17,730.7 C633.17,730.7 633.17,842.1 633.17,842.1 C633.17,842.1 713.02,842.1 786.45,842.1" fill="none" id="data_c-to-ep_ddb" style="stroke:#181818;stroke-width:1;"/><polygon fill="#181818" points="792.45,842.1,783.45,838.1,787.45,842.1,783.45,846.1,792.45,842.1" style="stroke:#181818;stroke-width:1;"/></g><!--link vpc to flow_logs--><g class="link" data-entity-1="ent0004" data-entity-2="ent0034" data-link-type="dependency" data-source-line="114" id="lnk88"><path d="M354.12,663.01 C412.25,663.01 475.17,663.01 475.17,663.01 C475.17,663.01 475.17,309.5 475.17,206.99" fill="none" id="vpc-to-flow_logs" style="stroke:#181818;stroke-width:1;"/><polygon fill="#181818" points="475.17,200.99,471.17,209.99,475.17,205.99,479.17,209.99,475.17,200.99" style="stroke:#181818;stroke-width:1;"/></g><!--link flow_logs to cw_logs--><g class="link" data-entity-1="ent0034" data-entity-2="ent0035" data-link-type="dependency" data-source-line="115" id="lnk89"><path d="M638.43,164.51 C699.54,164.51 770.17,164.51 770.17,164.51 C770.17,164.51 770.17,129.44 770.17,100.88" fill="none" id="flow_logs-to-cw_logs" style="stroke:#181818;stroke-width:1;"/><polygon fill="#181818" points="770.17,94.88,766.17,103.88,770.17,99.88,774.17,103.88,770.17,94.88" style="stroke:#181818;stroke-width:1;"/></g><?plantuml-src bPNRRjiu48RlzHH4xbtpeEDU5F0ctQBO0u8akxqn493Kq1OgIu8a9nii-kvBKQPCodAH8d2W-QblvXzI94jGFUfhr1QxVO_oeWNP5tKLTD-Agk4jFw2ogA1_Qm3LRR-ldO4S53-M_HFyss_AObSTeEgHrF-W3G8k-xf5Dr-6IFFexmxQxWRn3XKdwVauI44mLEJLhWHqi_dwY8xT2dZNhyWD-Yz0o1dzv_vsMyazT9tSytwLmylgfP6h0o-gRKNm1ue_wByrYKqPFUJZavNFl8TN_hQjYjth2gSoYIdd6M0LiL2GqUFkrOV_sZoTkKfNnpa02MdEap1YF5APuVH8e46bfqT3zqTH5X8z7eKksutzU5cdNhdR0CKcLtCKp_mg8In1OXyHLn5f4KPzP9YexwxljdZHlQ9Dq_oK-J0zv-LDynxtSUWZxt2VOX-vvlwEz_odx6VEJEOQVjVi4pg3tj41eUaCclVmK1zr1qzSbB3alJ4VrhPgUx72IQo_NHR6kOGu9bbgihRzy_ZI7DKpPbesQ2GfJ_CKL1If5CBGeekBPqXn8baO0bKuWpXDCOseIuf5qje5Y0LJ2GE94qXOxf8NReV9ETkLd6LIK19ZXYd1nABBYpMord16SghYEAKHo4Y5ocF5Ccij4y7JK77AYC2nbDHZvqkdJodqgSgRMfzpIsltoBQLFfj0dpmCOX1fffIYX2J2f8NckMDpvkwjueVwxbTBqYJ9H1v3mXF814IMpFEBJZxTFg3D_HTBAiO4q7IOGXObAhOao5QlGB54t_t-O6cCHS8XmYab6P4XSUdyMpkdRylwc7_blToZF-fTPxD8pBHvhXJmN8Oqj5bA_Sx5REdKUl-YFtd5Tz3Q5558U1GcCavIdALuIj4Tx6huzmRwhQnVJoPKgNd5C0ZEuZINagdn8rJw7MlYQXVeSriVcssrvg_TMfjPNrn8wo7FQiXZiifJJktAl_dGQlNHN3JwPvx70p_GAPpGZOGNoIaQjwiR2IywltdQALue_506WQbibFCnOkelQ7AcJK-sFVGBCjUQFl6mczfSbSQvpJ2sOUoxaZ2IT2LJvipgL5uL2_veK2uE1kC4sLgdwHgdoHF5A4fFDBQS30kbdLJNHgyuExVhRDTpcpDHBeaUFkpN2zoASacSSFCzU-oao0jbelJUz9XJB9ru1h0Pm6O0SvVB4SHSS16_nd1YUaMi85t1BpCfuaBng6bVdG-MwSdefwFXVm00?></g></svg>