<?xml version="1.0" encoding="UTF-8" standalone="no"?>
<!DOCTYPE svg PUBLIC "-//W3C//DTD SVG 1.1//EN"
 "http://www.w3.org/Graphics/SVG/1.1/DTD/svg11.dtd">
<!-- Generated by graphviz version 14.1.2 (20260124.0452)
 -->
<!-- Title: CHESSCHAT VPC (Python Diagrams) Pages: 1 -->
<svg width="2344pt" height="1360pt"
 viewBox="0.00 0.00 2344.00 1360.00" xmlns="http://www.w3.org/2000/svg" xmlns:xlink="http://www.w3.org/1999/xlink">
<g id="graph0" class="graph" transform="scale(1 1) rotate(0) translate(144 1215.9)">
<title>CHESSCHAT VPC (Python Diagrams)</title>
<polygon fill="white" stroke="none" points="-144,144 -144,-1215.9 2200,-1215.9 2200,144 -144,144"/>
<text xml:space="preserve" text-anchor="middle" x="1028" y="-5.5" font-family="Sans-Serif" font-size="15.00" fill="#2d3436">CHESSCHAT VPC (Python Diagrams)</text>
<g id="clust1" class="cluster">
<title>cluster_AWS us&#45;east&#45;1</title>
<path fill="#e5f5fd" stroke="#aeb6be" d="M20,-31.75C20,-31.75 2036,-31.75 2036,-31.75 2042,-31.75 2048,-37.75 2048,-43.75 2048,-43.75 2048,-887.1 2048,-887.1 2048,-893.1 2042,-899.1 2036,-899.1 2036,-899.1 20,-899.1 20,-899.1 14,-899.1 8,-893.1 8,-887.1 8,-887.1 8,-43.75 8,-43.75 8,-37.75 14,-31.75 20,-31.75"/>
<text xml:space="preserve" text-anchor="middle" x="55.75" y="-883.7" font-family="Sans-Serif" font-size="12.00" fill="#2d3436">AWS us&#45;east&#45;1</text>
</g>
<g id="clust2" class="cluster">
<title>cluster_Public Subnets</title>
<path fill="#ebf3e7" stroke="#aeb6be" d="M1353,-466.4C1353,-466.4 1733,-466.4 1733,-466.4 1739,-466.4 1745,-472.4 1745,-478.4 1745,-478.4 1745,-656.75 1745,-656.75 1745,-662.75 1739,-668.75 1733,-668.75 1733,-668.75 1353,-668.75 1353,-668.75 1347,-668.75 1341,-662.75 1341,-656.75 1341,-656.75 1341,-478.4 1341,-478.4 1341,-472.4 1347,-466.4 1353,-466.4"/>
<text xml:space="preserve" text-anchor="middle" x="1389.5" y="-653.35" font-family="Sans-Serif" font-size="12.00" fill="#2d3436">Public Subnets</text>
</g>
<g id="clust3" class="cluster">
<title>cluster_Private App Subnets</title>
<path fill="#ebf3e7" stroke="#aeb6be" d="M316,-466.4C316,-466.4 696,-466.4 696,-466.4 702,-466.4 708,-472.4 708,-478.4 708,-478.4 708,-656.75 708,-656.75 708,-662.75 702,-668.75 696,-668.75 696,-668.75 316,-668.75 316,-668.75 310,-668.75 304,-662.75 304,-656.75 304,-656.75 304,-478.4 304,-478.4 304,-472.4 310,-466.4 316,-466.4"/>
<text xml:space="preserve" text-anchor="middle" x="366.38" y="-653.35" font-family="Sans-Serif" font-size="12.00" fill="#2d3436">Private App Subnets</text>
</g>
<g id="clust4" class="cluster">
<title>cluster_Private Data Subnets</title>
<path fill="#ebf3e7" stroke="#aeb6be" d="M748,-466.4C748,-466.4 1128,-466.4 1128,-466.4 1134,-466.4 1140,-472.4 1140,-478.4 1140,-478.4 1140,-656.75 1140,-656.75 1140,-662.75 1134,-668.75 1128,-668.75 1128,-668.75 748,-668.75 748,-668.75 742,-668.75 736,-662.75 736,-656.75 736,-656.75 736,-478.4 736,-478.4 736,-472.4 742,-466.4 748,-466.4"/>
<text xml:space="preserve" text-anchor="middle" x="800.62" y="-653.35" font-family="Sans-Serif" font-size="12.00" fill="#2d3436">Private Data Subnets</text>
</g>
<g id="clust5" class="cluster">
<title>cluster_Route Tables</title>
<path fill="#ebf3e7" stroke="#aeb6be" d="M892,-236.05C892,-236.05 1848,-236.05 1848,-236.05 1854,-236.05 1860,-242.05 1860,-248.05 1860,-248.05 1860,-426.4 1860,-426.4 1860,-432.4 1854,-438.4 1848,-438.4 1848,-438.4 892,-438.4 892,-438.4 886,-438.4 880,-432.4 880,-426.4 880,-426.4 880,-248.05 880,-248.05 880,-242.05 886,-236.05 892,-236.05"/>
<text xml:space="preserve" text-anchor="middle" x="923.25" y="-423" font-family="Sans-Serif" font-size="12.00" fill="#2d3436">Route Tables</text>
</g>
<g id="clust6" class="cluster">
<title>cluster_VPC Endpoints</title>
<path fill="#ebf3e7" stroke="#aeb6be" d="M28,-236.05C28,-236.05 840,-236.05 840,-236.05 846,-236.05 852,-242.05 852,-248.05 852,-248.05 852,-426.4 852,-426.4 852,-432.4 846,-438.4 840,-438.4 840,-438.4 28,-438.4 28,-438.4 22,-438.4 16,-432.4 16,-426.4 16,-426.4 16,-248.05 16,-248.05 16,-242.05 22,-236.05 28,-236.05"/>
<text xml:space="preserve" text-anchor="middle" x="65.25" y="-423" font-family="Sans-Serif" font-size="12.00" fill="#2d3436">VPC Endpoints</text>
</g>
<!-- f14f568663fc40dbb0b60bb41fa340e7 -->
<g id="node1" class="node">
<title>f14f568663fc40dbb0b60bb41fa340e7</title>
<image xlink:href="/Users/tim/CODE_PROJECTS/CHESSCHAT_V2/diagrams/.venv/lib/python3.14/site-packages/resources/aws/general/users.png" width="100.8px" height="100.8px" preserveAspectRatio="xMinYMin meet" x="1865.6" y="-1053.9"/>
<text xml:space="preserve" text-anchor="middle" x="1916" y="-936.25" font-family="Sans-Serif" font-size="13.00" fill="#2d3436">Internet Users</text>
</g>
<!-- 608e2f373de740b08ed552da32b76deb -->
<g id="node3" class="node">
<title>608e2f373de740b08ed552da32b76deb</title>
<image xlink:href="/Users/tim/CODE_PROJECTS/CHESSCHAT_V2/diagrams/.venv/lib/python3.14/site-packages/resources/aws/network/internet-gateway.png" width="100.8px" height="100.8px" preserveAspectRatio="xMinYMin meet" x="1865.6" y="-837.95"/>
<text xml:space="preserve" text-anchor="middle" x="1916" y="-720.3" font-family="Sans-Serif" font-size="13.00" fill="#2d3436">igw&#45;08c762aa9e0f534b1</text>
</g>
<!-- f14f568663fc40dbb0b60bb41fa340e7&#45;&gt;608e2f373de740b08ed552da32b76deb -->
<g id="edge1" class="edge">
<title>f14f568663fc40dbb0b60bb41fa340e7&#45;&gt;608e2f373de740b08ed552da32b76deb</title>
<path fill="none" stroke="#7b8894" d="M1916,-935.17C1916,-935.17 1916,-867.32 1916,-867.32"/>
<polygon fill="#7b8894" stroke="#7b8894" points="1919.5,-867.32 1916,-857.32 1912.5,-867.32 1919.5,-867.32"/>
</g>
<!-- 52ea5c68a5ce455fb823acb864d2ffc3 -->
<g id="node2" class="node">
<title>52ea5c68a5ce455fb823acb864d2ffc3</title>
<image xlink:href="/Users/tim/CODE_PROJECTS/CHESSCHAT_V2/diagrams/.venv/lib/python3.14/site-packages/resources/aws/network/vpc.png" width="100.8px" height="100.8px" preserveAspectRatio="xMinYMin meet" x="1006.6" y="-837.95"/>
<text xml:space="preserve" text-anchor="middle" x="1057" y="-719.4" font-family="Sans-Serif" font-size="13.00" fill="#2d3436">chesschat&#45;dev&#45;vpc&#45;main</text>
<text xml:space="preserve" text-anchor="middle" x="1057" y="-705.9" font-family="Sans-Serif" font-size="13.00" fill="#2d3436">10.20.0.0/16</text>
</g>
<!-- 5fa15dfba01e4d309a9d1e3a4e68caf7 -->
<g id="node5" class="node">
<title>5fa15dfba01e4d309a9d1e3a4e68caf7</title>
<image xlink:href="/Users/tim/CODE_PROJECTS/CHESSCHAT_V2/diagrams/.venv/lib/python3.14/site-packages/resources/aws/network/vpc-flow-logs.png" width="100.8px" height="100.8px" preserveAspectRatio="xMinYMin meet" x="1780.6" y="-607.6"/>
<text xml:space="preserve" text-anchor="middle" x="1831" y="-489.95" font-family="Sans-Serif" font-size="13.00" fill="#2d3436">fl&#45;05f30eba368dcc3fd</text>
</g>
<!-- 52ea5c68a5ce455fb823acb864d2ffc3&#45;&gt;5fa15dfba01e4d309a9d1e3a4e68caf7 -->
<g id="edge53" class="edge">
<title>52ea5c68a5ce455fb823acb864d2ffc3&#45;&gt;5fa15dfba01e4d309a9d1e3a4e68caf7</title>
<path fill="none" stroke="#7b8894" d="M1107.27,-716.75C1277.7,-716.75 1823.1,-716.75 1823.1,-716.75 1823.1,-716.75 1823.1,-636.84 1823.1,-636.84"/>
<polygon fill="#7b8894" stroke="#7b8894" points="1826.6,-636.84 1823.1,-626.84 1819.6,-636.84 1826.6,-636.84"/>
</g>
<!-- 76fbe4824e614875b5537681d89bc1be -->
<g id="node7" class="node">
<title>76fbe4824e614875b5537681d89bc1be</title>
<image xlink:href="/Users/tim/CODE_PROJECTS/CHESSCHAT_V2/diagrams/.venv/lib/python3.14/site-packages/resources/aws/network/public-subnet.png" width="100.8px" height="100.8px" preserveAspectRatio="xMinYMin meet" x="1636.6" y="-607.6"/>
<text xml:space="preserve" text-anchor="middle" x="1687" y="-489.05" font-family="Sans-Serif" font-size="13.00" fill="#2d3436">us&#45;east&#45;1a</text>
<text xml:space="preserve" text-anchor="middle" x="1687" y="-475.55" font-family="Sans-Serif" font-size="13.00" fill="#2d3436">10.20.0.0/20</text>
</g>
<!-- 52ea5c68a5ce455fb823acb864d2ffc3&#45;&gt;76fbe4824e614875b5537681d89bc1be -->
<g id="edge3" class="edge">
<title>52ea5c68a5ce455fb823acb864d2ffc3&#45;&gt;76fbe4824e614875b5537681d89bc1be</title>
<path fill="none" stroke="#7b8894" d="M1107.23,-713.75C1256.48,-713.75 1687,-713.75 1687,-713.75 1687,-713.75 1687,-651.11 1687,-651.11"/>
<polygon fill="#7b8894" stroke="#7b8894" points="1690.5,-651.11 1687,-641.11 1683.5,-651.11 1690.5,-651.11"/>
</g>
<!-- 9a4a52a4ef704c82ac0f2d8b26f8b294 -->
<g id="node8" class="node">
<title>9a4a52a4ef704c82ac0f2d8b26f8b294</title>
<image xlink:href="/Users/tim/CODE_PROJECTS/CHESSCHAT_V2/diagrams/.venv/lib/python3.14/site-packages/resources/aws/network/public-subnet.png" width="100.8px" height="100.8px" preserveAspectRatio="xMinYMin meet" x="1492.6" y="-607.6"/>
<text xml:space="preserve" text-anchor="middle" x="1543" y="-489.05" font-family="Sans-Serif" font-size="13.00" fill="#2d3436">us&#45;east&#45;1b</text>
<text xml:space="preserve" text-anchor="middle" x="1543" y="-475.55" font-family="Sans-Serif" font-size="13.00" fill="#2d3436">10.20.16.0/20</text>
</g>
<!-- 52ea5c68a5ce455fb823acb864d2ffc3&#45;&gt;9a4a52a4ef704c82ac0f2d8b26f8b294 -->
<g id="edge4" class="edge">
<title>52ea5c68a5ce455fb823acb864d2ffc3&#45;&gt;9a4a52a4ef704c82ac0f2d8b26f8b294</title>
<path fill="none" stroke="#7b8894" d="M1107.18,-710.75C1231.35,-710.75 1543,-710.75 1543,-710.75 1543,-710.75 1543,-651.33 1543,-651.33"/>
<polygon fill="#7b8894" stroke="#7b8894" points="1546.5,-651.33 1543,-641.33 1539.5,-651.33 1546.5,-651.33"/>
</g>
<!-- 6035910355074e258002e277ea48fcf9 -->
<g id="node9" class="node">
<title>6035910355074e258002e277ea48fcf9</title>
<image xlink:href="/Users/tim/CODE_PROJECTS/CHESSCHAT_V2/diagrams/.venv/lib/python3.14/site-packages/resources/aws/network/public-subnet.png" width="100.8px" height="100.8px" preserveAspectRatio="xMinYMin meet" x="1348.6" y="-607.6"/>
<text xml:space="preserve" text-anchor="middle" x="1399" y="-489.05" font-family="Sans-Serif" font-size="13.00" fill="#2d3436">us&#45;east&#45;1c</text>
<text xml:space="preserve" text-anchor="middle" x="1399" y="-475.55" font-family="Sans-Serif" font-size="13.00" fill="#2d3436">10.20.32.0/20</text>
</g>
<!-- 52ea5c68a5ce455fb823acb864d2ffc3&#45;&gt;6035910355074e258002e277ea48fcf9 -->
<g id="edge5" class="edge">
<title>52ea5c68a5ce455fb823acb864d2ffc3&#45;&gt;6035910355074e258002e277ea48fcf9</title>
<path fill="none" stroke="#7b8894" d="M1107.1,-707.75C1202.09,-707.75 1399,-707.75 1399,-707.75 1399,-707.75 1399,-651.48 1399,-651.48"/>
<polygon fill="#7b8894" stroke="#7b8894" points="1402.5,-651.48 1399,-641.48 1395.5,-651.48 1402.5,-651.48"/>
</g>
<!-- 95e22719d867468ca8b764d29012020e -->
<g id="node10" class="node">
<title>95e22719d867468ca8b764d29012020e</title>
<image xlink:href="/Users/tim/CODE_PROJECTS/CHESSCHAT_V2/diagrams/.venv/lib/python3.14/site-packages/resources/aws/network/private-subnet.png" width="100.8px" height="100.8px" preserveAspectRatio="xMinYMin meet" x="455.6" y="-607.6"/>
<text xml:space="preserve" text-anchor="middle" x="506" y="-489.05" font-family="Sans-Serif" font-size="13.00" fill="#2d3436">us&#45;east&#45;1a</text>
<text xml:space="preserve" text-anchor="middle" x="506" y="-475.55" font-family="Sans-Serif" font-size="13.00" fill="#2d3436">10.20.48.0/20</text>
</g>
<!-- 52ea5c68a5ce455fb823acb864d2ffc3&#45;&gt;95e22719d867468ca8b764d29012020e -->
<g id="edge6" class="edge">
<title>52ea5c68a5ce455fb823acb864d2ffc3&#45;&gt;95e22719d867468ca8b764d29012020e</title>
<path fill="none" stroke="#7b8894" d="M1006.64,-803.75C870.62,-803.75 506,-803.75 506,-803.75 506,-803.75 506,-651.5 506,-651.5"/>
<polygon fill="#7b8894" stroke="#7b8894" points="509.5,-651.5 506,-641.5 502.5,-651.5 509.5,-651.5"/>
</g>
<!-- 3167134cd70e49a0bdb7d67e33e77081 -->
<g id="node11" class="node">
<title>3167134cd70e49a0bdb7d67e33e77081</title>
<image xlink:href="/Users/tim/CODE_PROJECTS/CHESSCHAT_V2/diagrams/.venv/lib/python3.14/site-packages/resources/aws/network/private-subnet.png" width="100.8px" height="100.8px" preserveAspectRatio="xMinYMin meet" x="599.6" y="-607.6"/>
<text xml:space="preserve" text-anchor="middle" x="650" y="-489.05" font-family="Sans-Serif" font-size="13.00" fill="#2d3436">us&#45;east&#45;1b</text>
<text xml:space="preserve" text-anchor="middle" x="650" y="-475.55" font-family="Sans-Serif" font-size="13.00" fill="#2d3436">10.20.64.0/20</text>
</g>
<!-- 52ea5c68a5ce455fb823acb864d2ffc3&#45;&gt;3167134cd70e49a0bdb7d67e33e77081 -->
<g id="edge7" class="edge">
<title>52ea5c68a5ce455fb823acb864d2ffc3&#45;&gt;3167134cd70e49a0bdb7d67e33e77081</title>
<path fill="none" stroke="#7b8894" d="M1006.69,-770.75C897.79,-770.75 650,-770.75 650,-770.75 650,-770.75 650,-651.28 650,-651.28"/>
<polygon fill="#7b8894" stroke="#7b8894" points="653.5,-651.28 650,-641.28 646.5,-651.28 653.5,-651.28"/>
</g>
<!-- aacb4c541aa34fb4888c6eb54c781b38 -->
<g id="node12" class="node">
<title>aacb4c541aa34fb4888c6eb54c781b38</title>
<image xlink:href="/Users/tim/CODE_PROJECTS/CHESSCHAT_V2/diagrams/.venv/lib/python3.14/site-packages/resources/aws/network/private-subnet.png" width="100.8px" height="100.8px" preserveAspectRatio="xMinYMin meet" x="311.6" y="-607.6"/>
<text xml:space="preserve" text-anchor="middle" x="362" y="-489.05" font-family="Sans-Serif" font-size="13.00" fill="#2d3436">us&#45;east&#45;1c</text>
<text xml:space="preserve" text-anchor="middle" x="362" y="-475.55" font-family="Sans-Serif" font-size="13.00" fill="#2d3436">10.20.80.0/20</text>
</g>
<!-- 52ea5c68a5ce455fb823acb864d2ffc3&#45;&gt;aacb4c541aa34fb4888c6eb54c781b38 -->
<g id="edge8" class="edge">
<title>52ea5c68a5ce455fb823acb864d2ffc3&#45;&gt;aacb4c541aa34fb4888c6eb54c781b38</title>
<path fill="none" stroke="#7b8894" d="M1006.74,-836.75C847.09,-836.75 362,-836.75 362,-836.75 362,-836.75 362,-651.45 362,-651.45"/>
<polygon fill="#7b8894" stroke="#7b8894" points="365.5,-651.45 362,-641.45 358.5,-651.45 365.5,-651.45"/>
</g>
<!-- 5fe4bcc6efb94b1ca67aebcbb9bd0853 -->
<g id="node13" class="node">
<title>5fe4bcc6efb94b1ca67aebcbb9bd0853</title>
<image xlink:href="/Users/tim/CODE_PROJECTS/CHESSCHAT_V2/diagrams/.venv/lib/python3.14/site-packages/resources/aws/network/private-subnet.png" width="100.8px" height="100.8px" preserveAspectRatio="xMinYMin meet" x="1031.6" y="-607.6"/>
<text xml:space="preserve" text-anchor="middle" x="1082" y="-489.05" font-family="Sans-Serif" font-size="13.00" fill="#2d3436">us&#45;east&#45;1a</text>
<text xml:space="preserve" text-anchor="middle" x="1082" y="-475.55" font-family="Sans-Serif" font-size="13.00" fill="#2d3436">10.20.96.0/20</text>
</g>
<!-- 52ea5c68a5ce455fb823acb864d2ffc3&#45;&gt;5fe4bcc6efb94b1ca67aebcbb9bd0853 -->
<g id="edge9" class="edge">
<title>52ea5c68a5ce455fb823acb864d2ffc3&#45;&gt;5fe4bcc6efb94b1ca67aebcbb9bd0853</title>
<path fill="none" stroke="#7b8894" d="M1069.5,-705.04C1069.5,-705.04 1069.5,-651.42 1069.5,-651.42"/>
<polygon fill="#7b8894" stroke="#7b8894" points="1073,-651.42 1069.5,-641.42 1066,-651.42 1073,-651.42"/>
</g>
<!-- 0e7d2d8044ee4067bdcc46da4466d1a9 -->
<g id="node14" class="node">
<title>0e7d2d8044ee4067bdcc46da4466d1a9</title>
<image xlink:href="/Users/tim/CODE_PROJECTS/CHESSCHAT_V2/diagrams/.venv/lib/python3.14/site-packages/resources/aws/network/private-subnet.png" width="100.8px" height="100.8px" preserveAspectRatio="xMinYMin meet" x="743.6" y="-607.6"/>
<text xml:space="preserve" text-anchor="middle" x="794" y="-489.05" font-family="Sans-Serif" font-size="13.00" fill="#2d3436">us&#45;east&#45;1b</text>
<text xml:space="preserve" text-anchor="middle" x="794" y="-475.55" font-family="Sans-Serif" font-size="13.00" fill="#2d3436">10.20.112.0/20</text>
</g>
<!-- 52ea5c68a5ce455fb823acb864d2ffc3&#45;&gt;0e7d2d8044ee4067bdcc46da4466d1a9 -->
<g id="edge10" class="edge">
<title>52ea5c68a5ce455fb823acb864d2ffc3&#45;&gt;0e7d2d8044ee4067bdcc46da4466d1a9</title>
<path fill="none" stroke="#7b8894" d="M1006.6,-737.75C930.24,-737.75 794,-737.75 794,-737.75 794,-737.75 794,-651.33 794,-651.33"/>
<polygon fill="#7b8894" stroke="#7b8894" points="797.5,-651.33 794,-641.33 790.5,-651.33 797.5,-651.33"/>
</g>
<!-- 1d80cbd8536849ecb7108c5f56e086e2 -->
<g id="node15" class="node">
<title>1d80cbd8536849ecb7108c5f56e086e2</title>
<image xlink:href="/Users/tim/CODE_PROJECTS/CHESSCHAT_V2/diagrams/.venv/lib/python3.14/site-packages/resources/aws/network/private-subnet.png" width="100.8px" height="100.8px" preserveAspectRatio="xMinYMin meet" x="887.6" y="-607.6"/>
<text xml:space="preserve" text-anchor="middle" x="938" y="-489.05" font-family="Sans-Serif" font-size="13.00" fill="#2d3436">us&#45;east&#45;1c</text>
<text xml:space="preserve" text-anchor="middle" x="938" y="-475.55" font-family="Sans-Serif" font-size="13.00" fill="#2d3436">10.20.128.0/20</text>
</g>
<!-- 52ea5c68a5ce455fb823acb864d2ffc3&#45;&gt;1d80cbd8536849ecb7108c5f56e086e2 -->
<g id="edge11" class="edge">
<title>52ea5c68a5ce455fb823acb864d2ffc3&#45;&gt;1d80cbd8536849ecb7108c5f56e086e2</title>
<path fill="none" stroke="#7b8894" d="M1019.1,-704.88C1019.1,-638.65 1019.1,-556.75 1019.1,-556.75 1019.1,-556.75 999.49,-556.75 999.49,-556.75"/>
<polygon fill="#7b8894" stroke="#7b8894" points="999.49,-553.25 989.49,-556.75 999.49,-560.25 999.49,-553.25"/>
</g>
<!-- 608e2f373de740b08ed552da32b76deb&#45;&gt;76fbe4824e614875b5537681d89bc1be -->
<g id="edge2" class="edge">
<title>608e2f373de740b08ed552da32b76deb&#45;&gt;76fbe4824e614875b5537681d89bc1be</title>
<path fill="none" stroke="#7b8894" d="M1873.5,-719.2C1873.5,-677.73 1873.5,-632.75 1873.5,-632.75 1873.5,-632.75 1748.49,-632.75 1748.49,-632.75"/>
<polygon fill="#7b8894" stroke="#7b8894" points="1748.49,-629.25 1738.49,-632.75 1748.49,-636.25 1748.49,-629.25"/>
</g>
<!-- b274bc5be3fd47dca13be56f771c9aaf -->
<g id="node4" class="node">
<title>b274bc5be3fd47dca13be56f771c9aaf</title>
<image xlink:href="/Users/tim/CODE_PROJECTS/CHESSCHAT_V2/diagrams/.venv/lib/python3.14/site-packages/resources/aws/network/nat-gateway.png" width="100.8px" height="100.8px" preserveAspectRatio="xMinYMin meet" x="1319.6" y="-158.55"/>
<text xml:space="preserve" text-anchor="middle" x="1370" y="-40.9" font-family="Sans-Serif" font-size="13.00" fill="#2d3436">nat&#45;0dee142da7453a5f9</text>
</g>
<!-- ff1c077cfc9f4d839548cc00161031b5 -->
<g id="node6" class="node">
<title>ff1c077cfc9f4d839548cc00161031b5</title>
<image xlink:href="/Users/tim/CODE_PROJECTS/CHESSCHAT_V2/diagrams/.venv/lib/python3.14/site-packages/resources/aws/management/cloudwatch.png" width="100.8px" height="100.8px" preserveAspectRatio="xMinYMin meet" x="1939.6" y="-377.25"/>
<text xml:space="preserve" text-anchor="middle" x="1990" y="-259.6" font-family="Sans-Serif" font-size="13.00" fill="#2d3436">/aws/vpc/chesschat&#45;dev&#45;vpc/flow&#45;logs</text>
</g>
<!-- 5fa15dfba01e4d309a9d1e3a4e68caf7&#45;&gt;ff1c077cfc9f4d839548cc00161031b5 -->
<g id="edge54" class="edge">
<title>5fa15dfba01e4d309a9d1e3a4e68caf7&#45;&gt;ff1c077cfc9f4d839548cc00161031b5</title>
<path fill="none" stroke="#7b8894" d="M1881.33,-556.75C1914.93,-556.75 1953,-556.75 1953,-556.75 1953,-556.75 1953,-406.72 1953,-406.72"/>
<polygon fill="#7b8894" stroke="#7b8894" points="1956.5,-406.72 1953,-396.72 1949.5,-406.72 1956.5,-406.72"/>
</g>
<!-- 76fbe4824e614875b5537681d89bc1be&#45;&gt;b274bc5be3fd47dca13be56f771c9aaf -->
<g id="edge16" class="edge">
<title>76fbe4824e614875b5537681d89bc1be&#45;&gt;b274bc5be3fd47dca13be56f771c9aaf</title>
<path fill="none" stroke="#7b8894" d="M1722.9,-474.64C1722.9,-336.56 1722.9,-73.75 1722.9,-73.75 1722.9,-73.75 1431.7,-73.75 1431.7,-73.75"/>
<polygon fill="#7b8894" stroke="#7b8894" points="1431.7,-70.25 1421.7,-73.75 1431.7,-77.25 1431.7,-70.25"/>
</g>
<!-- 583eddbe19ab45efadf3584726402e3a -->
<g id="node16" class="node">
<title>583eddbe19ab45efadf3584726402e3a</title>
<image xlink:href="/Users/tim/CODE_PROJECTS/CHESSCHAT_V2/diagrams/.venv/lib/python3.14/site-packages/resources/aws/network/route-table.png" width="100.8px" height="100.8px" preserveAspectRatio="xMinYMin meet" x="1751.6" y="-377.25"/>
<text xml:space="preserve" text-anchor="middle" x="1802" y="-258.7" font-family="Sans-Serif" font-size="13.00" fill="#2d3436">public</text>
<text xml:space="preserve" text-anchor="middle" x="1802" y="-245.2" font-family="Sans-Serif" font-size="13.00" fill="#2d3436">rtb&#45;0769e0346dce66198</text>
</g>
<!-- 76fbe4824e614875b5537681d89bc1be&#45;&gt;583eddbe19ab45efadf3584726402e3a -->
<g id="edge12" class="edge">
<title>76fbe4824e614875b5537681d89bc1be&#45;&gt;583eddbe19ab45efadf3584726402e3a</title>
<path fill="none" stroke="#7b8894" d="M1737.23,-481.75C1756.23,-481.75 1773.35,-481.75 1773.35,-481.75 1773.35,-481.75 1773.35,-420.8 1773.35,-420.8"/>
<polygon fill="#7b8894" stroke="#7b8894" points="1776.85,-420.8 1773.35,-410.8 1769.85,-420.8 1776.85,-420.8"/>
</g>
<!-- 9a4a52a4ef704c82ac0f2d8b26f8b294&#45;&gt;583eddbe19ab45efadf3584726402e3a -->
<g id="edge13" class="edge">
<title>9a4a52a4ef704c82ac0f2d8b26f8b294&#45;&gt;583eddbe19ab45efadf3584726402e3a</title>
<path fill="none" stroke="#7b8894" d="M1578.9,-474.71C1578.9,-467.43 1578.9,-462.75 1578.9,-462.75 1578.9,-462.75 1766.1,-462.75 1766.1,-462.75 1766.1,-462.75 1766.1,-420.94 1766.1,-420.94"/>
<polygon fill="#7b8894" stroke="#7b8894" points="1769.6,-420.94 1766.1,-410.94 1762.6,-420.94 1769.6,-420.94"/>
</g>
<!-- 6035910355074e258002e277ea48fcf9&#45;&gt;583eddbe19ab45efadf3584726402e3a -->
<g id="edge14" class="edge">
<title>6035910355074e258002e277ea48fcf9&#45;&gt;583eddbe19ab45efadf3584726402e3a</title>
<path fill="none" stroke="#7b8894" d="M1434.9,-474.55C1434.9,-465.65 1434.9,-459.75 1434.9,-459.75 1434.9,-459.75 1758.85,-459.75 1758.85,-459.75 1758.85,-459.75 1758.85,-421.02 1758.85,-421.02"/>
<polygon fill="#7b8894" stroke="#7b8894" points="1762.35,-421.02 1758.85,-411.02 1755.35,-421.02 1762.35,-421.02"/>
</g>
<!-- 4f4f92cd4ab2475d9f098cf5f03bc531 -->
<g id="node17" class="node">
<title>4f4f92cd4ab2475d9f098cf5f03bc531</title>
<image xlink:href="/Users/tim/CODE_PROJECTS/CHESSCHAT_V2/diagrams/.venv/lib/python3.14/site-packages/resources/aws/network/route-table.png" width="100.8px" height="100.8px" preserveAspectRatio="xMinYMin meet" x="1031.6" y="-377.25"/>
<text xml:space="preserve" text-anchor="middle" x="1082" y="-258.7" font-family="Sans-Serif" font-size="13.00" fill="#2d3436">app&#45;1a</text>
<text xml:space="preserve" text-anchor="middle" x="1082" y="-245.2" font-family="Sans-Serif" font-size="13.00" fill="#2d3436">rtb&#45;05c2a8d8ef55f8e44</text>
</g>
<!-- 95e22719d867468ca8b764d29012020e&#45;&gt;4f4f92cd4ab2475d9f098cf5f03bc531 -->
<g id="edge17" class="edge">
<title>95e22719d867468ca8b764d29012020e&#45;&gt;4f4f92cd4ab2475d9f098cf5f03bc531</title>
<path fill="none" stroke="#7b8894" d="M536.24,-474.52C536.24,-459.12 536.24,-447.75 536.24,-447.75 536.24,-447.75 1051.76,-447.75 1051.76,-447.75 1051.76,-447.75 1051.76,-421.01 1051.76,-421.01"/>
<polygon fill="#7b8894" stroke="#7b8894" points="1055.26,-421.01 1051.76,-411.01 1048.26,-421.01 1055.26,-421.01"/>
</g>
<!-- 07423058066c49fc9cf42c5aa2b1cd0d -->
<g id="node23" class="node">
<title>07423058066c49fc9cf42c5aa2b1cd0d</title>
<image xlink:href="/Users/tim/CODE_PROJECTS/CHESSCHAT_V2/diagrams/.venv/lib/python3.14/site-packages/resources/aws/network/endpoint.png" width="100.8px" height="100.8px" preserveAspectRatio="xMinYMin meet" x="743.6" y="-377.25"/>
<text xml:space="preserve" text-anchor="middle" x="794" y="-258.7" font-family="Sans-Serif" font-size="13.00" fill="#2d3436">S3</text>
<text xml:space="preserve" text-anchor="middle" x="794" y="-245.2" font-family="Sans-Serif" font-size="13.00" fill="#2d3436">vpce&#45;083e6eb89fff2117b</text>
</g>
<!-- 95e22719d867468ca8b764d29012020e&#45;&gt;07423058066c49fc9cf42c5aa2b1cd0d -->
<g id="edge41" class="edge">
<title>95e22719d867468ca8b764d29012020e&#45;&gt;07423058066c49fc9cf42c5aa2b1cd0d</title>
<path fill="none" stroke="#7b8894" d="M526.16,-474.51C526.16,-446.31 526.16,-421.75 526.16,-421.75 526.16,-421.75 766,-421.75 766,-421.75 766,-421.75 766,-420.51 766,-420.51"/>
<polygon fill="#7b8894" stroke="#7b8894" points="769.5,-420.86 766,-410.86 762.5,-420.86 769.5,-420.86"/>
</g>
<!-- 836187d0ed8b42b2b2536d8b95e484c5 -->
<g id="node24" class="node">
<title>836187d0ed8b42b2b2536d8b95e484c5</title>
<image xlink:href="/Users/tim/CODE_PROJECTS/CHESSCHAT_V2/diagrams/.venv/lib/python3.14/site-packages/resources/aws/network/endpoint.png" width="100.8px" height="100.8px" preserveAspectRatio="xMinYMin meet" x="599.6" y="-377.25"/>
<text xml:space="preserve" text-anchor="middle" x="650" y="-258.7" font-family="Sans-Serif" font-size="13.00" fill="#2d3436">DynamoDB</text>
<text xml:space="preserve" text-anchor="middle" x="650" y="-245.2" font-family="Sans-Serif" font-size="13.00" fill="#2d3436">vpce&#45;02779bd6e7a7e9be5</text>
</g>
<!-- 95e22719d867468ca8b764d29012020e&#45;&gt;836187d0ed8b42b2b2536d8b95e484c5 -->
<g id="edge42" class="edge">
<title>95e22719d867468ca8b764d29012020e&#45;&gt;836187d0ed8b42b2b2536d8b95e484c5</title>
<path fill="none" stroke="#7b8894" d="M516.08,-474.69C516.08,-444.12 516.08,-416.75 516.08,-416.75 516.08,-416.75 638.37,-416.75 638.37,-416.75 638.37,-416.75 638.37,-416.01 638.37,-416.01"/>
<polygon fill="#7b8894" stroke="#7b8894" points="641.87,-420.91 638.37,-410.91 634.87,-420.91 641.87,-420.91"/>
</g>
<!-- f9acaf58ce4b4bb8a8e3eaf6ffd020e2 -->
<g id="node25" class="node">
<title>f9acaf58ce4b4bb8a8e3eaf6ffd020e2</title>
<image xlink:href="/Users/tim/CODE_PROJECTS/CHESSCHAT_V2/diagrams/.venv/lib/python3.14/site-packages/resources/aws/network/endpoint.png" width="100.8px" height="100.8px" preserveAspectRatio="xMinYMin meet" x="311.6" y="-377.25"/>
<text xml:space="preserve" text-anchor="middle" x="362" y="-258.7" font-family="Sans-Serif" font-size="13.00" fill="#2d3436">ECR API</text>
<text xml:space="preserve" text-anchor="middle" x="362" y="-245.2" font-family="Sans-Serif" font-size="13.00" fill="#2d3436">vpce&#45;0f33be281603357f6</text>
</g>
<!-- 95e22719d867468ca8b764d29012020e&#45;&gt;f9acaf58ce4b4bb8a8e3eaf6ffd020e2 -->
<g id="edge29" class="edge">
<title>95e22719d867468ca8b764d29012020e&#45;&gt;f9acaf58ce4b4bb8a8e3eaf6ffd020e2</title>
<path fill="none" stroke="#7b8894" d="M485.84,-474.63C485.84,-456.58 485.84,-442.75 485.84,-442.75 485.84,-442.75 336.8,-442.75 336.8,-442.75 336.8,-442.75 336.8,-421.05 336.8,-421.05"/>
<polygon fill="#7b8894" stroke="#7b8894" points="340.3,-421.05 336.8,-411.05 333.3,-421.05 340.3,-421.05"/>
</g>
<!-- 0d99c4c2f29744deb153519f94c29166 -->
<g id="node26" class="node">
<title>0d99c4c2f29744deb153519f94c29166</title>
<image xlink:href="/Users/tim/CODE_PROJECTS/CHESSCHAT_V2/diagrams/.venv/lib/python3.14/site-packages/resources/aws/network/endpoint.png" width="100.8px" height="100.8px" preserveAspectRatio="xMinYMin meet" x="167.6" y="-377.25"/>
<text xml:space="preserve" text-anchor="middle" x="218" y="-258.7" font-family="Sans-Serif" font-size="13.00" fill="#2d3436">ECR DKR</text>
<text xml:space="preserve" text-anchor="middle" x="218" y="-245.2" font-family="Sans-Serif" font-size="13.00" fill="#2d3436">vpce&#45;000b7ae5082191c41</text>
</g>
<!-- 95e22719d867468ca8b764d29012020e&#45;&gt;0d99c4c2f29744deb153519f94c29166 -->
<g id="edge30" class="edge">
<title>95e22719d867468ca8b764d29012020e&#45;&gt;0d99c4c2f29744deb153519f94c29166</title>
<path fill="none" stroke="#7b8894" d="M475.76,-474.46C475.76,-469.67 475.76,-466.75 475.76,-466.75 475.76,-466.75 218,-466.75 218,-466.75 218,-466.75 218,-420.96 218,-420.96"/>
<polygon fill="#7b8894" stroke="#7b8894" points="221.5,-420.96 218,-410.96 214.5,-420.96 221.5,-420.96"/>
</g>
<!-- 69fa612b55d648a888c8a1db33a6c17a -->
<g id="node27" class="node">
<title>69fa612b55d648a888c8a1db33a6c17a</title>
<image xlink:href="/Users/tim/CODE_PROJECTS/CHESSCHAT_V2/diagrams/.venv/lib/python3.14/site-packages/resources/aws/network/endpoint.png" width="100.8px" height="100.8px" preserveAspectRatio="xMinYMin meet" x="455.6" y="-377.25"/>
<text xml:space="preserve" text-anchor="middle" x="506" y="-258.7" font-family="Sans-Serif" font-size="13.00" fill="#2d3436">CloudWatch Logs</text>
<text xml:space="preserve" text-anchor="middle" x="506" y="-245.2" font-family="Sans-Serif" font-size="13.00" fill="#2d3436">vpce&#45;0c03bd6affeadc424</text>
</g>
<!-- 95e22719d867468ca8b764d29012020e&#45;&gt;69fa612b55d648a888c8a1db33a6c17a -->
<g id="edge31" class="edge">
<title>95e22719d867468ca8b764d29012020e&#45;&gt;69fa612b55d648a888c8a1db33a6c17a</title>
<path fill="none" stroke="#7b8894" d="M506,-474.69C506,-474.69 506,-421.07 506,-421.07"/>
<polygon fill="#7b8894" stroke="#7b8894" points="509.5,-421.07 506,-411.07 502.5,-421.07 509.5,-421.07"/>
</g>
<!-- 029839c749994b3bb4f648054ce90e26 -->
<g id="node28" class="node">
<title>029839c749994b3bb4f648054ce90e26</title>
<image xlink:href="/Users/tim/CODE_PROJECTS/CHESSCHAT_V2/diagrams/.venv/lib/python3.14/site-packages/resources/aws/network/endpoint.png" width="100.8px" height="100.8px" preserveAspectRatio="xMinYMin meet" x="23.6" y="-377.25"/>
<text xml:space="preserve" text-anchor="middle" x="74" y="-258.7" font-family="Sans-Serif" font-size="13.00" fill="#2d3436">Secrets Manager</text>
<text xml:space="preserve" text-anchor="middle" x="74" y="-245.2" font-family="Sans-Serif" font-size="13.00" fill="#2d3436">vpce&#45;0541a547c67809804</text>
</g>
<!-- 95e22719d867468ca8b764d29012020e&#45;&gt;029839c749994b3bb4f648054ce90e26 -->
<g id="edge32" class="edge">
<title>95e22719d867468ca8b764d29012020e&#45;&gt;029839c749994b3bb4f648054ce90e26</title>
<path fill="none" stroke="#7b8894" d="M465.68,-474.59C465.68,-472.77 465.68,-471.75 465.68,-471.75 465.68,-471.75 74,-471.75 74,-471.75 74,-471.75 74,-420.97 74,-420.97"/>
<polygon fill="#7b8894" stroke="#7b8894" points="77.5,-420.97 74,-410.97 70.5,-420.97 77.5,-420.97"/>
</g>
<!-- b2aff52c929040cb9fa30c36f308fdcc -->
<g id="node18" class="node">
<title>b2aff52c929040cb9fa30c36f308fdcc</title>
<image xlink:href="/Users/tim/CODE_PROJECTS/CHESSCHAT_V2/diagrams/.venv/lib/python3.14/site-packages/resources/aws/network/route-table.png" width="100.8px" height="100.8px" preserveAspectRatio="xMinYMin meet" x="1175.6" y="-377.25"/>
<text xml:space="preserve" text-anchor="middle" x="1226" y="-258.7" font-family="Sans-Serif" font-size="13.00" fill="#2d3436">app&#45;1b</text>
<text xml:space="preserve" text-anchor="middle" x="1226" y="-245.2" font-family="Sans-Serif" font-size="13.00" fill="#2d3436">rtb&#45;0344e2f09e6880252</text>
</g>
<!-- 3167134cd70e49a0bdb7d67e33e77081&#45;&gt;b2aff52c929040cb9fa30c36f308fdcc -->
<g id="edge18" class="edge">
<title>3167134cd70e49a0bdb7d67e33e77081&#45;&gt;b2aff52c929040cb9fa30c36f308fdcc</title>
<path fill="none" stroke="#7b8894" d="M692.65,-474.64C692.65,-460.76 692.65,-450.75 692.65,-450.75 692.65,-450.75 1226,-450.75 1226,-450.75 1226,-450.75 1226,-421.01 1226,-421.01"/>
<polygon fill="#7b8894" stroke="#7b8894" points="1229.5,-421.01 1226,-411.01 1222.5,-421.01 1229.5,-421.01"/>
</g>
<!-- 3167134cd70e49a0bdb7d67e33e77081&#45;&gt;07423058066c49fc9cf42c5aa2b1cd0d -->
<g id="edge43" class="edge">
<title>3167134cd70e49a0bdb7d67e33e77081&#45;&gt;07423058066c49fc9cf42c5aa2b1cd0d</title>
<path fill="none" stroke="#7b8894" d="M684.89,-474.58C684.89,-447.28 684.89,-423.75 684.89,-423.75 684.89,-423.75 788.4,-423.75 788.4,-423.75 788.4,-423.75 788.4,-420.97 788.4,-420.97"/>
<polygon fill="#7b8894" stroke="#7b8894" points="791.9,-420.97 788.4,-410.97 784.9,-420.97 791.9,-420.97"/>
</g>
<!-- 3167134cd70e49a0bdb7d67e33e77081&#45;&gt;836187d0ed8b42b2b2536d8b95e484c5 -->
<g id="edge44" class="edge">
<title>3167134cd70e49a0bdb7d67e33e77081&#45;&gt;836187d0ed8b42b2b2536d8b95e484c5</title>
<path fill="none" stroke="#7b8894" d="M653.88,-474.69C653.88,-474.69 653.88,-421.07 653.88,-421.07"/>
<polygon fill="#7b8894" stroke="#7b8894" points="657.38,-421.07 653.88,-411.07 650.38,-421.07 657.38,-421.07"/>
</g>
<!-- 3167134cd70e49a0bdb7d67e33e77081&#45;&gt;f9acaf58ce4b4bb8a8e3eaf6ffd020e2 -->
<g id="edge33" class="edge">
<title>3167134cd70e49a0bdb7d67e33e77081&#45;&gt;f9acaf58ce4b4bb8a8e3eaf6ffd020e2</title>
<path fill="none" stroke="#7b8894" d="M622.86,-474.43C622.86,-455.46 622.86,-440.75 622.86,-440.75 622.86,-440.75 349.4,-440.75 349.4,-440.75 349.4,-440.75 349.4,-421.14 349.4,-421.14"/>
<polygon fill="#7b8894" stroke="#7b8894" points="352.9,-421.14 349.4,-411.14 345.9,-421.14 352.9,-421.14"/>
</g>
<!-- 3167134cd70e49a0bdb7d67e33e77081&#45;&gt;0d99c4c2f29744deb153519f94c29166 -->
<g id="edge34" class="edge">
<title>3167134cd70e49a0bdb7d67e33e77081&#45;&gt;0d99c4c2f29744deb153519f94c29166</title>
<path fill="none" stroke="#7b8894" d="M615.11,-474.64C615.11,-468.56 615.11,-464.75 615.11,-464.75 615.11,-464.75 243.2,-464.75 243.2,-464.75 243.2,-464.75 243.2,-420.97 243.2,-420.97"/>
<polygon fill="#7b8894" stroke="#7b8894" points="246.7,-420.97 243.2,-410.97 239.7,-420.97 246.7,-420.97"/>
</g>
<!-- 3167134cd70e49a0bdb7d67e33e77081&#45;&gt;69fa612b55d648a888c8a1db33a6c17a -->
<g id="edge35" class="edge">
<title>3167134cd70e49a0bdb7d67e33e77081&#45;&gt;69fa612b55d648a888c8a1db33a6c17a</title>
<path fill="none" stroke="#7b8894" d="M646.12,-474.61C646.12,-454.55 646.12,-438.75 646.12,-438.75 646.12,-438.75 546.32,-438.75 546.32,-438.75 546.32,-438.75 546.32,-421.16 546.32,-421.16"/>
<polygon fill="#7b8894" stroke="#7b8894" points="549.82,-421.16 546.32,-411.16 542.82,-421.16 549.82,-421.16"/>
</g>
<!-- 3167134cd70e49a0bdb7d67e33e77081&#45;&gt;029839c749994b3bb4f648054ce90e26 -->
<g id="edge36" class="edge">
<title>3167134cd70e49a0bdb7d67e33e77081&#45;&gt;029839c749994b3bb4f648054ce90e26</title>
<path fill="none" stroke="#7b8894" d="M607.35,-474.45C607.35,-471.48 607.35,-469.75 607.35,-469.75 607.35,-469.75 99.2,-469.75 99.2,-469.75 99.2,-469.75 99.2,-421.08 99.2,-421.08"/>
<polygon fill="#7b8894" stroke="#7b8894" points="102.7,-421.08 99.2,-411.08 95.7,-421.08 102.7,-421.08"/>
</g>
<!-- eb0015efe66f4ab395291071d03e8a50 -->
<g id="node19" class="node">
<title>eb0015efe66f4ab395291071d03e8a50</title>
<image xlink:href="/Users/tim/CODE_PROJECTS/CHESSCHAT_V2/diagrams/.venv/lib/python3.14/site-packages/resources/aws/network/route-table.png" width="100.8px" height="100.8px" preserveAspectRatio="xMinYMin meet" x="887.6" y="-377.25"/>
<text xml:space="preserve" text-anchor="middle" x="938" y="-258.7" font-family="Sans-Serif" font-size="13.00" fill="#2d3436">app&#45;1c</text>
<text xml:space="preserve" text-anchor="middle" x="938" y="-245.2" font-family="Sans-Serif" font-size="13.00" fill="#2d3436">rtb&#45;0ee6b3f73ec07e73d</text>
</g>
<!-- aacb4c541aa34fb4888c6eb54c781b38&#45;&gt;eb0015efe66f4ab395291071d03e8a50 -->
<g id="edge19" class="edge">
<title>aacb4c541aa34fb4888c6eb54c781b38&#45;&gt;eb0015efe66f4ab395291071d03e8a50</title>
<path fill="none" stroke="#7b8894" d="M399.8,-474.45C399.8,-458.04 399.8,-445.75 399.8,-445.75 399.8,-445.75 907.76,-445.75 907.76,-445.75 907.76,-445.75 907.76,-420.94 907.76,-420.94"/>
<polygon fill="#7b8894" stroke="#7b8894" points="911.26,-420.94 907.76,-410.94 904.26,-420.94 911.26,-420.94"/>
</g>
<!-- aacb4c541aa34fb4888c6eb54c781b38&#45;&gt;07423058066c49fc9cf42c5aa2b1cd0d -->
<g id="edge45" class="edge">
<title>aacb4c541aa34fb4888c6eb54c781b38&#45;&gt;07423058066c49fc9cf42c5aa2b1cd0d</title>
<path fill="none" stroke="#7b8894" d="M387.2,-474.66C387.2,-445.01 387.2,-418.75 387.2,-418.75 387.2,-418.75 754.8,-418.75 754.8,-418.75 754.8,-418.75 754.8,-417.84 754.8,-417.84"/>
<polygon fill="#7b8894" stroke="#7b8894" points="758.3,-421.12 754.8,-411.12 751.3,-421.12 758.3,-421.12"/>
</g>
<!-- aacb4c541aa34fb4888c6eb54c781b38&#45;&gt;836187d0ed8b42b2b2536d8b95e484c5 -->
<g id="edge46" class="edge">
<title>aacb4c541aa34fb4888c6eb54c781b38&#45;&gt;836187d0ed8b42b2b2536d8b95e484c5</title>
<path fill="none" stroke="#7b8894" d="M374.6,-474.75C374.6,-443.25 374.6,-414.75 374.6,-414.75 374.6,-414.75 630.62,-414.75 630.62,-414.75 630.62,-414.75 630.62,-414.23 630.62,-414.23"/>
<polygon fill="#7b8894" stroke="#7b8894" points="634.12,-421.03 630.62,-411.03 627.12,-421.03 634.12,-421.03"/>
</g>
<!-- aacb4c541aa34fb4888c6eb54c781b38&#45;&gt;f9acaf58ce4b4bb8a8e3eaf6ffd020e2 -->
<g id="edge37" class="edge">
<title>aacb4c541aa34fb4888c6eb54c781b38&#45;&gt;f9acaf58ce4b4bb8a8e3eaf6ffd020e2</title>
<path fill="none" stroke="#7b8894" d="M324.2,-474.69C324.2,-474.69 324.2,-421.07 324.2,-421.07"/>
<polygon fill="#7b8894" stroke="#7b8894" points="327.7,-421.07 324.2,-411.07 320.7,-421.07 327.7,-421.07"/>
</g>
<!-- aacb4c541aa34fb4888c6eb54c781b38&#45;&gt;0d99c4c2f29744deb153519f94c29166 -->
<g id="edge38" class="edge">
<title>aacb4c541aa34fb4888c6eb54c781b38&#45;&gt;0d99c4c2f29744deb153519f94c29166</title>
<path fill="none" stroke="#7b8894" d="M311.69,-529.75C261.82,-529.75 192.8,-529.75 192.8,-529.75 192.8,-529.75 192.8,-420.89 192.8,-420.89"/>
<polygon fill="#7b8894" stroke="#7b8894" points="196.3,-420.89 192.8,-410.89 189.3,-420.89 196.3,-420.89"/>
</g>
<!-- aacb4c541aa34fb4888c6eb54c781b38&#45;&gt;69fa612b55d648a888c8a1db33a6c17a -->
<g id="edge39" class="edge">
<title>aacb4c541aa34fb4888c6eb54c781b38&#45;&gt;69fa612b55d648a888c8a1db33a6c17a</title>
<path fill="none" stroke="#7b8894" d="M362,-474.7C362,-441.87 362,-411.75 362,-411.75 362,-411.75 495.92,-411.75 495.92,-411.75 495.92,-411.75 495.92,-411.51 495.92,-411.51"/>
<polygon fill="#7b8894" stroke="#7b8894" points="499.42,-420.81 495.92,-410.81 492.42,-420.81 499.42,-420.81"/>
</g>
<!-- aacb4c541aa34fb4888c6eb54c781b38&#45;&gt;029839c749994b3bb4f648054ce90e26 -->
<g id="edge40" class="edge">
<title>aacb4c541aa34fb4888c6eb54c781b38&#45;&gt;029839c749994b3bb4f648054ce90e26</title>
<path fill="none" stroke="#7b8894" d="M311.68,-584.75C223.14,-584.75 48.8,-584.75 48.8,-584.75 48.8,-584.75 48.8,-421.03 48.8,-421.03"/>
<polygon fill="#7b8894" stroke="#7b8894" points="52.3,-421.03 48.8,-411.03 45.3,-421.03 52.3,-421.03"/>
</g>
<!-- 5fcd9f0108d240208cb1677ba0972cf6 -->
<g id="node20" class="node">
<title>5fcd9f0108d240208cb1677ba0972cf6</title>
<image xlink:href="/Users/tim/CODE_PROJECTS/CHESSCHAT_V2/diagrams/.venv/lib/python3.14/site-packages/resources/aws/network/route-table.png" width="100.8px" height="100.8px" preserveAspectRatio="xMinYMin meet" x="1607.6" y="-377.25"/>
<text xml:space="preserve" text-anchor="middle" x="1658" y="-258.7" font-family="Sans-Serif" font-size="13.00" fill="#2d3436">data&#45;1a</text>
<text xml:space="preserve" text-anchor="middle" x="1658" y="-245.2" font-family="Sans-Serif" font-size="13.00" fill="#2d3436">rtb&#45;0ca39cb2160302101</text>
</g>
<!-- 5fe4bcc6efb94b1ca67aebcbb9bd0853&#45;&gt;5fcd9f0108d240208cb1677ba0972cf6 -->
<g id="edge20" class="edge">
<title>5fe4bcc6efb94b1ca67aebcbb9bd0853&#45;&gt;5fcd9f0108d240208cb1677ba0972cf6</title>
<path fill="none" stroke="#7b8894" d="M1112.24,-474.62C1112.24,-464.56 1112.24,-457.75 1112.24,-457.75 1112.24,-457.75 1622.1,-457.75 1622.1,-457.75 1622.1,-457.75 1622.1,-420.89 1622.1,-420.89"/>
<polygon fill="#7b8894" stroke="#7b8894" points="1625.6,-420.89 1622.1,-410.89 1618.6,-420.89 1625.6,-420.89"/>
</g>
<!-- 5fe4bcc6efb94b1ca67aebcbb9bd0853&#45;&gt;07423058066c49fc9cf42c5aa2b1cd0d -->
<g id="edge47" class="edge">
<title>5fe4bcc6efb94b1ca67aebcbb9bd0853&#45;&gt;07423058066c49fc9cf42c5aa2b1cd0d</title>
<path fill="none" stroke="#7b8894" d="M1092.08,-474.58C1092.08,-448.7 1092.08,-426.75 1092.08,-426.75 1092.08,-426.75 833.2,-426.75 833.2,-426.75 833.2,-426.75 833.2,-420.86 833.2,-420.86"/>
<polygon fill="#7b8894" stroke="#7b8894" points="836.7,-420.86 833.2,-410.86 829.7,-420.86 836.7,-420.86"/>
</g>
<!-- 5fe4bcc6efb94b1ca67aebcbb9bd0853&#45;&gt;836187d0ed8b42b2b2536d8b95e484c5 -->
<g id="edge48" class="edge">
<title>5fe4bcc6efb94b1ca67aebcbb9bd0853&#45;&gt;836187d0ed8b42b2b2536d8b95e484c5</title>
<path fill="none" stroke="#7b8894" d="M1071.92,-474.62C1071.92,-450.63 1071.92,-430.75 1071.92,-430.75 1071.92,-430.75 677.14,-430.75 677.14,-430.75 677.14,-430.75 677.14,-420.99 677.14,-420.99"/>
<polygon fill="#7b8894" stroke="#7b8894" points="680.64,-420.99 677.14,-410.99 673.64,-420.99 680.64,-420.99"/>
</g>
<!-- f4945b46b811433e82c2f5d2c5d02c94 -->
<g id="node21" class="node">
<title>f4945b46b811433e82c2f5d2c5d02c94</title>
<image xlink:href="/Users/tim/CODE_PROJECTS/CHESSCHAT_V2/diagrams/.venv/lib/python3.14/site-packages/resources/aws/network/route-table.png" width="100.8px" height="100.8px" preserveAspectRatio="xMinYMin meet" x="1319.6" y="-377.25"/>
<text xml:space="preserve" text-anchor="middle" x="1370" y="-258.7" font-family="Sans-Serif" font-size="13.00" fill="#2d3436">data&#45;1b</text>
<text xml:space="preserve" text-anchor="middle" x="1370" y="-245.2" font-family="Sans-Serif" font-size="13.00" fill="#2d3436">rtb&#45;091d2f66825ec5f4f</text>
</g>
<!-- 0e7d2d8044ee4067bdcc46da4466d1a9&#45;&gt;f4945b46b811433e82c2f5d2c5d02c94 -->
<g id="edge21" class="edge">
<title>0e7d2d8044ee4067bdcc46da4466d1a9&#45;&gt;f4945b46b811433e82c2f5d2c5d02c94</title>
<path fill="none" stroke="#7b8894" d="M810.8,-474.65C810.8,-461.83 810.8,-452.75 810.8,-452.75 810.8,-452.75 1334.1,-452.75 1334.1,-452.75 1334.1,-452.75 1334.1,-420.94 1334.1,-420.94"/>
<polygon fill="#7b8894" stroke="#7b8894" points="1337.6,-420.94 1334.1,-410.94 1330.6,-420.94 1337.6,-420.94"/>
</g>
<!-- 0e7d2d8044ee4067bdcc46da4466d1a9&#45;&gt;07423058066c49fc9cf42c5aa2b1cd0d -->
<g id="edge49" class="edge">
<title>0e7d2d8044ee4067bdcc46da4466d1a9&#45;&gt;07423058066c49fc9cf42c5aa2b1cd0d</title>
<path fill="none" stroke="#7b8894" d="M799.6,-474.69C799.6,-474.69 799.6,-421.07 799.6,-421.07"/>
<polygon fill="#7b8894" stroke="#7b8894" points="803.1,-421.07 799.6,-411.07 796.1,-421.07 803.1,-421.07"/>
</g>
<!-- 0e7d2d8044ee4067bdcc46da4466d1a9&#45;&gt;836187d0ed8b42b2b2536d8b95e484c5 -->
<g id="edge50" class="edge">
<title>0e7d2d8044ee4067bdcc46da4466d1a9&#45;&gt;836187d0ed8b42b2b2536d8b95e484c5</title>
<path fill="none" stroke="#7b8894" d="M777.2,-474.51C777.2,-453.01 777.2,-435.75 777.2,-435.75 777.2,-435.75 661.63,-435.75 661.63,-435.75 661.63,-435.75 661.63,-420.9 661.63,-420.9"/>
<polygon fill="#7b8894" stroke="#7b8894" points="665.13,-420.9 661.63,-410.9 658.13,-420.9 665.13,-420.9"/>
</g>
<!-- 2a7aac9f927a4940bf3ef8e9bf11cba8 -->
<g id="node22" class="node">
<title>2a7aac9f927a4940bf3ef8e9bf11cba8</title>
<image xlink:href="/Users/tim/CODE_PROJECTS/CHESSCHAT_V2/diagrams/.venv/lib/python3.14/site-packages/resources/aws/network/route-table.png" width="100.8px" height="100.8px" preserveAspectRatio="xMinYMin meet" x="1463.6" y="-377.25"/>
<text xml:space="preserve" text-anchor="middle" x="1514" y="-258.7" font-family="Sans-Serif" font-size="13.00" fill="#2d3436">data&#45;1c</text>
<text xml:space="preserve" text-anchor="middle" x="1514" y="-245.2" font-family="Sans-Serif" font-size="13.00" fill="#2d3436">rtb&#45;01ba84fa231b06cc2</text>
</g>
<!-- 1d80cbd8536849ecb7108c5f56e086e2&#45;&gt;2a7aac9f927a4940bf3ef8e9bf11cba8 -->
<g id="edge22" class="edge">
<title>1d80cbd8536849ecb7108c5f56e086e2&#45;&gt;2a7aac9f927a4940bf3ef8e9bf11cba8</title>
<path fill="none" stroke="#7b8894" d="M968.24,-474.5C968.24,-462.85 968.24,-454.75 968.24,-454.75 968.24,-454.75 1478.1,-454.75 1478.1,-454.75 1478.1,-454.75 1478.1,-420.81 1478.1,-420.81"/>
<polygon fill="#7b8894" stroke="#7b8894" points="1481.6,-420.81 1478.1,-410.81 1474.6,-420.81 1481.6,-420.81"/>
</g>
<!-- 1d80cbd8536849ecb7108c5f56e086e2&#45;&gt;07423058066c49fc9cf42c5aa2b1cd0d -->
<g id="edge51" class="edge">
<title>1d80cbd8536849ecb7108c5f56e086e2&#45;&gt;07423058066c49fc9cf42c5aa2b1cd0d</title>
<path fill="none" stroke="#7b8894" d="M948.08,-474.76C948.08,-449.75 948.08,-428.75 948.08,-428.75 948.08,-428.75 822,-428.75 822,-428.75 822,-428.75 822,-421.1 822,-421.1"/>
<polygon fill="#7b8894" stroke="#7b8894" points="825.5,-421.1 822,-411.1 818.5,-421.1 825.5,-421.1"/>
</g>
<!-- 1d80cbd8536849ecb7108c5f56e086e2&#45;&gt;836187d0ed8b42b2b2536d8b95e484c5 -->
<g id="edge52" class="edge">
<title>1d80cbd8536849ecb7108c5f56e086e2&#45;&gt;836187d0ed8b42b2b2536d8b95e484c5</title>
<path fill="none" stroke="#7b8894" d="M927.92,-474.51C927.92,-452.03 927.92,-433.75 927.92,-433.75 927.92,-433.75 669.38,-433.75 669.38,-433.75 669.38,-433.75 669.38,-421.01 669.38,-421.01"/>
<polygon fill="#7b8894" stroke="#7b8894" points="672.88,-421.01 669.38,-411.01 665.88,-421.01 672.88,-421.01"/>
</g>
<!-- 583eddbe19ab45efadf3584726402e3a&#45;&gt;608e2f373de740b08ed552da32b76deb -->
<g id="edge15" class="edge">
<title>583eddbe19ab45efadf3584726402e3a&#45;&gt;608e2f373de740b08ed552da32b76deb</title>
<path fill="none" stroke="#7b8894" d="M1852.12,-402.75C1880.55,-402.75 1910.5,-402.75 1910.5,-402.75 1910.5,-402.75 1910.5,-707.69 1910.5,-707.69"/>
<polygon fill="#7b8894" stroke="#7b8894" points="1907,-707.69 1910.5,-717.69 1914,-707.69 1907,-707.69"/>
<text xml:space="preserve" text-anchor="middle" x="1993.25" y="-551.6" font-family="Sans-Serif" font-size="13.00" fill="#2d3436">0.0.0.0/0</text>
</g>
<!-- 4f4f92cd4ab2475d9f098cf5f03bc531&#45;&gt;b274bc5be3fd47dca13be56f771c9aaf -->
<g id="edge23" class="edge">
<title>4f4f92cd4ab2475d9f098cf5f03bc531&#45;&gt;b274bc5be3fd47dca13be56f771c9aaf</title>
<path fill="none" stroke="#7b8894" d="M1082,-244.33C1082,-182.22 1082,-107.75 1082,-107.75 1082,-107.75 1308.32,-107.75 1308.32,-107.75"/>
<polygon fill="#7b8894" stroke="#7b8894" points="1308.32,-111.25 1318.32,-107.75 1308.32,-104.25 1308.32,-111.25"/>
<text xml:space="preserve" text-anchor="middle" x="1146.25" y="-204.7" font-family="Sans-Serif" font-size="13.00" fill="#2d3436">0.0.0.0/0</text>
</g>
<!-- b2aff52c929040cb9fa30c36f308fdcc&#45;&gt;b274bc5be3fd47dca13be56f771c9aaf -->
<g id="edge24" class="edge">
<title>b2aff52c929040cb9fa30c36f308fdcc&#45;&gt;b274bc5be3fd47dca13be56f771c9aaf</title>
<path fill="none" stroke="#7b8894" d="M1226,-244.22C1226,-195.28 1226,-142.75 1226,-142.75 1226,-142.75 1308.12,-142.75 1308.12,-142.75"/>
<polygon fill="#7b8894" stroke="#7b8894" points="1308.12,-146.25 1318.12,-142.75 1308.12,-139.25 1308.12,-146.25"/>
<text xml:space="preserve" text-anchor="middle" x="1279.25" y="-204.7" font-family="Sans-Serif" font-size="13.00" fill="#2d3436">0.0.0.0/0</text>
</g>
<!-- eb0015efe66f4ab395291071d03e8a50&#45;&gt;b274bc5be3fd47dca13be56f771c9aaf -->
<g id="edge25" class="edge">
<title>eb0015efe66f4ab395291071d03e8a50&#45;&gt;b274bc5be3fd47dca13be56f771c9aaf</title>
<path fill="none" stroke="#7b8894" d="M938,-244.33C938,-170.47 938,-73.75 938,-73.75 938,-73.75 1308.51,-73.75 1308.51,-73.75"/>
<polygon fill="#7b8894" stroke="#7b8894" points="1308.51,-77.25 1318.51,-73.75 1308.51,-70.25 1308.51,-77.25"/>
<text xml:space="preserve" text-anchor="middle" x="981.25" y="-204.7" font-family="Sans-Serif" font-size="13.00" fill="#2d3436">0.0.0.0/0</text>
</g>
<!-- 5fcd9f0108d240208cb1677ba0972cf6&#45;&gt;b274bc5be3fd47dca13be56f771c9aaf -->
<g id="edge26" class="edge">
<title>5fcd9f0108d240208cb1677ba0972cf6&#45;&gt;b274bc5be3fd47dca13be56f771c9aaf</title>
<path fill="none" stroke="#7b8894" d="M1658,-244.33C1658,-182.22 1658,-107.75 1658,-107.75 1658,-107.75 1431.68,-107.75 1431.68,-107.75"/>
<polygon fill="#7b8894" stroke="#7b8894" points="1431.68,-104.25 1421.68,-107.75 1431.68,-111.25 1431.68,-104.25"/>
<text xml:space="preserve" text-anchor="middle" x="1651.25" y="-204.7" font-family="Sans-Serif" font-size="13.00" fill="#2d3436">0.0.0.0/0</text>
</g>
<!-- f4945b46b811433e82c2f5d2c5d02c94&#45;&gt;b274bc5be3fd47dca13be56f771c9aaf -->
<g id="edge27" class="edge">
<title>f4945b46b811433e82c2f5d2c5d02c94&#45;&gt;b274bc5be3fd47dca13be56f771c9aaf</title>
<path fill="none" stroke="#7b8894" d="M1370,-244.17C1370,-244.17 1370,-187.86 1370,-187.86"/>
<polygon fill="#7b8894" stroke="#7b8894" points="1373.5,-187.86 1370,-177.86 1366.5,-187.86 1373.5,-187.86"/>
<text xml:space="preserve" text-anchor="middle" x="1396.25" y="-204.7" font-family="Sans-Serif" font-size="13.00" fill="#2d3436">0.0.0.0/0</text>
</g>
<!-- 2a7aac9f927a4940bf3ef8e9bf11cba8&#45;&gt;b274bc5be3fd47dca13be56f771c9aaf -->
<g id="edge28" class="edge">
<title>2a7aac9f927a4940bf3ef8e9bf11cba8&#45;&gt;b274bc5be3fd47dca13be56f771c9aaf</title>
<path fill="none" stroke="#7b8894" d="M1514,-244.22C1514,-195.28 1514,-142.75 1514,-142.75 1514,-142.75 1431.88,-142.75 1431.88,-142.75"/>
<polygon fill="#7b8894" stroke="#7b8894" points="1431.88,-139.25 1421.88,-142.75 1431.88,-146.25 1431.88,-139.25"/>
<text xml:space="preserve" text-anchor="middle" x="1518.25" y="-204.7" font-family="Sans-Serif" font-size="13.00" fill="#2d3436">0.0.0.0/0</text>
</g>
</g>
</svg>
