<?xml version="1.0" encoding="UTF-8" standalone="no"?>
<!DOCTYPE svg PUBLIC "-//W3C//DTD SVG 1.1//EN"
 "http://www.w3.org/Graphics/SVG/1.1/DTD/svg11.dtd">
<!-- Generated by graphviz version 14.1.2 (20260124.0452)
 -->
<!-- Title: G Pages: 1 -->
<svg width="1149pt" height="693pt"
 viewBox="0.00 0.00 1149.00 693.00" xmlns="http://www.w3.org/2000/svg" xmlns:xlink="http://www.w3.org/1999/xlink">
<g id="graph0" class="graph" transform="scale(1 1) rotate(0) translate(4 689)">
<title>G</title>
<polygon fill="white" stroke="none" points="-4,4 -4,-689 1144.75,-689 1144.75,4 -4,4"/>
<g id="clust1" class="cluster">
<title>cluster_module.vpc</title>
<polygon fill="none" stroke="black" points="8,-8 8,-677 1132.75,-677 1132.75,-8 8,-8"/>
<text xml:space="preserve" text-anchor="middle" x="570.38" y="-659.7" font-family="sans-serif" font-size="14.00">module.vpc</text>
</g>
<!-- module.vpc.data.aws_availability_zones.available -->
<g id="node1" class="node">
<title>module.vpc.data.aws_availability_zones.available</title>
<polygon fill="none" stroke="black" points="271.62,-538 31.38,-538 31.38,-502 271.62,-502 271.62,-538"/>
<text xml:space="preserve" text-anchor="middle" x="151.5" y="-514.2" font-family="sans-serif" font-size="14.00">data.aws_availability_zones.available</text>
</g>
<!-- module.vpc.data.aws_region.current -->
<g id="node2" class="node">
<title>module.vpc.data.aws_region.current</title>
<polygon fill="none" stroke="black" points="532.12,-430 371.38,-430 371.38,-394 532.12,-394 532.12,-430"/>
<text xml:space="preserve" text-anchor="middle" x="451.75" y="-406.2" font-family="sans-serif" font-size="14.00">data.aws_region.current</text>
</g>
<!-- module.vpc.aws_cloudwatch_log_group.vpc_flow_logs -->
<g id="node3" class="node">
<title>module.vpc.aws_cloudwatch_log_group.vpc_flow_logs</title>
<polygon fill="none" stroke="black" points="287,-106 16,-106 16,-70 287,-70 287,-106"/>
<text xml:space="preserve" text-anchor="middle" x="151.5" y="-82.2" font-family="sans-serif" font-size="14.00">aws_cloudwatch_log_group.vpc_flow_logs</text>
</g>
<!-- module.vpc.aws_eip.nat -->
<g id="node4" class="node">
<title>module.vpc.aws_eip.nat</title>
<polygon fill="none" stroke="black" points="495.75,-160 407.75,-160 407.75,-124 495.75,-124 495.75,-160"/>
<text xml:space="preserve" text-anchor="middle" x="451.75" y="-136.2" font-family="sans-serif" font-size="14.00">aws_eip.nat</text>
</g>
<!-- module.vpc.aws_flow_log.vpc -->
<g id="node5" class="node">
<title>module.vpc.aws_flow_log.vpc</title>
<polygon fill="none" stroke="black" points="512.62,-106 390.88,-106 390.88,-70 512.62,-70 512.62,-106"/>
<text xml:space="preserve" text-anchor="middle" x="451.75" y="-82.2" font-family="sans-serif" font-size="14.00">aws_flow_log.vpc</text>
</g>
<!-- module.vpc.aws_flow_log.vpc&#45;&gt;module.vpc.aws_cloudwatch_log_group.vpc_flow_logs -->
<g id="edge1" class="edge">
<title>module.vpc.aws_flow_log.vpc&#45;&gt;module.vpc.aws_cloudwatch_log_group.vpc_flow_logs</title>
<path fill="none" stroke="black" d="M390.39,-88C363.75,-88 331.16,-88 298.75,-88"/>
<polygon fill="black" stroke="black" points="298.82,-84.5 288.82,-88 298.82,-91.5 298.82,-84.5"/>
</g>
<!-- module.vpc.aws_iam_role.flow_logs -->
<g id="node6" class="node">
<title>module.vpc.aws_iam_role.flow_logs</title>
<polygon fill="none" stroke="black" points="231.5,-52 71.5,-52 71.5,-16 231.5,-16 231.5,-52"/>
<text xml:space="preserve" text-anchor="middle" x="151.5" y="-28.2" font-family="sans-serif" font-size="14.00">aws_iam_role.flow_logs</text>
</g>
<!-- module.vpc.aws_flow_log.vpc&#45;&gt;module.vpc.aws_iam_role.flow_logs -->
<g id="edge2" class="edge">
<title>module.vpc.aws_flow_log.vpc&#45;&gt;module.vpc.aws_iam_role.flow_logs</title>
<path fill="none" stroke="black" d="M390.39,-77.07C348.08,-69.41 290.78,-59.04 243.02,-50.39"/>
<polygon fill="black" stroke="black" points="243.68,-46.95 233.22,-48.61 242.44,-53.84 243.68,-46.95"/>
</g>
<!-- module.vpc.aws_vpc.this -->
<g id="node23" class="node">
<title>module.vpc.aws_vpc.this</title>
<polygon fill="none" stroke="black" points="198.12,-376 104.88,-376 104.88,-340 198.12,-340 198.12,-376"/>
<text xml:space="preserve" text-anchor="middle" x="151.5" y="-352.2" font-family="sans-serif" font-size="14.00">aws_vpc.this</text>
</g>
<!-- module.vpc.aws_flow_log.vpc&#45;&gt;module.vpc.aws_vpc.this -->
<g id="edge3" class="edge">
<title>module.vpc.aws_flow_log.vpc&#45;&gt;module.vpc.aws_vpc.this</title>
<path fill="none" stroke="black" d="M390.58,-91.41C367.92,-94.98 342.86,-101.88 323,-115 241.07,-169.11 186.65,-277.27 164.18,-329.06"/>
<polygon fill="black" stroke="black" points="161.02,-327.54 160.34,-338.11 167.46,-330.27 161.02,-327.54"/>
</g>
<!-- module.vpc.aws_iam_role_policy.flow_logs -->
<g id="node7" class="node">
<title>module.vpc.aws_iam_role_policy.flow_logs</title>
<polygon fill="none" stroke="black" points="552.38,-52 351.12,-52 351.12,-16 552.38,-16 552.38,-52"/>
<text xml:space="preserve" text-anchor="middle" x="451.75" y="-28.2" font-family="sans-serif" font-size="14.00">aws_iam_role_policy.flow_logs</text>
</g>
<!-- module.vpc.aws_iam_role_policy.flow_logs&#45;&gt;module.vpc.aws_iam_role.flow_logs -->
<g id="edge4" class="edge">
<title>module.vpc.aws_iam_role_policy.flow_logs&#45;&gt;module.vpc.aws_iam_role.flow_logs</title>
<path fill="none" stroke="black" d="M351.02,-34C316.18,-34 277.29,-34 243.22,-34"/>
<polygon fill="black" stroke="black" points="243.38,-30.5 233.38,-34 243.38,-37.5 243.38,-30.5"/>
</g>
<!-- module.vpc.aws_internet_gateway.this -->
<g id="node8" class="node">
<title>module.vpc.aws_internet_gateway.this</title>
<polygon fill="none" stroke="black" points="538.88,-214 364.62,-214 364.62,-178 538.88,-178 538.88,-214"/>
<text xml:space="preserve" text-anchor="middle" x="451.75" y="-190.2" font-family="sans-serif" font-size="14.00">aws_internet_gateway.this</text>
</g>
<!-- module.vpc.aws_internet_gateway.this&#45;&gt;module.vpc.aws_vpc.this -->
<g id="edge5" class="edge">
<title>module.vpc.aws_internet_gateway.this&#45;&gt;module.vpc.aws_vpc.this</title>
<path fill="none" stroke="black" d="M364.44,-208.55C350.23,-212.21 335.93,-216.93 323,-223 264.9,-250.28 208.77,-300.87 177.62,-331.78"/>
<polygon fill="black" stroke="black" points="175.14,-329.3 170.58,-338.86 180.11,-334.23 175.14,-329.3"/>
</g>
<!-- module.vpc.aws_nat_gateway.this -->
<g id="node9" class="node">
<title>module.vpc.aws_nat_gateway.this</title>
<polygon fill="none" stroke="black" points="824.5,-214 676.5,-214 676.5,-178 824.5,-178 824.5,-214"/>
<text xml:space="preserve" text-anchor="middle" x="750.5" y="-190.2" font-family="sans-serif" font-size="14.00">aws_nat_gateway.this</text>
</g>
<!-- module.vpc.aws_nat_gateway.this&#45;&gt;module.vpc.aws_eip.nat -->
<g id="edge6" class="edge">
<title>module.vpc.aws_nat_gateway.this&#45;&gt;module.vpc.aws_eip.nat</title>
<path fill="none" stroke="black" d="M676.15,-182.65C623.82,-173.13 554.6,-160.53 507.16,-151.9"/>
<polygon fill="black" stroke="black" points="507.85,-148.47 497.38,-150.12 506.6,-155.36 507.85,-148.47"/>
</g>
<!-- module.vpc.aws_nat_gateway.this&#45;&gt;module.vpc.aws_internet_gateway.this -->
<g id="edge7" class="edge">
<title>module.vpc.aws_nat_gateway.this&#45;&gt;module.vpc.aws_internet_gateway.this</title>
<path fill="none" stroke="black" d="M676.15,-196C638.26,-196 591.52,-196 550.59,-196"/>
<polygon fill="black" stroke="black" points="550.73,-192.5 540.73,-196 550.73,-199.5 550.73,-192.5"/>
</g>
<!-- module.vpc.aws_subnet.public -->
<g id="node22" class="node">
<title>module.vpc.aws_subnet.public</title>
<polygon fill="none" stroke="black" points="515.25,-268 388.25,-268 388.25,-232 515.25,-232 515.25,-268"/>
<text xml:space="preserve" text-anchor="middle" x="451.75" y="-244.2" font-family="sans-serif" font-size="14.00">aws_subnet.public</text>
</g>
<!-- module.vpc.aws_nat_gateway.this&#45;&gt;module.vpc.aws_subnet.public -->
<g id="edge8" class="edge">
<title>module.vpc.aws_nat_gateway.this&#45;&gt;module.vpc.aws_subnet.public</title>
<path fill="none" stroke="black" d="M676.15,-209.35C630.74,-217.61 572.6,-228.19 527.02,-236.48"/>
<polygon fill="black" stroke="black" points="526.42,-233.04 517.21,-238.27 527.67,-239.92 526.42,-233.04"/>
</g>
<!-- module.vpc.aws_route.private_app_default -->
<g id="node10" class="node">
<title>module.vpc.aws_route.private_app_default</title>
<polygon fill="none" stroke="black" points="1122.88,-296 922.38,-296 922.38,-260 1122.88,-260 1122.88,-296"/>
<text xml:space="preserve" text-anchor="middle" x="1022.62" y="-272.2" font-family="sans-serif" font-size="14.00">aws_route.private_app_default</text>
</g>
<!-- module.vpc.aws_route.private_app_default&#45;&gt;module.vpc.aws_nat_gateway.this -->
<g id="edge9" class="edge">
<title>module.vpc.aws_route.private_app_default&#45;&gt;module.vpc.aws_nat_gateway.this</title>
<path fill="none" stroke="black" d="M981.21,-259.54C954.26,-247.79 917.8,-232.97 884.5,-223 869,-218.36 852.25,-214.27 836.04,-210.76"/>
<polygon fill="black" stroke="black" points="836.9,-207.37 826.4,-208.74 835.46,-214.22 836.9,-207.37"/>
</g>
<!-- module.vpc.aws_route_table.private_app -->
<g id="node13" class="node">
<title>module.vpc.aws_route_table.private_app</title>
<polygon fill="none" stroke="black" points="546.38,-538 357.12,-538 357.12,-502 546.38,-502 546.38,-538"/>
<text xml:space="preserve" text-anchor="middle" x="451.75" y="-514.2" font-family="sans-serif" font-size="14.00">aws_route_table.private_app</text>
</g>
<!-- module.vpc.aws_route.private_app_default&#45;&gt;module.vpc.aws_route_table.private_app -->
<g id="edge10" class="edge">
<title>module.vpc.aws_route.private_app_default&#45;&gt;module.vpc.aws_route_table.private_app</title>
<path fill="none" stroke="black" d="M1011.34,-296.41C992.61,-330.12 952,-404.16 920.5,-468 903.43,-502.6 916.95,-526.13 884.5,-547 859.46,-563.11 646.18,-549.43 616.5,-547 597.54,-545.45 577.46,-542.9 558.11,-539.97"/>
<polygon fill="black" stroke="black" points="558.72,-536.53 548.3,-538.44 557.64,-543.44 558.72,-536.53"/>
</g>
<!-- module.vpc.aws_route.private_data_default -->
<g id="node11" class="node">
<title>module.vpc.aws_route.private_data_default</title>
<polygon fill="none" stroke="black" points="1124.75,-513 920.5,-513 920.5,-477 1124.75,-477 1124.75,-513"/>
<text xml:space="preserve" text-anchor="middle" x="1022.62" y="-489.2" font-family="sans-serif" font-size="14.00">aws_route.private_data_default</text>
</g>
<!-- module.vpc.aws_route.private_data_default&#45;&gt;module.vpc.aws_nat_gateway.this -->
<g id="edge11" class="edge">
<title>module.vpc.aws_route.private_data_default&#45;&gt;module.vpc.aws_nat_gateway.this</title>
<path fill="none" stroke="black" d="M1011.25,-476.63C992.39,-442.99 951.55,-369.05 920.5,-305 903.14,-269.18 915.48,-247.99 884.5,-223 870.6,-211.79 853.28,-204.85 835.78,-200.64"/>
<polygon fill="black" stroke="black" points="836.87,-197.29 826.37,-198.66 835.44,-204.14 836.87,-197.29"/>
</g>
<!-- module.vpc.aws_route_table.private_data -->
<g id="node14" class="node">
<title>module.vpc.aws_route_table.private_data</title>
<polygon fill="none" stroke="black" points="548.25,-592 355.25,-592 355.25,-556 548.25,-556 548.25,-592"/>
<text xml:space="preserve" text-anchor="middle" x="451.75" y="-568.2" font-family="sans-serif" font-size="14.00">aws_route_table.private_data</text>
</g>
<!-- module.vpc.aws_route.private_data_default&#45;&gt;module.vpc.aws_route_table.private_data -->
<g id="edge12" class="edge">
<title>module.vpc.aws_route.private_data_default&#45;&gt;module.vpc.aws_route_table.private_data</title>
<path fill="none" stroke="black" d="M993.06,-513.48C966.24,-529.7 924.38,-552.19 884.5,-562 776.37,-588.59 648.42,-588.37 560.02,-583.5"/>
<polygon fill="black" stroke="black" points="560.33,-580.01 550.14,-582.92 559.92,-587 560.33,-580.01"/>
</g>
<!-- module.vpc.aws_route.public_default -->
<g id="node12" class="node">
<title>module.vpc.aws_route.public_default</title>
<polygon fill="none" stroke="black" points="833.12,-268 667.88,-268 667.88,-232 833.12,-232 833.12,-268"/>
<text xml:space="preserve" text-anchor="middle" x="750.5" y="-244.2" font-family="sans-serif" font-size="14.00">aws_route.public_default</text>
</g>
<!-- module.vpc.aws_route.public_default&#45;&gt;module.vpc.aws_internet_gateway.this -->
<g id="edge13" class="edge">
<title>module.vpc.aws_route.public_default&#45;&gt;module.vpc.aws_internet_gateway.this</title>
<path fill="none" stroke="black" d="M667.63,-235.1C631.32,-228.5 588.32,-220.67 550.36,-213.76"/>
<polygon fill="black" stroke="black" points="551.24,-210.36 540.77,-212.02 549.98,-217.25 551.24,-210.36"/>
</g>
<!-- module.vpc.aws_route_table.public -->
<g id="node15" class="node">
<title>module.vpc.aws_route_table.public</title>
<polygon fill="none" stroke="black" points="528.75,-376 374.75,-376 374.75,-340 528.75,-340 528.75,-376"/>
<text xml:space="preserve" text-anchor="middle" x="451.75" y="-352.2" font-family="sans-serif" font-size="14.00">aws_route_table.public</text>
</g>
<!-- module.vpc.aws_route.public_default&#45;&gt;module.vpc.aws_route_table.public -->
<g id="edge14" class="edge">
<title>module.vpc.aws_route.public_default&#45;&gt;module.vpc.aws_route_table.public</title>
<path fill="none" stroke="black" d="M667.45,-256.3C649.59,-260.41 631.56,-266.88 616.5,-277 592.56,-293.08 604.38,-314.82 580.5,-331 568.46,-339.16 554.44,-344.92 540.17,-348.98"/>
<polygon fill="black" stroke="black" points="539.54,-345.53 530.72,-351.39 541.27,-352.31 539.54,-345.53"/>
</g>
<!-- module.vpc.aws_route_table.private_app&#45;&gt;module.vpc.data.aws_availability_zones.available -->
<g id="edge15" class="edge">
<title>module.vpc.aws_route_table.private_app&#45;&gt;module.vpc.data.aws_availability_zones.available</title>
<path fill="none" stroke="black" d="M356.79,-520C333.47,-520 308.05,-520 283.32,-520"/>
<polygon fill="black" stroke="black" points="283.53,-516.5 273.53,-520 283.53,-523.5 283.53,-516.5"/>
</g>
<!-- module.vpc.aws_route_table.private_app&#45;&gt;module.vpc.aws_vpc.this -->
<g id="edge16" class="edge">
<title>module.vpc.aws_route_table.private_app&#45;&gt;module.vpc.aws_vpc.this</title>
<path fill="none" stroke="black" d="M356.66,-505.34C345.05,-502.02 333.57,-497.96 323,-493 264.9,-465.72 208.77,-415.13 177.62,-384.22"/>
<polygon fill="black" stroke="black" points="180.11,-381.77 170.58,-377.14 175.14,-386.7 180.11,-381.77"/>
</g>
<!-- module.vpc.aws_route_table.private_data&#45;&gt;module.vpc.data.aws_availability_zones.available -->
<g id="edge17" class="edge">
<title>module.vpc.aws_route_table.private_data&#45;&gt;module.vpc.data.aws_availability_zones.available</title>
<path fill="none" stroke="black" d="M355.15,-556.69C326.67,-551.53 295.19,-545.83 265.7,-540.5"/>
<polygon fill="black" stroke="black" points="266.46,-537.08 256,-538.74 265.21,-543.96 266.46,-537.08"/>
</g>
<!-- module.vpc.aws_route_table.private_data&#45;&gt;module.vpc.aws_vpc.this -->
<g id="edge18" class="edge">
<title>module.vpc.aws_route_table.private_data&#45;&gt;module.vpc.aws_vpc.this</title>
<path fill="none" stroke="black" d="M354.93,-562.38C343.61,-558.56 332.66,-553.55 323,-547 299.12,-530.82 305.27,-515.32 287,-493 253.58,-452.16 209.6,-409.81 181.18,-383.68"/>
<polygon fill="black" stroke="black" points="183.75,-381.29 174.01,-377.13 179.03,-386.46 183.75,-381.29"/>
</g>
<!-- module.vpc.aws_route_table.public&#45;&gt;module.vpc.aws_vpc.this -->
<g id="edge19" class="edge">
<title>module.vpc.aws_route_table.public&#45;&gt;module.vpc.aws_vpc.this</title>
<path fill="none" stroke="black" d="M374.33,-358C323.1,-358 256.71,-358 209.95,-358"/>
<polygon fill="black" stroke="black" points="210.03,-354.5 200.03,-358 210.03,-361.5 210.03,-354.5"/>
</g>
<!-- module.vpc.aws_route_table_association.private_app -->
<g id="node16" class="node">
<title>module.vpc.aws_route_table_association.private_app</title>
<polygon fill="none" stroke="black" points="882.62,-538 618.38,-538 618.38,-502 882.62,-502 882.62,-538"/>
<text xml:space="preserve" text-anchor="middle" x="750.5" y="-514.2" font-family="sans-serif" font-size="14.00">aws_route_table_association.private_app</text>
</g>
<!-- module.vpc.aws_route_table_association.private_app&#45;&gt;module.vpc.aws_route_table.private_app -->
<g id="edge20" class="edge">
<title>module.vpc.aws_route_table_association.private_app&#45;&gt;module.vpc.aws_route_table.private_app</title>
<path fill="none" stroke="black" d="M618.05,-520C597.96,-520 577.45,-520 558.02,-520"/>
<polygon fill="black" stroke="black" points="558.24,-516.5 548.24,-520 558.24,-523.5 558.24,-516.5"/>
</g>
<!-- module.vpc.aws_subnet.private_app -->
<g id="node20" class="node">
<title>module.vpc.aws_subnet.private_app</title>
<polygon fill="none" stroke="black" points="532.88,-484 370.62,-484 370.62,-448 532.88,-448 532.88,-484"/>
<text xml:space="preserve" text-anchor="middle" x="451.75" y="-460.2" font-family="sans-serif" font-size="14.00">aws_subnet.private_app</text>
</g>
<!-- module.vpc.aws_route_table_association.private_app&#45;&gt;module.vpc.aws_subnet.private_app -->
<g id="edge21" class="edge">
<title>module.vpc.aws_route_table_association.private_app&#45;&gt;module.vpc.aws_subnet.private_app</title>
<path fill="none" stroke="black" d="M648.21,-501.57C614.42,-495.42 576.99,-488.61 544.01,-482.61"/>
<polygon fill="black" stroke="black" points="544.96,-479.22 534.5,-480.88 543.71,-486.11 544.96,-479.22"/>
</g>
<!-- module.vpc.aws_route_table_association.private_data -->
<g id="node17" class="node">
<title>module.vpc.aws_route_table_association.private_data</title>
<polygon fill="none" stroke="black" points="884.5,-639 616.5,-639 616.5,-603 884.5,-603 884.5,-639"/>
<text xml:space="preserve" text-anchor="middle" x="750.5" y="-615.2" font-family="sans-serif" font-size="14.00">aws_route_table_association.private_data</text>
</g>
<!-- module.vpc.aws_route_table_association.private_data&#45;&gt;module.vpc.aws_route_table.private_data -->
<g id="edge22" class="edge">
<title>module.vpc.aws_route_table_association.private_data&#45;&gt;module.vpc.aws_route_table.private_data</title>
<path fill="none" stroke="black" d="M633.07,-602.56C608.96,-598.74 583.67,-594.73 559.91,-590.97"/>
<polygon fill="black" stroke="black" points="560.66,-587.55 550.24,-589.44 559.57,-594.46 560.66,-587.55"/>
</g>
<!-- module.vpc.aws_subnet.private_data -->
<g id="node21" class="node">
<title>module.vpc.aws_subnet.private_data</title>
<polygon fill="none" stroke="black" points="534.75,-646 368.75,-646 368.75,-610 534.75,-610 534.75,-646"/>
<text xml:space="preserve" text-anchor="middle" x="451.75" y="-622.2" font-family="sans-serif" font-size="14.00">aws_subnet.private_data</text>
</g>
<!-- module.vpc.aws_route_table_association.private_data&#45;&gt;module.vpc.aws_subnet.private_data -->
<g id="edge23" class="edge">
<title>module.vpc.aws_route_table_association.private_data&#45;&gt;module.vpc.aws_subnet.private_data</title>
<path fill="none" stroke="black" d="M616.32,-624.14C592.7,-624.7 568.56,-625.27 546.33,-625.79"/>
<polygon fill="black" stroke="black" points="546.33,-622.29 536.41,-626.03 546.49,-629.29 546.33,-622.29"/>
</g>
<!-- module.vpc.aws_route_table_association.public -->
<g id="node18" class="node">
<title>module.vpc.aws_route_table_association.public</title>
<polygon fill="none" stroke="black" points="865,-322 636,-322 636,-286 865,-286 865,-322"/>
<text xml:space="preserve" text-anchor="middle" x="750.5" y="-298.2" font-family="sans-serif" font-size="14.00">aws_route_table_association.public</text>
</g>
<!-- module.vpc.aws_route_table_association.public&#45;&gt;module.vpc.aws_route_table.public -->
<g id="edge24" class="edge">
<title>module.vpc.aws_route_table_association.public&#45;&gt;module.vpc.aws_route_table.public</title>
<path fill="none" stroke="black" d="M648.21,-322.43C613.21,-328.8 574.31,-335.88 540.49,-342.03"/>
<polygon fill="black" stroke="black" points="539.93,-338.58 530.72,-343.81 541.18,-345.46 539.93,-338.58"/>
</g>
<!-- module.vpc.aws_route_table_association.public&#45;&gt;module.vpc.aws_subnet.public -->
<g id="edge25" class="edge">
<title>module.vpc.aws_route_table_association.public&#45;&gt;module.vpc.aws_subnet.public</title>
<path fill="none" stroke="black" d="M648.21,-285.57C608.34,-278.31 563.41,-270.14 526.7,-263.46"/>
<polygon fill="black" stroke="black" points="527.53,-260.05 517.07,-261.7 526.28,-266.94 527.53,-260.05"/>
</g>
<!-- module.vpc.aws_security_group.interface_endpoints -->
<g id="node19" class="node">
<title>module.vpc.aws_security_group.interface_endpoints</title>
<polygon fill="none" stroke="black" points="580.5,-322 323,-322 323,-286 580.5,-286 580.5,-322"/>
<text xml:space="preserve" text-anchor="middle" x="451.75" y="-298.2" font-family="sans-serif" font-size="14.00">aws_security_group.interface_endpoints</text>
</g>
<!-- module.vpc.aws_security_group.interface_endpoints&#45;&gt;module.vpc.aws_vpc.this -->
<g id="edge26" class="edge">
<title>module.vpc.aws_security_group.interface_endpoints&#45;&gt;module.vpc.aws_vpc.this</title>
<path fill="none" stroke="black" d="M348.94,-322.43C302.41,-330.86 249.01,-340.53 209.64,-347.65"/>
<polygon fill="black" stroke="black" points="209.12,-344.19 199.91,-349.42 210.37,-351.08 209.12,-344.19"/>
</g>
<!-- module.vpc.aws_subnet.private_app&#45;&gt;module.vpc.data.aws_availability_zones.available -->
<g id="edge27" class="edge">
<title>module.vpc.aws_subnet.private_app&#45;&gt;module.vpc.data.aws_availability_zones.available</title>
<path fill="none" stroke="black" d="M370.43,-480.54C338.28,-486.36 300.67,-493.17 265.83,-499.48"/>
<polygon fill="black" stroke="black" points="265.33,-496.01 256.11,-501.24 266.58,-502.9 265.33,-496.01"/>
</g>
<!-- module.vpc.aws_subnet.private_app&#45;&gt;module.vpc.aws_vpc.this -->
<g id="edge28" class="edge">
<title>module.vpc.aws_subnet.private_app&#45;&gt;module.vpc.aws_vpc.this</title>
<path fill="none" stroke="black" d="M370.24,-452C354.4,-448.4 338.03,-444.08 323,-439 277.84,-423.74 228.96,-399.67 195.16,-381.73"/>
<polygon fill="black" stroke="black" points="196.98,-378.73 186.51,-377.09 193.67,-384.9 196.98,-378.73"/>
</g>
<!-- module.vpc.aws_subnet.private_data&#45;&gt;module.vpc.data.aws_availability_zones.available -->
<g id="edge29" class="edge">
<title>module.vpc.aws_subnet.private_data&#45;&gt;module.vpc.data.aws_availability_zones.available</title>
<path fill="none" stroke="black" d="M368.54,-613.61C353.23,-610.09 337.5,-605.9 323,-601 277.84,-585.74 228.96,-561.67 195.16,-543.73"/>
<polygon fill="black" stroke="black" points="196.98,-540.73 186.51,-539.09 193.67,-546.9 196.98,-540.73"/>
</g>
<!-- module.vpc.aws_subnet.private_data&#45;&gt;module.vpc.aws_vpc.this -->
<g id="edge30" class="edge">
<title>module.vpc.aws_subnet.private_data&#45;&gt;module.vpc.aws_vpc.this</title>
<path fill="none" stroke="black" d="M368.49,-623.57C351.9,-619.33 335.68,-612.32 323,-601 285.25,-567.31 313.56,-536.06 287,-493 259.93,-449.11 215.96,-408.62 185.71,-383.66"/>
<polygon fill="black" stroke="black" points="187.94,-380.96 177.97,-377.38 183.53,-386.39 187.94,-380.96"/>
</g>
<!-- module.vpc.aws_subnet.public&#45;&gt;module.vpc.data.aws_availability_zones.available -->
<g id="edge31" class="edge">
<title>module.vpc.aws_subnet.public&#45;&gt;module.vpc.data.aws_availability_zones.available</title>
<path fill="none" stroke="black" d="M388.05,-250.6C365.21,-253.83 340.67,-261.23 323,-277 285.25,-310.69 313.56,-341.94 287,-385 259.93,-428.89 215.96,-469.38 185.71,-494.34"/>
<polygon fill="black" stroke="black" points="183.53,-491.61 177.97,-500.62 187.94,-497.04 183.53,-491.61"/>
</g>
<!-- module.vpc.aws_subnet.public&#45;&gt;module.vpc.aws_vpc.this -->
<g id="edge32" class="edge">
<title>module.vpc.aws_subnet.public&#45;&gt;module.vpc.aws_vpc.this</title>
<path fill="none" stroke="black" d="M387.91,-260.23C366.98,-264.44 343.72,-270 323,-277 277.84,-292.26 228.96,-316.33 195.16,-334.27"/>
<polygon fill="black" stroke="black" points="193.67,-331.1 186.51,-338.91 196.98,-337.27 193.67,-331.1"/>
</g>
<!-- module.vpc.aws_vpc_endpoint.dynamodb -->
<g id="node24" class="node">
<title>module.vpc.aws_vpc_endpoint.dynamodb</title>
<polygon fill="none" stroke="black" points="848.12,-484 652.88,-484 652.88,-448 848.12,-448 848.12,-484"/>
<text xml:space="preserve" text-anchor="middle" x="750.5" y="-460.2" font-family="sans-serif" font-size="14.00">aws_vpc_endpoint.dynamodb</text>
</g>
<!-- module.vpc.aws_vpc_endpoint.dynamodb&#45;&gt;module.vpc.data.aws_region.current -->
<g id="edge33" class="edge">
<title>module.vpc.aws_vpc_endpoint.dynamodb&#45;&gt;module.vpc.data.aws_region.current</title>
<path fill="none" stroke="black" d="M652.74,-448.39C617.64,-442.01 578.14,-434.82 543.56,-428.53"/>
<polygon fill="black" stroke="black" points="544.48,-425.13 534.01,-426.79 543.23,-432.02 544.48,-425.13"/>
</g>
<!-- module.vpc.aws_vpc_endpoint.dynamodb&#45;&gt;module.vpc.aws_route_table.private_app -->
<g id="edge34" class="edge">
<title>module.vpc.aws_vpc_endpoint.dynamodb&#45;&gt;module.vpc.aws_route_table.private_app</title>
<path fill="none" stroke="black" d="M652.74,-483.61C622.47,-489.12 588.91,-495.22 558.07,-500.83"/>
<polygon fill="black" stroke="black" points="557.55,-497.37 548.34,-502.61 558.8,-504.26 557.55,-497.37"/>
</g>
<!-- module.vpc.aws_vpc_endpoint.dynamodb&#45;&gt;module.vpc.aws_route_table.private_data -->
<g id="edge35" class="edge">
<title>module.vpc.aws_vpc_endpoint.dynamodb&#45;&gt;module.vpc.aws_route_table.private_data</title>
<path fill="none" stroke="black" d="M652.52,-476.32C639.75,-480.31 627.35,-485.71 616.5,-493 592.56,-509.08 604.38,-530.82 580.5,-547 573.93,-551.45 566.77,-555.19 559.3,-558.33"/>
<polygon fill="black" stroke="black" points="558.11,-555.04 549.98,-561.84 560.58,-561.59 558.11,-555.04"/>
</g>
<!-- module.vpc.aws_vpc_endpoint.dynamodb&#45;&gt;module.vpc.aws_route_table.public -->
<g id="edge36" class="edge">
<title>module.vpc.aws_vpc_endpoint.dynamodb&#45;&gt;module.vpc.aws_route_table.public</title>
<path fill="none" stroke="black" d="M652.52,-455.68C639.75,-451.69 627.35,-446.29 616.5,-439 592.56,-422.92 604.38,-401.18 580.5,-385 568.46,-376.84 554.44,-371.08 540.17,-367.02"/>
<polygon fill="black" stroke="black" points="541.27,-363.69 530.72,-364.61 539.54,-370.47 541.27,-363.69"/>
</g>
<!-- module.vpc.aws_vpc_endpoint.interface -->
<g id="node25" class="node">
<title>module.vpc.aws_vpc_endpoint.interface</title>
<polygon fill="none" stroke="black" points="842.12,-376 658.88,-376 658.88,-340 842.12,-340 842.12,-376"/>
<text xml:space="preserve" text-anchor="middle" x="750.5" y="-352.2" font-family="sans-serif" font-size="14.00">aws_vpc_endpoint.interface</text>
</g>
<!-- module.vpc.aws_vpc_endpoint.interface&#45;&gt;module.vpc.data.aws_region.current -->
<g id="edge37" class="edge">
<title>module.vpc.aws_vpc_endpoint.interface&#45;&gt;module.vpc.data.aws_region.current</title>
<path fill="none" stroke="black" d="M658.45,-374.57C622.01,-381.2 580.12,-388.82 543.69,-395.45"/>
<polygon fill="black" stroke="black" points="543.28,-391.97 534.06,-397.2 544.53,-398.86 543.28,-391.97"/>
</g>
<!-- module.vpc.aws_vpc_endpoint.interface&#45;&gt;module.vpc.aws_security_group.interface_endpoints -->
<g id="edge38" class="edge">
<title>module.vpc.aws_vpc_endpoint.interface&#45;&gt;module.vpc.aws_security_group.interface_endpoints</title>
<path fill="none" stroke="black" d="M658.45,-341.43C629.09,-336.09 596.19,-330.1 565.46,-324.51"/>
<polygon fill="black" stroke="black" points="566.2,-321.09 555.73,-322.74 564.94,-327.97 566.2,-321.09"/>
</g>
<!-- module.vpc.aws_vpc_endpoint.interface&#45;&gt;module.vpc.aws_subnet.private_app -->
<g id="edge39" class="edge">
<title>module.vpc.aws_vpc_endpoint.interface&#45;&gt;module.vpc.aws_subnet.private_app</title>
<path fill="none" stroke="black" d="M658.4,-366.59C643.59,-370.7 629.02,-376.59 616.5,-385 592.56,-401.08 604.38,-422.82 580.5,-439 569.58,-446.4 557.02,-451.83 544.13,-455.81"/>
<polygon fill="black" stroke="black" points="543.42,-452.37 534.72,-458.41 545.29,-459.12 543.42,-452.37"/>
</g>
<!-- module.vpc.aws_vpc_endpoint.s3 -->
<g id="node26" class="node">
<title>module.vpc.aws_vpc_endpoint.s3</title>
<polygon fill="none" stroke="black" points="823.38,-430 677.62,-430 677.62,-394 823.38,-394 823.38,-430"/>
<text xml:space="preserve" text-anchor="middle" x="750.5" y="-406.2" font-family="sans-serif" font-size="14.00">aws_vpc_endpoint.s3</text>
</g>
<!-- module.vpc.aws_vpc_endpoint.s3&#45;&gt;module.vpc.data.aws_region.current -->
<g id="edge40" class="edge">
<title>module.vpc.aws_vpc_endpoint.s3&#45;&gt;module.vpc.data.aws_region.current</title>
<path fill="none" stroke="black" d="M677.29,-412C637.13,-412 586.76,-412 543.9,-412"/>
<polygon fill="black" stroke="black" points="544.12,-408.5 534.12,-412 544.12,-415.5 544.12,-408.5"/>
</g>
<!-- module.vpc.aws_vpc_endpoint.s3&#45;&gt;module.vpc.aws_route_table.private_app -->
<g id="edge41" class="edge">
<title>module.vpc.aws_vpc_endpoint.s3&#45;&gt;module.vpc.aws_route_table.private_app</title>
<path fill="none" stroke="black" d="M677.15,-416.29C656.25,-420.18 634.3,-427.04 616.5,-439 592.56,-455.08 604.38,-476.82 580.5,-493 573.31,-497.87 565.41,-501.89 557.17,-505.2"/>
<polygon fill="black" stroke="black" points="556.22,-501.82 548.01,-508.52 558.6,-508.41 556.22,-501.82"/>
</g>
<!-- module.vpc.aws_vpc_endpoint.s3&#45;&gt;module.vpc.aws_route_table.private_data -->
<g id="edge42" class="edge">
<title>module.vpc.aws_vpc_endpoint.s3&#45;&gt;module.vpc.aws_route_table.private_data</title>
<path fill="none" stroke="black" d="M677.39,-413.06C655.66,-416.7 633.17,-424.24 616.5,-439 578.62,-472.54 618.25,-513.31 580.5,-547 574.09,-552.72 566.78,-557.34 558.98,-561.06"/>
<polygon fill="black" stroke="black" points="557.74,-557.78 549.86,-564.86 560.44,-564.24 557.74,-557.78"/>
</g>
<!-- module.vpc.aws_vpc_endpoint.s3&#45;&gt;module.vpc.aws_route_table.public -->
<g id="edge43" class="edge">
<title>module.vpc.aws_vpc_endpoint.s3&#45;&gt;module.vpc.aws_route_table.public</title>
<path fill="none" stroke="black" d="M677.29,-398.86C636.02,-391.35 583.96,-381.88 540.36,-373.94"/>
<polygon fill="black" stroke="black" points="541.14,-370.53 530.67,-372.18 539.88,-377.41 541.14,-370.53"/>
</g>
</g>
</svg>
